<?xml version="1.0" encoding="UTF-8"?><svg xmlns="http://www.w3.org/2000/svg" viewBox="0 0 450 450">
    <defs>
        <style>
            .c {
                fill: none;
                stroke: #fff;
                stroke-miterlimit: 10;
                stroke-width: 2.59px;
            }
        </style>
    </defs>
    <g id="a" />
    <g id="b">
        <g>
            <polygon class="c" points="419.86 337.5 225 450 30.14 337.5 30.14 112.5 225 0 419.86 112.5 419.86 337.5" />
            <circle class="c" cx="225" cy="225" r="194.33" transform="translate(-93.2 225) rotate(-45)" />
            <circle class="c" cx="225" cy="225" r="225" />
            <polygon class="c" points="419.86 337.5 30.14 337.5 225 0 419.86 337.5" />
            <line class="c" x1="225" y1="450" x2="225" />
            <line class="c" x1="419.86" y1="112.5" x2="30.14" y2="337.5" />
            <line class="c" x1="419.86" y1="337.5" x2="30.14" y2="112.5" />
            <g>
                <circle class="c" cx="225" cy="225" r="112.01" />
                <circle class="c" cx="225" cy="225" r="140.73" transform="translate(-93.2 225) rotate(-45)" />
            </g>
            <polygon class="c"
                points="225 112.99 127.57 168.75 127.57 281 225 337.01 322.01 281.01 322.01 169.02 225 112.99" />
        </g>
    </g>
</svg>