<?xml version="1.0" encoding="UTF-8" standalone="no"?>
<!-- Created with Inkscape (http://www.inkscape.org/) -->
<svg xmlns:rdf="http://www.w3.org/1999/02/22-rdf-syntax-ns#" xmlns="http://www.w3.org/2000/svg" xmlns:cc="http://web.resource.org/cc/" xmlns:dc="http://purl.org/dc/elements/1.1/" xmlns:svg="http://www.w3.org/2000/svg" xmlns:inkscape="http://www.inkscape.org/namespaces/inkscape" xmlns:sodipodi="http://sodipodi.sourceforge.net/DTD/sodipodi-0.dtd" xmlns:ns1="http://sozi.baierouge.fr" xmlns:xlink="http://www.w3.org/1999/xlink" id="svg2" version="1.1" viewBox="0 0 575.999971651997 575.9999732744195" inkscape:version="0.91 r13725">
  <path id="path2842" style="stroke:#ffffff;stroke-width:3.3457;fill:none" d="m324.22 157.73 195.18 80.84 80.84 195.18-80.84 195.18-195.18 80.85-195.18-80.85-80.845-195.18 80.845-195.18 195.18-80.84z" transform="matrix(.95644 0 0 .95644 -22.095 -126.86)"/>
  <path id="path2957" style="stroke:#ffffff;stroke-width:3.2;fill:none" d="m288 288-1e-13 -264l186.68 450.68 77.32-186.68-264-264"/>
  <path id="path2959" style="stroke:#ffffff;stroke-width:3.2;fill:none" d="m288 288-186.68-186.68 450.68 186.68-77.324-186.68h-373.35"/>
  <path id="path2961" style="stroke:#ffffff;stroke-width:3.2;fill:none" d="m288 288h-264l450.68-186.68-186.68-77.32-264 264"/>
  <path id="path2963" style="stroke:#ffffff;stroke-width:3.2;fill:none" d="m288 288-186.68 186.68 186.68-450.68-186.68 77.32v373.35"/>
  <path id="path2965" style="stroke:#ffffff;stroke-width:3.2;fill:none" d="m288 288-1e-13 264l-186.68-450.68-77.32 186.68 264 264"/>
  <path id="path2967" style="stroke:#ffffff;stroke-width:3.2;fill:none" d="m288 288 186.68 186.68-450.68-186.68l77.324 186.68 373.35-6e-14"/>
  <path id="path2969" style="stroke:#ffffff;stroke-width:3.2;fill:none" d="m288 288 264-3e-13 -450.68 186.68 186.68 77.324 264-264"/>
  <path id="path2971" style="stroke:#ffffff;stroke-width:3.2;fill:none" d="m288 288 186.68-186.68-186.68 450.68 186.68-77.324 3e-13 -373.35"/>
  <metadata>
    <rdf:RDF>
      <cc:Work>
        <dc:format>image/svg+xml</dc:format>
        <dc:type rdf:resource="http://purl.org/dc/dcmitype/StillImage"/>
        <cc:license rdf:resource="http://creativecommons.org/licenses/publicdomain/"/>
        <dc:publisher>
          <cc:Agent rdf:about="http://openclipart.org/">
            <dc:title>Openclipart</dc:title>
          </cc:Agent>
        </dc:publisher>
        <dc:title>octagon connections</dc:title>
        <dc:date>2011-04-21T15:41:32</dc:date>
        <dc:description>octagon connections</dc:description>
        <dc:source>https://openclipart.org/detail/133465/octagon-connections-by-10binary</dc:source>
        <dc:creator>
          <cc:Agent>
            <dc:title>10binary</dc:title>
          </cc:Agent>
        </dc:creator>
        <dc:subject>
          <rdf:Bag>
            <rdf:li>8</rdf:li>
            <rdf:li>connections</rdf:li>
            <rdf:li>lines</rdf:li>
            <rdf:li>octagon</rdf:li>
            <rdf:li>polygon</rdf:li>
            <rdf:li>sided</rdf:li>
          </rdf:Bag>
        </dc:subject>
      </cc:Work>
      <cc:License rdf:about="http://creativecommons.org/licenses/publicdomain/">
        <cc:permits rdf:resource="http://creativecommons.org/ns#Reproduction"/>
        <cc:permits rdf:resource="http://creativecommons.org/ns#Distribution"/>
        <cc:permits rdf:resource="http://creativecommons.org/ns#DerivativeWorks"/>
      </cc:License>
    </rdf:RDF>
  </metadata>
</svg>
