<?xml version="1.0" encoding="UTF-8"?><svg xmlns="http://www.w3.org/2000/svg" viewBox="0 0 450 450">
    <defs>
        <style>
            .c {
                fill: none;
                stroke: #fff;
                stroke-miterlimit: 10;
                stroke-width: 2.74px;
            }
        </style>
    </defs>
    <g id="a" />
    <g id="b">
        <g>
            <circle class="c" cx="225" cy="225" r="225" transform="translate(-93.2 225) rotate(-45)" />
            <circle class="c" cx="225" cy="225" r="77.73" transform="translate(-22.06 425.53) rotate(-84.06)" />
            <circle class="c" cx="224.66" cy="224.97" r="96.42" />
            <g>
                <line class="c" x1="224.66" y1=".1" x2="146.41" y2="280.27" />
                <line class="c" x1="11" y1="155.82" x2="253.28" y2="316.82" />
                <line class="c" x1="93.08" y1="407.15" x2="321.07" y2="226.48" />
                <line class="c" x1="357.47" y1="406.75" x2="256.09" y2="134.09" />
                <line class="c" x1="438.79" y1="155.18" x2="148.15" y2="167.34" />
                <polygon class="c"
                    points="92.59 406.47 10.97 155.26 224.66 0 438.36 155.26 356.73 406.47 92.59 406.47" />
            </g>
            <g>
                <line class="c" x1="130.08" y1="70.67" x2="194.36" y2="296.61" />
                <line class="c" x1="48.62" y1="268.02" x2="283.37" y2="276.7" />
                <line class="c" x1="211.14" y1="406.47" x2="291.94" y2="185.9" />
                <line class="c" x1="393.04" y1="294.69" x2="208.23" y2="149.68" />
                <line class="c" x1="342.94" y1="87.15" x2="147.92" y2="218.11" />
                <polygon class="c"
                    points="210.52 406.21 48.36 267.64 130.04 70.6 342.68 87.39 392.42 294.81 210.52 406.21" />
            </g>
        </g>
    </g>
</svg>