<?xml version="1.0" standalone="no"?>
<!DOCTYPE svg PUBLIC "-//W3C//DTD SVG 20010904//EN"
 "http://www.w3.org/TR/2001/REC-SVG-20010904/DTD/svg10.dtd">
<svg version="1.0" xmlns="http://www.w3.org/2000/svg"
 width="2000.000000pt" height="2000.000000pt" viewBox="0 0 2000.000000 2000.000000"
 preserveAspectRatio="xMidYMid meet">
<metadata>
Created by potrace 1.16, written by Peter Selinger 2001-2019
</metadata>
<g transform="translate(0.000000,2000.000000) scale(0.100000,-0.100000)"
fill="#000000" stroke="none">
<path d="M9337 17494 c-4 -4 -7 -40 -7 -80 l0 -73 -87 -3 -88 -3 -3 -87 -3
-87 -77 -3 -77 -3 0 -250 0 -250 77 -3 77 -3 3 -77 3 -77 88 -3 87 -3 0 -664
0 -664 -87 -3 -88 -3 -3 -77 -3 -77 -77 -3 -77 -3 -3 -77 -3 -77 -77 -3 -77
-3 -3 -87 -3 -87 -87 -3 -87 -3 -3 -77 -3 -77 -77 -3 -77 -3 -3 -77 -3 -77
-77 -3 -77 -3 -3 -167 -2 -167 -88 -3 -87 -3 -3 -167 -2 -167 -78 -3 -77 -3
-3 -247 -2 -247 -78 -3 -77 -3 -3 -497 -2 -497 -88 -3 -87 -3 0 -1250 0 -1250
82 -1 c45 -1 85 -4 90 -7 4 -3 7 -149 5 -326 l-3 -320 -87 -3 -87 -3 0 -250 0
-250 87 -3 88 -3 2 -247 3 -247 77 -3 78 -3 2 -247 3 -247 78 -5 78 -5 2 -245
2 -245 87 -3 88 -3 2 -167 3 -167 77 -3 77 -3 3 -77 3 -77 77 -3 77 -3 3 -77
3 -77 83 -1 c46 -1 85 -4 88 -7 3 -3 6 -79 7 -169 l2 -163 77 -3 78 -3 2 -167
3 -167 77 -3 77 -3 3 -77 3 -77 87 -3 87 -3 3 -77 3 -77 77 -3 77 -3 3 -87 3
-87 77 -3 77 -3 3 -77 3 -77 87 -3 87 -3 3 -77 3 -77 77 -3 77 -3 3 -87 3 -87
77 -3 77 -3 3 -77 3 -77 167 -3 167 -2 3 -78 3 -77 167 -3 167 -2 3 -88 3 -87
157 -3 157 -3 3 -77 3 -77 247 -3 247 -2 3 -78 3 -77 417 -3 417 -2 3 -88 3
-87 330 0 330 0 3 87 3 88 247 2 247 3 3 77 3 77 87 3 87 3 3 77 3 77 77 3 77
3 0 250 0 250 -77 3 -77 3 -3 87 -3 87 -87 3 -87 3 -3 77 -3 77 -77 3 -77 3
-3 77 -3 77 -77 3 -77 3 -3 87 -3 87 -87 3 -87 3 -3 77 -3 77 -77 3 -77 3 -3
77 -3 77 -77 3 -77 3 -3 87 -3 87 -87 3 -87 3 -3 77 -3 77 -77 3 -77 3 -3 77
-3 77 -77 3 -77 3 -3 87 -3 87 -87 3 -87 3 -3 157 -3 157 -77 3 -78 3 -2 167
-3 167 -77 3 -78 3 -2 167 -3 167 -87 3 -87 3 -3 157 -3 157 -77 3 -78 3 -2
247 -3 247 -77 3 -78 3 -2 247 -3 247 -87 3 -88 3 -2 417 -3 417 -77 3 -78 3
-2 1827 -3 1827 -77 3 -78 3 -2 247 -3 247 -87 3 -88 3 -2 247 -3 247 -77 3
-78 3 -2 167 -3 167 -77 3 -78 3 -2 167 -3 167 -87 3 -87 3 -3 77 -3 77 -77 3
-77 3 -3 77 -3 77 -77 3 -78 3 0 664 0 664 78 3 77 3 0 420 0 420 -77 3 -77 3
-3 77 -3 77 -246 3 c-135 1 -248 -1 -252 -4z m492 -583 l3 -411 -91 0 -91 0 0
-675 0 -675 90 0 90 0 0 -80 0 -80 80 0 80 0 0 -80 0 -80 80 0 80 0 0 -170 0
-170 90 0 90 0 0 -170 0 -170 80 0 80 0 0 -250 0 -250 80 0 80 0 0 -250 0
-250 90 0 90 0 0 -1245 0 -1245 -85 0 -84 0 -3 88 -3 87 -70 0 c-38 0 -74 -3
-80 -7 -6 -3 -9 -40 -7 -87 l4 -81 43 0 c23 0 56 -3 74 -6 l31 -6 2 -157 3
-156 88 -3 87 -3 0 -419 0 -420 80 0 80 0 0 -420 0 -420 80 0 80 0 0 -250 0
-250 90 0 90 0 0 -250 0 -250 80 0 80 0 0 -160 0 -160 80 0 80 0 0 -170 0
-170 90 0 90 0 0 -170 0 -170 80 0 80 0 0 -160 0 -160 80 0 80 0 0 -90 0 -90
90 0 90 0 0 -80 0 -80 80 0 80 0 0 -80 0 -80 80 0 80 0 0 -90 0 -90 90 0 90 0
0 -80 0 -80 80 0 80 0 0 -80 0 -80 80 0 80 0 0 -90 0 -90 90 0 90 0 0 -80 0
-80 80 0 80 0 0 -80 0 -80 80 0 80 0 0 -90 0 -90 90 0 90 0 0 -155 0 -155 -90
0 -90 0 0 75 c0 73 -1 75 -24 75 -25 0 -44 -15 -27 -22 5 -1 11 -30 12 -63 l3
-60 -221 -10 c-122 -6 -225 -13 -229 -18 -4 -4 0 -7 9 -7 10 0 17 -7 17 -15 0
-8 -4 -15 -10 -15 -5 0 -10 -7 -10 -15 0 -24 -128 -148 -145 -141 -8 3 -15 1
-15 -5 0 -18 -30 -41 -45 -35 -8 3 -21 -2 -30 -10 -9 -9 -22 -13 -30 -10 -9 3
-15 -1 -15 -10 0 -11 -8 -15 -29 -12 -16 1 -35 -3 -44 -10 -8 -7 -32 -12 -54
-11 -21 2 -48 -3 -60 -9 -12 -7 -58 -12 -102 -12 l-81 0 -2 -62 -2 -63 -3 61
c-3 54 -7 63 -26 68 -12 3 -186 7 -387 8 l-365 3 275 5 c187 3 267 8 250 14
-14 5 -37 9 -52 7 -14 -1 -46 3 -70 10 -23 7 -53 11 -65 10 -12 -1 -32 3 -45
10 -13 7 -36 12 -51 11 -15 -1 -38 3 -50 10 -12 6 -36 11 -53 10 -17 -2 -37 4
-43 12 -7 8 -18 13 -26 10 -7 -3 -26 1 -42 9 -15 8 -34 12 -41 10 -7 -3 -21 2
-30 10 -14 12 -58 15 -232 16 -118 2 -217 4 -219 7 -2 2 69 4 159 4 138 0 161
2 151 14 -7 8 -20 12 -30 9 -9 -2 -23 2 -30 10 -6 8 -21 13 -31 10 -11 -3 -20
0 -20 6 0 6 -7 11 -16 11 -8 0 -22 7 -30 15 -8 8 -21 12 -30 8 -8 -3 -23 2
-33 11 -10 9 -21 13 -24 9 -7 -6 -56 14 -67 28 -3 3 -17 9 -32 13 l-28 6 -2
-67 -2 -68 -5 75 -6 75 -157 3 -157 3 -3 77 -3 77 -135 5 -135 6 115 5 c77 3
108 8 93 13 -13 5 -23 12 -23 17 0 5 -9 9 -20 9 -11 0 -25 9 -32 20 -7 11 -18
20 -24 20 -20 0 -75 32 -81 46 -3 8 -14 14 -24 14 -10 0 -24 9 -31 20 -7 11
-20 20 -30 20 -9 0 -28 14 -41 30 -14 17 -32 30 -40 30 -9 0 -27 14 -40 30
-14 17 -32 30 -40 30 -8 0 -30 18 -50 40 -19 22 -41 40 -49 40 -8 0 -39 27
-69 60 -30 32 -61 59 -70 60 -8 0 -54 40 -102 90 -48 49 -92 90 -98 90 -6 0
-69 59 -141 130 -71 72 -136 130 -144 130 -8 0 -24 16 -35 35 -12 19 -24 33
-28 31 -4 -3 -51 40 -106 95 -54 54 -103 99 -109 99 -6 0 -47 36 -91 80 l-80
80 -5 -73 c-5 -68 -5 -65 -13 57 -4 72 -9 131 -10 132 -1 1 -36 4 -77 7 l-75
4 -3 162 -4 161 81 0 81 0 0 80 0 80 90 0 90 0 0 80 0 80 80 0 80 0 -2 253 -3
252 -167 3 -167 2 -3 88 -3 87 -157 3 -157 3 -3 157 -3 157 -87 3 -88 3 -2
167 -3 167 -77 3 -78 3 0 249 0 250 -80 0 -80 0 0 165 0 165 80 0 80 0 0 410
0 410 80 0 80 0 0 255 0 255 -85 0 -85 0 0 -250 0 -249 -77 -3 -78 -3 -3 -407
-2 -407 -88 -3 -87 -3 -3 -172 -2 -173 90 0 90 0 0 -250 0 -250 80 0 80 0 2
-167 3 -168 77 -3 77 -3 3 -157 3 -157 87 -3 87 -3 3 -87 3 -87 157 -3 157 -3
3 -77 3 -77 88 -3 87 -3 0 -164 0 -164 -87 -3 -88 -3 -3 -77 -3 -78 -154 0
-155 0 -2 248 -3 247 -87 3 -87 3 -3 77 -3 77 -77 3 -78 3 0 89 0 90 -80 0
-80 0 0 160 0 160 -90 0 -90 0 0 170 0 170 -80 0 -80 0 0 250 0 250 -65 1
c-36 1 -70 2 -75 3 -6 1 -12 92 -16 244 l-6 242 81 0 81 0 0 420 0 420 80 0
80 0 0 165 0 165 -85 0 -85 0 0 -160 0 -160 -76 0 -77 0 5 1151 5 1150 73 5
c41 3 75 6 76 7 2 1 6 207 10 457 4 250 8 457 10 459 2 2 4 -96 4 -219 0 -186
2 -221 14 -211 7 6 11 22 8 36 -2 14 2 32 9 41 8 9 12 27 11 40 -2 13 2 33 9
46 7 13 12 37 11 54 -2 17 4 37 12 43 8 7 13 18 10 26 -3 7 1 26 9 42 8 15 12
34 10 41 -3 7 2 21 11 31 9 10 13 20 10 24 -4 3 -1 21 7 39 16 39 15 21 19
258 l4 195 6 -165 c4 -122 7 -157 14 -135 5 16 15 35 22 42 7 7 10 21 7 31 -2
10 2 24 11 31 8 7 12 19 9 27 -3 8 2 23 11 33 9 10 13 21 9 24 -6 6 34 95 48
107 3 3 8 14 11 25 3 11 9 28 13 38 6 15 0 17 -61 19 l-69 2 70 5 70 6 5 145
6 145 4 -125 c4 -106 7 -121 17 -100 6 14 12 21 13 15 0 -5 12 16 27 48 14 31
30 57 34 57 5 0 9 9 9 20 0 11 9 25 20 32 11 7 20 21 20 30 0 10 5 18 10 18 6
0 10 9 10 20 0 11 3 20 8 20 4 0 22 21 40 48 69 99 84 118 127 158 25 23 45
48 45 55 0 8 41 54 90 102 50 49 90 95 90 103 0 8 9 14 20 14 13 0 22 9 26 25
15 59 24 2 24 -151 l0 -164 -80 0 -80 0 0 -160 0 -160 -90 0 -90 0 2 -172 3
-173 90 0 90 0 3 167 2 167 78 3 77 3 3 157 3 157 77 3 77 3 3 167 2 167 88 3
87 3 3 83 3 82 -78 0 c-86 0 -127 14 -79 26 33 8 76 48 76 71 0 10 6 14 20 10
11 -3 20 -1 20 4 0 18 51 61 65 55 8 -3 15 -1 15 5 0 16 26 39 44 39 9 0 16 5
16 10 0 6 7 10 15 10 10 0 15 -11 16 -37 3 -72 17 65 18 175 l1 102 -65 0 -65
0 0 -67 c0 -86 -8 -78 -11 11 l-2 69 74 1 74 1 3 758 2 757 -57 1 c-62 0 -124
17 -70 18 22 1 27 6 27 26 0 14 5 25 10 25 6 0 10 8 10 18 0 10 9 24 20 32 11
8 20 20 20 28 0 18 25 42 44 42 9 0 16 6 17 13 0 10 2 10 6 0 2 -7 16 -13 29
-13 26 0 74 -40 74 -62 0 -9 -3 -9 -10 2 -5 8 -11 12 -14 10 -2 -3 4 -16 15
-29 10 -13 19 -19 20 -15 0 5 2 29 4 54 2 25 6 142 10 260 3 118 10 219 16
225 6 5 9 3 9 -8 0 -9 6 -17 14 -17 7 0 19 -6 26 -14 6 -8 18 -12 26 -9 8 3
26 -5 40 -17 l24 -23 0 51 0 52 -82 2 -83 2 85 5 c47 3 87 5 90 4 3 0 7 -186
9 -412z m-521 -1938 c-16 -2 -40 -2 -55 0 -16 2 -3 4 27 4 30 0 43 -2 28 -4z
m-131 -115 c-2 -13 -4 -5 -4 17 -1 22 1 32 4 23 2 -10 2 -28 0 -40z m-39 -45
c-10 -2 -26 -2 -35 0 -10 3 -2 5 17 5 19 0 27 -2 18 -5z m-121 -135 c-2 -13
-4 -5 -4 17 -1 22 1 32 4 23 2 -10 2 -28 0 -40z m133 -104 l0 -74 -74 0 c-41
0 -78 5 -81 10 -3 6 0 10 7 10 18 0 128 109 128 127 0 8 5 11 10 8 6 -3 10
-40 10 -81z m-172 59 c-10 -2 -28 -2 -40 0 -13 2 -5 4 17 4 22 1 32 -1 23 -4z
m-121 -115 c-2 -13 -4 -5 -4 17 -1 22 1 32 4 23 2 -10 2 -28 0 -40z m-34 -45
c-7 -2 -21 -2 -30 0 -10 3 -4 5 12 5 17 0 24 -2 18 -5z m-146 -125 c-3 -8 -6
-5 -6 6 -1 11 2 17 5 13 3 -3 4 -12 1 -19z m-160 -315 c-2 -27 -3 -5 -3 47 0
52 1 74 3 48 2 -27 2 -69 0 -95z m-44 -60 c-18 -2 -48 -2 -65 0 -18 2 -4 4 32
4 36 0 50 -2 33 -4z m-346 -840 c-20 -2 -52 -2 -70 0 -17 2 0 4 38 4 39 0 53
-2 32 -4z m363 -6058 l0 -75 -75 0 -75 0 0 75 0 75 75 0 75 0 0 -75z m160
-250 l0 -165 -75 0 -75 0 0 165 0 165 75 0 75 0 0 -165z m668 -1152 c-16 -2
-40 -2 -55 0 -16 2 -3 4 27 4 30 0 43 -2 28 -4z m39 -90 c-2 -16 -4 -3 -4 27
0 30 2 43 4 28 2 -16 2 -40 0 -55z m121 -70 c-16 -2 -40 -2 -55 0 -16 2 -3 4
27 4 30 0 43 -2 28 -4z m39 -90 c-2 -16 -4 -3 -4 27 0 30 2 43 4 28 2 -16 2
-40 0 -55z m121 -70 c-16 -2 -40 -2 -55 0 -16 2 -3 4 27 4 30 0 43 -2 28 -4z
m39 -75 c-2 -13 -4 -5 -4 17 -1 22 1 32 4 23 2 -10 2 -28 0 -40z m141 -105
c-10 -2 -28 -2 -40 0 -13 2 -5 4 17 4 22 1 32 -1 23 -4z m39 -75 c-2 -13 -4
-5 -4 17 -1 22 1 32 4 23 2 -10 2 -28 0 -40z m126 -85 c-7 -2 -21 -2 -30 0
-10 3 -4 5 12 5 17 0 24 -2 18 -5z m34 -60 c-3 -10 -5 -4 -5 12 0 17 2 24 5
18 2 -7 2 -21 0 -30z m130 -99 c-3 -3 -12 -4 -19 -1 -8 3 -5 6 6 6 11 1 17 -2
13 -5z m30 -46 c-3 -8 -6 -5 -6 6 -1 11 2 17 5 13 3 -3 4 -12 1 -19z m286
-135 c-24 -2 -62 -2 -85 0 -24 2 -5 4 42 4 47 0 66 -2 43 -4z m54 -95 c-2 -18
-4 -6 -4 27 0 33 2 48 4 33 2 -15 2 -42 0 -60z m1160 -515 c-2 -21 -4 -6 -4
32 0 39 2 55 4 38 2 -18 2 -50 0 -70z m1510 -49 c-3 -3 -12 -4 -19 -1 -8 3 -5
6 6 6 11 1 17 -2 13 -5z"/>
<path d="M9518 16833 c7 -3 16 -2 19 1 4 3 -2 6 -13 5 -11 0 -14 -3 -6 -6z"/>
<path d="M9485 16810 c4 -6 11 -8 16 -5 14 9 11 15 -7 15 -8 0 -12 -5 -9 -10z"/>
<path d="M9544 16811 c3 -5 15 -7 26 -4 28 7 25 13 -6 13 -14 0 -23 -4 -20 -9z"/>
<path d="M9450 16769 c0 -5 5 -7 10 -4 6 3 10 8 10 11 0 2 -4 4 -10 4 -5 0
-10 -5 -10 -11z"/>
<path d="M9430 16729 c0 -5 5 -7 10 -4 6 3 10 8 10 11 0 2 -4 4 -10 4 -5 0
-10 -5 -10 -11z"/>
<path d="M9632 16705 c0 -16 2 -22 5 -12 2 9 2 23 0 30 -3 6 -5 -1 -5 -18z"/>
<path d="M10062 13652 l-73 -3 3 -77 3 -77 77 -3 78 -3 2 -167 3 -167 84 -3
c46 -2 87 1 90 7 3 5 6 83 6 173 l0 163 -90 0 -90 0 -1 73 c-1 41 -5 77 -10
80 -5 4 -42 6 -82 4z"/>
<path d="M7860 11968 c0 -89 3 -158 7 -154 7 7 11 49 12 119 0 15 6 38 13 50
6 12 11 34 10 50 -1 15 4 40 12 56 18 33 13 41 -26 41 l-28 0 0 -162z"/>
<path d="M10157 10653 c-4 -3 -7 -39 -7 -79 0 -72 0 -72 -30 -79 -16 -4 -48
-5 -69 -4 -22 2 -43 0 -47 -3 -7 -8 -9 -133 -1 -145 3 -4 38 -8 79 -8 l73 0 3
76 3 77 164 7 165 7 0 73 0 72 -122 6 c-153 9 -203 9 -211 0z"/>
<path d="M9160 10575 l0 -75 85 0 85 0 0 75 0 75 -85 0 -85 0 0 -75z"/>
<path d="M9000 10325 l0 -165 75 0 75 0 0 165 0 165 -75 0 -75 0 0 -165z"/>
<path d="M7860 8539 c0 -11 4 -18 10 -14 5 3 7 12 3 20 -7 21 -13 19 -13 -6z"/>
<path d="M10499 8153 c-2 -11 3 -148 4 -150 1 -1 35 -5 75 -8 l72 -8 0 87 0
86 -75 0 c-41 0 -75 -3 -76 -7z"/>
<path d="M9660 7825 l0 -165 85 0 85 0 0 165 0 165 -85 0 -85 0 0 -165z"/>
<path d="M10340 7915 l0 -75 75 0 75 0 0 75 0 75 -75 0 -75 0 0 -75z"/>
<path d="M10568 7832 l-68 -3 0 -84 0 -83 71 -4 c39 -2 73 1 76 5 9 15 7 157
-3 165 -5 4 -39 6 -76 4z"/>
<path d="M9840 7495 l0 -155 75 0 75 0 0 155 0 155 -75 0 -75 0 0 -155z"/>
<path d="M10000 7165 l0 -165 75 0 75 0 0 165 0 165 -75 0 -75 0 0 -165z"/>
<path d="M11159 6993 c-3 -29 0 -145 4 -150 3 -2 40 -7 83 -9 43 -3 79 -6 80
-7 2 -1 5 -74 8 -161 3 -88 8 -162 11 -164 3 -3 20 -6 38 -7 17 0 49 -2 69 -3
l37 -2 3 -77 3 -78 77 -3 76 -3 4 76 c2 41 2 80 0 85 -2 6 -37 10 -78 10 l-74
0 -2 168 -3 167 -77 3 -77 3 -3 77 -3 77 -87 3 c-49 1 -88 -1 -89 -5z"/>
<path d="M10160 6915 l0 -75 165 0 165 0 0 75 0 75 -165 0 -165 0 0 -75z"/>
<path d="M10500 6745 l0 -85 75 0 75 0 0 85 0 85 -75 0 -75 0 0 -85z"/>
<path d="M11000 5995 l0 -155 75 0 75 0 0 155 0 155 -75 0 -75 0 0 -155z"/>
<path d="M9020 6030 c0 -5 5 -10 11 -10 5 0 7 5 4 10 -3 6 -8 10 -11 10 -2 0
-4 -4 -4 -10z"/>
<path d="M11160 5665 l0 -165 85 0 85 0 0 165 0 165 -85 0 -85 0 0 -165z"/>
<path d="M11338 5419 c-2 -39 -1 -73 1 -75 2 -2 73 -4 158 -4 l153 0 0 75 0
75 -154 0 -154 0 -4 -71z"/>
<path d="M10860 4420 l0 -60 120 0 c66 0 120 2 120 5 0 3 -18 13 -40 22 -22
10 -40 21 -40 25 0 5 -9 8 -20 8 -11 0 -20 5 -20 10 0 6 -7 10 -15 10 -8 0
-30 9 -50 20 -20 11 -40 20 -45 20 -6 0 -10 -27 -10 -60z"/>
</g>
</svg>
