<?xml version="1.0" standalone="no"?>
<!DOCTYPE svg PUBLIC "-//W3C//DTD SVG 20010904//EN"
 "http://www.w3.org/TR/2001/REC-SVG-20010904/DTD/svg10.dtd">
<svg version="1.0" xmlns="http://www.w3.org/2000/svg"
 width="2000.000000pt" height="2000.000000pt" viewBox="0 0 2000.000000 2000.000000"
 preserveAspectRatio="xMidYMid meet">
<metadata>
Created by potrace 1.16, written by Peter Selinger 2001-2019
</metadata>
<g transform="translate(0.000000,2000.000000) scale(0.100000,-0.100000)"
fill="#000000" stroke="none">
<path d="M9337 17494 c-4 -4 -7 -40 -7 -80 l0 -73 -87 -3 -88 -3 -3 -87 -3
-87 -77 -3 -77 -3 0 -250 0 -250 77 -3 77 -3 3 -77 3 -77 88 -3 87 -3 0 -664
0 -664 -87 -3 -88 -3 -3 -77 -3 -77 -77 -3 -77 -3 -3 -77 -3 -77 -77 -3 -77
-3 -3 -87 -3 -87 -87 -3 -87 -3 -3 -77 -3 -77 -77 -3 -77 -3 -3 -77 -3 -77
-77 -3 -77 -3 -3 -167 -2 -167 -88 -3 -87 -3 -3 -167 -2 -167 -78 -3 -77 -3
-3 -247 -2 -247 -78 -3 -77 -3 -3 -497 -2 -497 -88 -3 -87 -3 0 -1250 0 -1250
88 -5 c48 -3 87 -8 87 -12 0 -5 0 -150 0 -323 l0 -314 -87 -3 -88 -3 0 -250 0
-250 87 -3 88 -3 2 -247 3 -247 77 -3 78 -3 2 -247 3 -247 78 -5 78 -5 2 -245
2 -245 87 -3 88 -3 2 -167 3 -167 77 -3 77 -3 3 -77 3 -77 77 -3 77 -3 3 -77
3 -77 83 -1 c46 -1 85 -4 88 -7 3 -3 6 -79 7 -169 l2 -163 77 -3 78 -3 2 -167
3 -167 77 -3 77 -3 3 -77 3 -77 87 -3 87 -3 3 -77 3 -77 77 -3 77 -3 3 -87 3
-87 77 -3 77 -3 3 -77 3 -77 87 -3 87 -3 3 -77 3 -77 77 -3 77 -3 3 -87 3 -87
77 -3 77 -3 3 -77 3 -77 167 -3 167 -2 3 -78 3 -77 167 -3 167 -2 3 -88 3 -87
157 -3 157 -3 3 -77 3 -77 247 -3 247 -2 3 -78 3 -77 417 -3 417 -2 3 -88 3
-87 330 0 330 0 3 87 3 88 247 2 247 3 3 77 3 77 87 3 87 3 3 77 3 77 77 3 77
3 0 250 0 250 -77 3 -77 3 -3 87 -3 87 -87 3 -87 3 -3 77 -3 77 -77 3 -77 3
-3 77 -3 77 -77 3 -77 3 -3 87 -3 87 -87 3 -87 3 -3 77 -3 77 -77 3 -77 3 -3
77 -3 77 -77 3 -77 3 -3 87 -3 87 -87 3 -87 3 -3 77 -3 77 -77 3 -77 3 -3 77
-3 77 -77 3 -77 3 -3 87 -3 87 -87 3 -87 3 -3 157 -3 157 -77 3 -78 3 -2 167
-3 167 -77 3 -78 3 -2 167 -3 167 -87 3 -87 3 -3 157 -3 157 -77 3 -78 3 -2
247 -3 247 -77 3 -78 3 -2 247 -3 247 -87 3 -88 3 -2 417 -3 417 -77 3 -78 3
-2 1827 -3 1827 -77 3 -78 3 -2 247 -3 247 -87 3 -88 3 -2 247 -3 247 -77 3
-78 3 -2 167 -3 167 -77 3 -78 3 -2 167 -3 167 -87 3 -87 3 -3 77 -3 77 -77 3
-77 3 -3 77 -3 77 -77 3 -78 3 0 664 0 664 78 3 77 3 0 420 0 420 -77 3 -77 3
-3 77 -3 77 -246 3 c-135 1 -248 -1 -252 -4z m491 -590 l-3 -246 -85 -2 -85
-1 -1 -73 c-1 -40 -4 -75 -7 -79 -8 -7 -135 -8 -143 0 -4 3 -7 39 -8 79 l-1
73 -75 1 -75 1 -3 247 -2 246 245 0 245 0 -2 -246z m-176 -1656 l3 -93 87 -3
87 -3 3 -77 3 -77 78 -3 77 -3 0 -79 0 -80 80 0 80 0 0 -170 0 -170 90 0 90 0
0 -170 0 -170 80 0 80 0 0 -250 0 -250 80 0 80 0 0 -250 0 -250 90 0 90 0 0
-1245 0 -1245 -85 0 -84 0 -3 88 -3 87 -80 0 -80 0 -3 -87 -3 -88 -167 -2
-167 -3 -3 -77 -3 -77 -77 -3 -77 -3 -3 -83 -3 -83 83 3 83 3 3 77 3 78 167 2
167 3 3 78 3 77 74 0 74 0 3 -157 3 -158 88 -3 87 -3 0 -419 0 -420 80 0 80 0
0 -420 0 -420 80 0 80 0 0 -250 0 -250 90 0 90 0 0 -250 0 -250 80 0 80 0 0
-160 0 -160 80 0 80 0 2 -167 3 -168 87 -3 88 -3 2 -167 3 -167 78 -3 77 -3 0
-159 0 -160 80 0 80 0 0 -90 0 -90 90 0 90 0 0 -80 0 -80 80 0 80 0 0 -80 0
-80 80 0 80 0 0 -90 0 -90 90 0 90 0 0 -80 0 -80 80 0 80 0 0 -80 0 -80 80 0
80 0 0 -90 0 -90 90 0 90 0 0 -80 0 -80 80 0 80 0 0 -80 0 -80 80 0 80 0 0
-90 0 -90 91 0 92 0 -6 -242 -6 -243 -160 -3 -160 -4 -3 88 -3 88 -80 0 -80 1
-3 76 -3 76 -117 5 c-64 3 -330 3 -589 0 l-473 -5 0 82 0 83 -127 -3 c-130 -3
-232 -15 -150 -18 21 0 36 -5 32 -10 -3 -5 -1 -12 5 -16 5 -3 10 1 10 9 0 9 5
16 11 16 14 0 39 -26 39 -40 0 -7 14 -25 30 -40 27 -25 30 -34 30 -89 0 -60 0
-61 -28 -61 -16 0 -34 -8 -42 -20 -13 -18 -26 -20 -127 -20 -69 0 -113 4 -113
10 0 6 -27 10 -60 10 -33 0 -60 4 -60 10 0 6 -18 10 -40 10 -25 0 -40 5 -40
13 0 8 -15 11 -50 9 -32 -3 -50 0 -50 7 0 6 -18 11 -40 11 -22 0 -40 5 -40 10
0 6 -9 10 -20 10 -11 0 -20 6 -20 13 0 9 -12 11 -40 9 -25 -3 -40 0 -40 7 0 6
-9 11 -20 11 -11 0 -20 6 -20 13 0 9 -10 12 -30 9 -22 -3 -30 0 -30 11 0 10
-6 13 -20 10 -13 -4 -20 0 -20 9 0 11 -7 14 -24 11 -16 -3 -33 2 -47 16 -13
12 -27 21 -32 21 -4 0 -15 7 -23 15 -8 8 -21 12 -29 9 -8 -3 -24 4 -36 15 -13
12 -29 21 -36 21 -7 0 -13 5 -13 10 0 6 -6 10 -13 10 -23 0 -67 25 -67 37 0 7
-7 10 -14 7 -8 -3 -25 4 -37 15 -13 12 -29 21 -36 21 -7 0 -13 7 -13 15 0 9
-6 12 -15 9 -15 -6 -45 17 -45 35 0 6 -7 8 -14 5 -8 -3 -25 4 -37 15 -13 12
-27 21 -32 21 -6 0 -23 13 -39 30 -15 17 -35 30 -43 30 -8 0 -15 4 -15 8 0 5
-12 15 -27 23 -16 8 -45 31 -66 51 -21 21 -43 38 -49 38 -7 0 -33 23 -60 50
-26 28 -53 50 -59 50 -6 0 -46 36 -90 80 -44 44 -85 80 -90 80 -6 0 -70 59
-142 130 -72 72 -135 130 -140 130 -6 0 -73 63 -149 140 -76 77 -144 140 -151
140 -7 0 -93 82 -192 181 l-180 180 -6 -68 c-5 -62 -6 -64 -7 -18 -1 28 -5 87
-9 133 l-6 82 82 0 81 0 0 80 0 80 90 0 90 0 0 80 0 80 80 0 80 0 -2 253 -3
252 -167 3 -168 2 0 90 0 90 -160 0 -160 0 0 160 0 160 -90 0 -90 0 0 170 0
170 -80 0 -80 0 0 250 0 250 -80 0 -80 0 0 165 0 165 80 0 80 0 0 410 0 410
80 0 80 0 -2 253 -3 252 -82 3 -83 3 0 -250 0 -250 -77 -3 -78 -3 -3 -407 -2
-407 -88 -3 -87 -3 0 -170 0 -170 88 -3 87 -3 0 -249 0 -250 80 0 80 0 2 -167
3 -168 77 -3 77 -3 3 -157 3 -157 87 -3 87 -3 3 -87 3 -87 157 -3 157 -3 3
-77 3 -77 88 -3 87 -3 0 -164 0 -164 -87 -3 -88 -3 -3 -77 -3 -78 -154 0 -155
0 -2 248 -3 247 -87 3 -87 3 -3 77 -3 77 -77 3 -78 3 0 89 0 90 -80 0 -80 0 0
160 0 159 -87 3 -88 3 -3 165 c-2 91 -5 166 -6 167 -1 1 -35 6 -76 11 -54 7
-64 10 -34 11 34 1 43 5 47 23 4 12 1 28 -4 35 -6 7 -9 18 -6 25 2 7 -2 25 -9
39 -7 14 -13 35 -14 45 -1 39 -7 79 -13 94 -3 8 -6 22 -6 30 -1 21 -9 64 -12
70 -2 3 -6 -76 -9 -175 l-6 -180 -2 231 c-1 171 -5 234 -15 242 -6 6 -28 12
-47 15 l-35 4 39 1 39 2 -6 137 c-4 75 -7 176 -7 225 l0 88 -47 1 -48 2 52 6
c28 4 54 9 58 12 3 4 6 194 5 423 l0 416 80 0 80 0 0 165 0 165 -85 0 -85 0 0
-161 0 -161 -70 5 -71 4 1 623 c0 343 2 626 5 628 3 3 5 -274 5 -616 0 -524 2
-622 14 -622 16 0 26 52 14 75 -9 16 -6 223 5 305 3 25 6 75 6 112 0 37 5 78
12 90 7 13 11 45 10 71 -1 28 3 55 10 64 7 8 12 35 10 60 -2 29 2 49 10 54 8
5 12 26 10 59 -1 30 3 58 10 67 8 8 12 37 10 69 -3 63 11 83 61 85 32 2 32 2
-7 8 l-40 6 -3 86 c-3 99 -4 98 96 97 l53 -1 0 248 c-1 137 -3 251 -6 253 -3
3 -6 -53 -6 -124 -1 -83 -4 -117 -9 -94 l-7 35 -2 -43 c0 -27 3 -41 9 -37 6 4
10 -35 10 -109 l0 -116 -45 0 c-41 0 -45 2 -45 25 0 14 5 25 10 25 6 0 10 23
10 50 0 28 5 50 10 50 6 0 10 47 10 120 0 73 4 120 10 120 6 0 10 40 10 100 0
60 4 100 10 100 6 0 10 23 10 50 0 28 5 50 10 50 6 0 10 23 10 50 0 28 5 50
10 50 6 0 10 27 10 60 0 33 4 60 10 60 6 0 10 18 10 40 0 22 5 40 10 40 6 0
10 23 10 50 0 28 5 50 10 50 6 0 10 9 10 20 0 11 5 20 10 20 6 0 10 22 10 48
0 36 5 51 20 62 18 13 20 26 20 122 0 65 4 108 10 108 6 0 10 14 10 30 0 17 5
30 10 30 6 0 10 14 10 30 0 17 5 30 10 30 6 0 10 29 10 68 0 56 3 70 20 82 11
8 20 21 20 30 0 9 9 22 20 30 11 8 20 22 20 32 0 10 5 18 10 18 6 0 10 18 10
40 0 22 5 40 10 40 6 0 10 9 10 20 0 11 5 20 10 20 6 0 10 13 10 28 0 16 8 34
20 42 11 8 20 21 20 30 0 9 9 22 20 30 13 9 20 26 20 48 0 18 7 40 15 48 8 9
15 11 15 5 0 -6 5 -11 11 -11 19 0 39 28 40 57 2 23 2 24 6 6 4 -23 33 -33 33
-12 0 6 7 4 15 -5 8 -8 15 -21 15 -29 0 -9 6 -18 13 -20 6 -3 -8 -6 -33 -8
l-45 -2 50 -7 c28 -5 69 -9 93 -9 l43 -1 -2 70 c-1 39 1 73 4 77 4 3 7 82 7
174 l0 168 78 3 77 3 3 157 3 157 77 3 77 3 3 168 2 167 90 0 90 0 0 85 0 85
-90 0 -90 0 0 84 0 84 81 1 c45 1 86 4 91 7 5 3 9 36 8 72 -1 37 -1 106 -1
154 l1 87 78 3 77 3 3 93 3 92 74 0 74 0 3 -92z m-1015 -1710 c-2 -29 -3 -8
-3 47 0 55 1 79 3 53 2 -26 2 -71 0 -100z m136 -65 c-24 -2 -62 -2 -85 0 -24
2 -5 4 42 4 47 0 66 -2 43 -4z m-756 -1275 c-2 -24 -4 -5 -4 42 0 47 2 66 4
43 2 -24 2 -62 0 -85z m473 -5123 l0 -75 -71 4 -71 5 0 65 c1 36 1 68 1 71 1
3 33 5 71 5 l70 0 0 -75z m160 -249 l0 -164 -67 5 c-82 7 -95 13 -25 13 l50 0
-21 38 c-12 21 -32 54 -44 73 l-23 34 -2 -70 -1 -70 -8 90 c-4 50 -7 118 -8
153 l-1 62 75 0 75 0 0 -164z m488 -813 c-16 -2 -40 -2 -55 0 -16 2 -3 4 27 4
30 0 43 -2 28 -4z m39 -90 c-2 -16 -4 -3 -4 27 0 30 2 43 4 28 2 -16 2 -40 0
-55z m2890 -1475 c-3 -8 -6 -5 -6 6 -1 11 2 17 5 13 3 -3 4 -12 1 -19z"/>
<path d="M9994 13647 c-3 -8 -4 -45 -2 -83 l3 -69 77 -3 78 -3 2 -167 3 -167
90 0 90 0 0 170 0 170 -87 3 -87 3 -3 77 -3 77 -78 3 c-59 2 -79 0 -83 -11z"/>
<path d="M8631 13023 c-1 -208 -5 -323 -11 -323 -6 0 -10 -30 -10 -70 0 -40
-4 -70 -10 -70 -5 0 -10 -9 -10 -21 0 -16 -6 -20 -27 -19 -41 3 -67 1 -61 -5
2 -3 36 -7 75 -10 l71 -5 -5 412 c-2 227 -6 418 -8 423 -2 6 -4 -135 -4 -312z"/>
<path d="M8578 13093 c7 -3 16 -2 19 1 4 3 -2 6 -13 5 -11 0 -14 -3 -6 -6z"/>
<path d="M8550 13069 c0 -5 5 -7 10 -4 6 3 10 8 10 11 0 2 -4 4 -10 4 -5 0
-10 -5 -10 -11z"/>
<path d="M8614 12965 c0 -66 1 -92 3 -57 2 34 2 88 0 120 -2 31 -3 3 -3 -63z"/>
<path d="M8510 13056 c0 -2 7 -6 15 -10 8 -3 15 -1 15 4 0 6 -7 10 -15 10 -8
0 -15 -2 -15 -4z"/>
<path d="M8490 13023 c0 -12 -6 -23 -12 -26 -7 -2 -10 -7 -7 -11 12 -12 38 29
29 44 -8 12 -10 11 -10 -7z"/>
<path d="M8450 12939 c0 -22 4 -38 8 -35 8 5 4 76 -4 76 -2 0 -4 -18 -4 -41z"/>
<path d="M8430 12879 c0 -11 4 -18 10 -14 5 3 7 12 3 20 -7 21 -13 19 -13 -6z"/>
<path d="M8410 12819 c0 -22 4 -38 8 -35 8 5 4 76 -4 76 -2 0 -4 -18 -4 -41z"/>
<path d="M8586 12842 c-2 -4 -1 -14 5 -22 7 -12 9 -10 9 8 0 23 -5 28 -14 14z"/>
<path d="M8552 12667 l2 -142 3 130 c2 76 8 132 14 136 7 4 5 9 -5 12 -14 6
-16 -10 -14 -136z"/>
<path d="M8383 12765 c-10 -10 -9 -14 2 -19 17 -6 26 5 17 21 -5 8 -11 7 -19
-2z"/>
<path d="M8350 12723 c0 -12 -6 -23 -12 -26 -7 -2 -10 -7 -7 -11 12 -12 38 29
29 44 -8 12 -10 11 -10 -7z"/>
<path d="M8310 12580 c0 -46 3 -80 7 -77 7 7 4 149 -3 156 -2 2 -4 -33 -4 -79z"/>
<path d="M8470 12384 c0 -60 0 -243 0 -406 l1 -298 -26 0 c-22 0 -25 4 -25 35
0 19 5 35 10 35 6 0 10 5 10 12 0 6 -7 4 -18 -5 -13 -12 -17 -26 -14 -47 l4
-30 -133 0 c-73 0 -130 -2 -128 -4 3 -3 78 -6 167 -7 l163 -2 -1 408 c0 225
-2 410 -5 413 -3 3 -5 -44 -5 -104z"/>
<path d="M8270 12409 c0 -5 5 -7 10 -4 6 3 10 8 10 11 0 2 -4 4 -10 4 -5 0
-10 -5 -10 -11z"/>
<path d="M8252 12253 c-1 -47 -6 -73 -14 -76 -7 -2 -10 -7 -7 -11 3 -3 12 2
20 11 10 13 13 35 8 83 l-6 65 -1 -72z"/>
<path d="M8210 12129 c0 -16 4 -28 9 -25 8 5 3 56 -5 56 -2 0 -4 -14 -4 -31z"/>
<path d="M8190 12064 c0 -14 4 -23 9 -20 5 3 7 15 4 26 -7 28 -13 25 -13 -6z"/>
<path d="M8170 11959 c0 -11 4 -18 10 -14 5 3 7 12 3 20 -7 21 -13 19 -13 -6z"/>
<path d="M8150 11849 c0 -16 4 -28 9 -25 8 5 3 56 -5 56 -2 0 -4 -14 -4 -31z"/>
<path d="M8448 11863 c-2 -5 -1 -28 3 -53 l6 -45 1 53 c2 48 -2 63 -10 45z"/>
<path d="M8133 11730 c0 -30 2 -43 4 -27 2 15 2 39 0 55 -2 15 -4 2 -4 -28z"/>
<path d="M7990 10869 c0 -5 5 -7 10 -4 6 3 10 8 10 11 0 2 -4 4 -10 4 -5 0
-10 -5 -10 -11z"/>
<path d="M9157 10654 c-4 -4 -7 -40 -7 -80 l0 -73 -77 -3 -78 -3 0 -170 0
-170 80 0 80 0 3 167 2 167 88 3 87 3 0 80 0 80 -85 3 c-47 1 -89 0 -93 -4z"/>
<path d="M8028 8473 c7 -3 16 -2 19 1 4 3 -2 6 -13 5 -11 0 -14 -3 -6 -6z"/>
<path d="M10497 8154 c-4 -4 -7 -40 -7 -80 l0 -73 -77 -3 -78 -3 0 -80 0 -80
77 -3 77 -3 3 -87 3 -87 77 -3 c91 -3 91 -3 86 113 l-3 70 -80 0 -80 0 0 79 0
80 80 0 80 1 0 80 0 80 -75 3 c-42 1 -79 0 -83 -4z"/>
<path d="M9657 7993 c-2 -4 -2 -81 1 -170 l4 -163 84 0 83 0 6 33 c3 17 5 93
3 167 l-3 135 -87 3 c-47 1 -88 -1 -91 -5z"/>
<path d="M9858 7653 c-16 -4 -18 -20 -18 -159 l0 -154 74 0 74 0 7 113 c4 61
5 132 3 157 l-3 45 -60 2 c-33 0 -68 -1 -77 -4z"/>
<path d="M10033 7333 l-33 -4 0 -165 0 -164 73 0 74 0 7 161 c3 88 4 165 0
170 -5 9 -58 10 -121 2z"/>
<path d="M10213 6993 l-53 -4 0 -75 0 -74 58 0 c33 0 107 -3 165 -6 l106 -7 3
-86 3 -86 80 0 80 0 0 90 0 90 -77 3 -77 3 -3 77 -3 77 -115 1 c-63 0 -139 -1
-167 -3z"/>
<path d="M11162 6992 c-9 -6 -12 -30 -10 -83 l3 -74 87 -3 88 -3 2 -167 3
-167 78 -3 77 -3 0 -73 0 -74 76 -7 c45 -4 80 -3 86 3 5 5 8 42 6 83 l-3 74
-79 1 -78 0 -2 170 -1 169 -73 1 c-40 1 -75 4 -79 7 -3 4 -6 39 -7 79 l-1 73
-80 3 c-44 1 -86 -2 -93 -6z"/>
<path d="M10995 6151 c-11 -19 -3 -300 9 -310 6 -4 40 -9 76 -10 35 -1 65 -3
67 -5 2 -1 6 -78 10 -169 l6 -167 84 0 83 0 0 -74 c0 -50 4 -75 13 -78 6 -2
80 -3 162 -3 l150 0 0 80 0 80 -157 3 -158 3 -2 167 -3 167 -87 3 -87 3 -3
157 -3 157 -77 3 c-45 2 -79 -1 -83 -7z"/>
<path d="M11715 4820 c-56 -6 -57 -7 -16 -8 33 -2 53 -9 75 -29 l31 -28 -24
28 c-14 15 -19 27 -12 27 21 0 43 -28 41 -53 -3 -36 0 -101 4 -96 2 2 7 41 10
87 l7 82 -28 -2 c-15 -1 -55 -4 -88 -8z"/>
<path d="M13090 4640 l-45 -7 53 -1 c33 -1 51 2 47 8 -3 6 -7 9 -8 8 -1 0 -22
-4 -47 -8z"/>
<path d="M11929 4578 c-4 -20 -1 -32 12 -44 11 -10 19 -12 19 -6 0 7 -4 12 -9
12 -6 0 -11 15 -13 33 -3 32 -3 32 -9 5z"/>
<path d="M11971 4504 c0 -11 3 -14 6 -6 3 7 2 16 -1 19 -3 4 -6 -2 -5 -13z"/>
<path d="M11946 4482 c-2 -4 -1 -14 5 -22 7 -12 9 -10 9 8 0 23 -5 28 -14 14z"/>
<path d="M11915 4430 c-10 -11 -15 -20 -11 -20 11 0 39 30 34 36 -3 2 -13 -5
-23 -16z"/>
<path d="M11744 4398 c-3 -4 23 -7 58 -7 66 1 62 6 -10 11 -24 2 -46 0 -48 -4z"/>
<path d="M11878 4393 c7 -3 16 -2 19 1 4 3 -2 6 -13 5 -11 0 -14 -3 -6 -6z"/>
<path d="M13755 4320 l-40 -7 39 -2 c38 -1 38 -2 32 -33 -15 -86 -15 -98 5
-98 17 0 19 8 19 75 0 41 -3 74 -7 74 -5 -1 -26 -5 -48 -9z"/>
<path d="M8360 7072 c0 -51 1 -52 30 -52 l30 0 -27 48 c-14 26 -27 49 -29 51
-2 2 -4 -19 -4 -47z"/>
</g>
</svg>
