<?xml version="1.0" standalone="no"?>
<!DOCTYPE svg PUBLIC "-//W3C//DTD SVG 20010904//EN"
 "http://www.w3.org/TR/2001/REC-SVG-20010904/DTD/svg10.dtd">
<svg version="1.0" xmlns="http://www.w3.org/2000/svg"
 width="2000.000000pt" height="2000.000000pt" viewBox="0 0 2000.000000 2000.000000"
 preserveAspectRatio="xMidYMid meet">
<metadata>
Created by potrace 1.16, written by Peter Selinger 2001-2019
</metadata>
<g transform="translate(0.000000,2000.000000) scale(0.100000,-0.100000)"
fill="#000000" stroke="none">
<path d="M9337 17494 c-4 -4 -7 -40 -7 -80 l0 -73 -87 -3 -88 -3 -3 -87 -3
-87 -77 -3 -77 -3 0 -250 0 -250 77 -3 77 -3 3 -77 3 -77 88 -3 87 -3 2 -574
c2 -316 3 -617 3 -667 l0 -93 -89 -1 -90 0 0 -80 -1 -79 -80 0 -80 0 0 -80 0
-80 -80 0 -80 0 0 -90 0 -90 -90 0 -90 0 0 -80 0 -80 -80 0 -80 0 0 -80 0 -80
-80 0 -80 0 0 -170 0 -170 -90 0 -90 0 0 -170 0 -170 -80 0 -80 0 0 -250 0
-250 -80 0 -80 0 0 -500 0 -500 -90 0 -89 0 2 -1245 c2 -685 5 -1246 7 -1248
2 -3 41 -5 87 -6 l83 -1 0 -330 0 -330 -90 0 -90 0 0 -250 0 -250 90 0 90 0 0
-249 0 -250 80 0 80 -1 1 -249 1 -250 79 0 79 -1 0 -250 0 -250 90 0 90 0 0
-170 0 -170 80 0 80 0 1 -73 c1 -40 4 -75 7 -79 4 -3 39 -6 79 -7 l73 -1 3
-77 3 -77 87 -3 87 -3 2 -163 c1 -90 4 -166 7 -169 3 -3 38 -6 78 -7 l73 -1 0
-170 0 -170 80 0 80 0 0 -80 0 -80 90 0 90 0 0 -80 0 -80 80 0 80 0 0 -90 0
-90 80 0 80 0 0 -80 0 -80 90 0 90 0 0 -80 0 -80 80 0 80 0 0 -90 0 -90 80 -1
80 0 0 -80 0 -79 170 0 170 0 0 -80 0 -80 170 0 170 0 0 -90 0 -90 160 0 160
0 0 -80 0 -80 250 0 250 0 0 -80 0 -80 420 0 420 0 0 -90 0 -90 330 0 330 0 1
89 0 89 250 1 249 1 3 77 3 77 87 3 87 3 3 77 3 77 77 3 77 3 0 250 0 250 -77
3 -77 3 -3 87 -3 87 -87 3 -87 3 -3 77 -3 77 -73 1 c-40 1 -75 4 -79 7 -3 4
-6 39 -7 79 l-1 73 -78 0 c-44 0 -77 4 -78 10 0 6 -1 46 -2 90 l-2 80 -89 1
-90 0 0 80 -1 79 -80 0 -80 0 0 80 0 80 -80 0 -80 0 0 90 0 90 -90 0 -90 0 0
80 0 80 -80 0 -80 0 0 80 0 80 -80 0 -80 0 0 90 0 90 -90 0 -90 0 0 160 0 160
-80 0 -80 0 0 170 0 170 -80 0 -80 0 0 170 0 170 -90 0 -90 0 0 160 0 160 -80
0 -80 0 0 250 0 250 -80 0 -80 0 0 250 0 250 -90 0 -90 0 0 420 0 420 -80 0
-80 0 0 1830 0 1830 -80 0 -80 0 0 250 0 250 -90 0 -90 0 0 250 0 250 -80 1
-80 0 0 170 0 169 -79 1 -79 0 -1 170 -1 169 -83 1 c-46 1 -86 4 -89 7 -3 4
-6 39 -7 79 l-1 73 -80 0 -80 0 0 80 0 80 -80 0 -80 0 0 88 c0 48 2 348 3 667
l2 579 78 3 77 3 0 420 0 420 -77 3 -77 3 -3 77 -3 77 -246 3 c-135 1 -248 -1
-252 -4z m343 -2824 c0 -5 -5 -10 -11 -10 -5 0 -7 5 -4 10 3 6 8 10 11 10 2 0
4 -4 4 -10z m0 -90 c0 -5 5 -10 12 -10 17 0 118 -106 118 -124 0 -28 19 -17
28 17 l9 32 11 -25 c5 -14 19 -34 31 -44 11 -11 21 -27 21 -38 0 -10 4 -18 9
-18 5 0 14 -13 21 -30 7 -16 15 -30 19 -30 3 0 19 -22 34 -48 16 -26 38 -63
50 -82 44 -72 185 -362 198 -405 7 -25 17 -45 21 -45 4 0 8 -7 8 -15 0 -8 13
-42 30 -77 35 -76 113 -306 106 -316 -2 -4 2 -21 9 -37 16 -35 46 -138 50
-176 1 -14 8 -36 15 -48 6 -12 10 -32 9 -44 -1 -12 3 -40 9 -63 7 -23 12 -52
13 -65 1 -67 5 -105 12 -116 4 -7 7 -37 6 -67 -1 -31 3 -62 10 -70 7 -9 12
-44 11 -93 -1 -43 4 -94 10 -113 6 -19 11 -87 12 -150 0 -63 3 -216 7 -340 3
-124 7 -308 9 -410 2 -102 6 -201 9 -220 4 -19 9 -96 11 -170 8 -239 13 -280
36 -280 6 0 4 -5 -4 -10 -8 -5 -45 -10 -82 -10 l-68 0 0 -90 0 -90 -167 -2
-168 -3 -3 -75 c-2 -44 -8 -78 -15 -82 -7 -4 -40 -8 -74 -8 l-63 0 0 -75 0
-75 65 -1 c36 -1 71 -2 78 -3 8 -1 12 21 13 74 l1 75 172 3 171 2 0 81 0 80
72 -3 71 -3 -4 -75 c-2 -41 -2 -183 1 -315 3 -132 6 -286 7 -341 1 -56 7 -120
13 -143 6 -23 11 -60 10 -84 0 -23 3 -58 6 -77 3 -19 8 -51 10 -70 3 -19 7
-51 10 -70 3 -19 7 -51 9 -71 2 -20 8 -46 14 -57 6 -12 11 -34 11 -49 0 -15 2
-44 6 -63 3 -19 7 -48 10 -65 8 -49 10 -59 18 -76 4 -9 6 -20 5 -25 -2 -5 3
-29 10 -53 7 -23 10 -45 7 -48 -3 -3 1 -18 9 -33 8 -15 14 -36 14 -46 0 -10
11 -62 26 -114 15 -52 28 -105 29 -117 1 -12 8 -28 14 -35 6 -8 11 -24 12 -36
0 -12 0 -31 1 -42 0 -11 4 -22 10 -25 5 -4 9 -15 9 -26 0 -10 4 -27 10 -37 12
-22 60 -168 60 -185 0 -6 6 -24 14 -38 7 -14 19 -50 25 -80 7 -30 21 -72 31
-94 18 -37 43 -116 45 -140 1 -5 8 -23 16 -40 9 -16 26 -64 39 -105 12 -41 36
-101 51 -133 16 -32 29 -63 29 -68 0 -10 25 -68 71 -166 22 -48 25 -63 14 -63
-18 0 -31 -20 -18 -29 5 -3 13 -15 17 -26 8 -19 8 -19 19 3 10 22 13 18 53
-55 23 -43 57 -107 75 -143 17 -36 36 -72 40 -80 34 -58 149 -292 149 -301 0
-6 14 -38 30 -71 17 -32 30 -65 30 -72 0 -8 4 -16 9 -18 5 -1 23 -32 41 -68
18 -36 36 -67 40 -70 4 -3 22 -32 39 -65 18 -33 47 -85 66 -115 19 -30 42 -70
52 -88 9 -17 20 -32 25 -32 4 0 27 -30 52 -67 24 -38 53 -79 65 -92 12 -13 21
-28 21 -32 0 -4 17 -24 38 -43 20 -20 33 -36 27 -36 -5 0 -16 -4 -23 -9 -10
-6 -2 -20 32 -55 25 -26 46 -51 46 -56 0 -5 18 -26 41 -47 23 -21 47 -50 54
-64 8 -14 64 -75 124 -135 61 -60 111 -115 111 -122 0 -8 9 -16 20 -19 10 -3
22 -13 25 -23 3 -10 46 -58 96 -106 50 -49 97 -102 106 -117 8 -16 30 -43 49
-59 19 -17 42 -45 51 -62 9 -17 23 -38 33 -46 9 -8 20 -24 24 -35 8 -18 10
-16 18 14 l9 34 38 -39 c20 -21 36 -42 34 -45 -1 -4 -83 -10 -181 -14 -98 -4
-185 -11 -193 -16 -11 -7 -9 -9 9 -9 14 0 22 -6 22 -16 0 -9 10 -25 21 -35 15
-13 20 -26 17 -43 -4 -19 0 -26 16 -30 56 -15 -19 -25 -226 -32 l-228 -7 0 92
0 91 -27 -1 c-31 -1 -86 -16 -65 -18 6 -1 13 -13 13 -28 l2 -28 4 28 c5 34 33
36 33 2 0 -14 -4 -25 -10 -25 -5 0 -10 -11 -10 -25 0 -29 -40 -75 -65 -75 -8
0 -15 -4 -15 -10 0 -5 -13 -10 -30 -10 -16 0 -30 -4 -30 -10 0 -6 -55 -10
-144 -10 -127 0 -145 2 -148 17 -3 15 -4 15 -20 -1 -10 -10 -18 -13 -18 -7 0
6 -17 11 -38 11 -21 0 -43 5 -50 12 -7 7 -30 11 -52 9 -24 -1 -40 2 -40 8 0 6
-13 11 -29 11 -16 0 -31 5 -33 12 -3 7 -19 11 -41 10 -26 -2 -37 2 -37 11 0 9
-9 12 -30 9 -22 -3 -30 0 -30 10 0 11 -7 14 -25 10 -16 -3 -33 2 -44 12 -10 9
-20 13 -24 10 -7 -8 -73 22 -82 36 -4 6 -11 8 -16 4 -13 -8 -359 165 -366 183
-3 7 -11 13 -17 13 -21 0 -117 52 -123 66 -3 8 -13 14 -23 14 -9 0 -25 9 -35
20 -10 11 -24 20 -31 20 -8 0 -19 9 -26 20 -7 11 -21 20 -30 20 -10 0 -23 9
-30 20 -7 11 -19 20 -27 20 -8 0 -31 18 -52 40 -21 22 -45 40 -53 40 -8 0 -26
14 -39 30 -14 17 -31 30 -37 30 -7 0 -39 27 -72 60 -34 33 -65 60 -71 60 -15
0 -417 403 -417 418 0 7 -31 43 -70 80 -38 37 -70 73 -70 81 0 8 -3 12 -6 8
-8 -7 -34 17 -34 32 0 6 -22 31 -50 57 -27 26 -50 53 -50 61 0 8 -5 11 -10 8
-5 -3 -10 1 -10 9 0 9 -33 49 -72 90 -40 41 -90 95 -112 120 -30 36 -46 46
-70 47 -30 1 -30 1 -6 9 14 4 46 8 73 9 l47 1 0 80 0 79 78 3 77 3 0 250 0
250 -167 3 -167 2 -3 88 -3 87 -157 3 -158 3 0 159 0 160 -90 0 -90 0 0 170 0
170 -80 0 -80 0 0 250 0 249 -77 3 -78 3 -3 163 -4 162 81 0 81 0 0 410 0 410
80 0 80 0 -2 253 -3 252 -80 0 -80 0 -3 -247 -2 -247 -78 -3 -77 -3 -3 -407
-2 -408 -90 0 -90 0 0 -171 0 -170 -32 3 c-30 3 -32 6 -34 44 -1 23 -4 46 -8
52 -6 10 -12 63 -21 192 -2 30 -8 86 -13 123 -10 77 -12 75 63 79 l50 3 0 330
0 330 52 5 c28 3 55 9 59 13 4 4 3 7 -3 7 -13 0 -15 16 -15 95 0 77 1 43 -4
383 -3 182 -1 286 7 314 6 24 10 111 9 205 0 104 3 170 10 184 8 13 11 81 10
190 0 109 3 176 11 190 7 13 10 72 10 155 -1 87 2 134 9 134 5 0 10 8 10 18 0
10 5 23 11 29 7 7 11 45 10 97 -1 51 3 95 10 108 7 12 11 51 10 85 -1 39 2 63
8 63 6 0 11 8 11 18 0 10 5 23 12 30 6 6 10 36 9 68 -1 33 4 62 11 71 7 8 11
33 9 54 -1 23 2 39 8 39 6 0 11 17 11 38 0 21 5 43 12 50 7 7 11 33 9 62 -1
31 2 50 8 50 6 0 11 18 11 40 0 25 5 40 13 40 8 0 11 15 9 50 -3 32 0 50 7 50
6 0 11 18 11 40 0 26 5 40 13 40 9 0 12 11 9 36 -3 23 0 39 9 44 8 6 12 25 10
54 -1 27 2 46 9 46 5 0 10 8 10 19 0 10 6 24 13 30 8 6 12 23 9 41 -3 22 0 30
11 30 10 0 13 6 10 20 -4 13 0 20 9 20 10 0 13 8 10 30 -3 21 0 30 10 30 10 0
13 9 10 30 -3 23 0 30 12 30 9 0 13 6 10 14 -3 8 5 27 19 42 15 16 23 34 20
45 -4 13 0 19 11 19 9 0 13 6 10 14 -3 8 6 27 19 42 14 15 23 33 20 40 -5 14
19 44 36 44 6 0 8 7 5 15 -7 17 18 45 40 45 16 0 20 10 16 43 -1 14 4 18 22
15 19 -2 22 1 20 20 -2 15 2 22 12 22 9 0 16 -7 16 -16 0 -8 4 -13 9 -10 5 4
12 0 14 -6 3 -7 6 1 7 17 1 17 3 46 5 65 1 19 6 117 10 218 4 101 11 195 15
210 7 24 8 25 9 5 1 -29 5 -29 38 5 39 38 73 56 74 40 1 -16 17 30 18 54 1 13
-13 18 -73 23 -65 6 -73 9 -69 26 3 10 9 17 13 14 4 -2 16 5 28 15 12 11 27
20 34 20 7 0 19 9 26 20 7 12 17 18 22 15 9 -6 11 1 14 45 1 11 23 17 93 24
90 9 91 9 97 39 3 16 6 49 6 73 l0 43 158 3 157 3 3 48 c2 26 7 47 13 47 5 0
9 -4 9 -10z m-713 -1032 c-3 -8 -6 -5 -6 6 -1 11 2 17 5 13 3 -3 4 -12 1 -19z
m1738 -3068 c17 -7 17 -9 3 -9 -15 -1 -18 -11 -18 -65 0 -46 -4 -65 -14 -69
-22 -9 -26 2 -26 80 0 78 5 84 55 63z m-2375 -2159 l0 -170 -72 5 c-40 3 -79
7 -85 10 -10 2 -13 44 -13 164 l0 160 85 0 85 0 0 -169z m160 -501 l0 -170 80
0 80 0 0 -160 0 -160 90 0 89 0 3 -87 3 -88 155 -2 155 -1 5 -79 5 -78 93 -3
92 -3 0 -58 c0 -32 -3 -106 -7 -164 l-6 -107 -89 0 c-51 0 -89 -4 -89 -10 -1
-5 -3 -14 -4 -20 -1 -5 -4 -25 -5 -42 -3 -29 -4 -28 -9 12 l-6 45 -65 5 -65 5
-5 117 c-3 64 -9 120 -13 124 -4 4 -7 2 -7 -5 0 -20 -18 -2 -36 35 -14 28 -14
38 -5 44 8 5 0 10 -23 14 -20 4 -40 4 -45 1 -6 -3 -12 -1 -16 5 -3 5 -45 10
-95 10 l-88 0 -7 164 -7 163 -71 7 c-39 4 -72 8 -73 9 -1 1 -5 70 -9 152 -4
83 -8 151 -10 153 -1 2 -34 6 -73 9 l-71 6 -3 159 c-2 88 -1 162 1 164 2 2 37
4 78 4 l73 0 0 -170z m4690 -3150 c0 -5 -4 -10 -10 -10 -5 0 -10 5 -10 10 0 6
5 10 10 10 6 0 10 -4 10 -10z"/>
<path d="M9994 13647 c-3 -8 -4 -45 -2 -83 l3 -69 77 -3 78 -3 2 -167 3 -167
93 -3 92 -3 0 176 0 175 -90 0 -90 0 0 80 0 80 -80 0 c-58 0 -82 -4 -86 -13z"/>
<path d="M8370 11849 c0 -5 5 -7 10 -4 6 3 10 8 10 11 0 2 -4 4 -10 4 -5 0
-10 -5 -10 -11z"/>
<path d="M9160 10575 l0 -75 85 0 85 0 0 75 0 75 -85 0 -85 0 0 -75z"/>
<path d="M9000 10325 l0 -165 75 0 75 0 0 165 0 165 -75 0 -75 0 0 -165z"/>
<path d="M10502 8148 c-4 -4 -6 -38 -4 -76 l4 -70 71 -4 c40 -3 76 -2 80 2 4
4 7 40 5 81 l-3 74 -73 0 c-40 0 -76 -3 -80 -7z"/>
<path d="M9660 7825 l0 -165 85 0 85 0 0 165 0 165 -85 0 -85 0 0 -165z"/>
<path d="M10340 7915 l0 -75 75 0 75 0 0 75 0 75 -75 0 -75 0 0 -75z"/>
<path d="M10568 7832 l-68 -3 0 -84 0 -85 74 0 74 0 4 81 c2 47 -1 84 -7 87
-5 4 -40 6 -77 4z"/>
<path d="M10005 7169 l5 -162 67 0 68 0 3 161 2 162 -75 0 -75 0 5 -161z m45
-63 c0 -9 8 -16 20 -16 12 0 20 -7 20 -16 0 -9 10 -25 22 -35 l21 -19 -36 0
c-32 0 -37 3 -37 23 0 17 -2 19 -9 7 -6 -8 -7 -18 -5 -22 3 -4 -2 -8 -10 -8
-10 0 -16 9 -16 26 0 14 4 23 10 19 6 -3 10 -1 10 4 0 6 -4 11 -10 11 -5 0
-10 16 -10 36 0 31 2 34 15 20 8 -8 15 -22 15 -30z"/>
<path d="M11154 6987 c-3 -8 -4 -45 -2 -83 l3 -69 87 -3 88 -3 2 -167 3 -167
77 -3 77 -3 3 -77 3 -77 80 0 80 0 3 83 3 82 -81 0 -80 0 0 170 0 170 -80 0
-80 0 0 80 0 80 -90 0 c-67 0 -92 -4 -96 -13z"/>
<path d="M11474 6985 c-7 -17 4 -37 17 -30 12 8 12 45 -1 45 -6 0 -13 -7 -16
-15z"/>
<path d="M10169 6988 c0 -2 -1 -34 -1 -73 l-1 -69 161 -4 162 -4 0 76 0 76
-160 0 c-88 0 -160 -1 -161 -2z m41 -79 c0 -6 10 -20 22 -30 l21 -19 -26 0
c-15 0 -27 6 -27 13 0 8 -4 7 -10 -3 -7 -11 -10 -2 -10 33 0 43 2 47 15 33 8
-8 15 -20 15 -27z"/>
<path d="M10500 6745 l0 -85 75 0 75 0 0 85 0 85 -75 0 -75 0 0 -85z"/>
<path d="M11630 6640 c0 -5 7 -10 15 -10 8 0 15 5 15 10 0 6 -7 10 -15 10 -8
0 -15 -4 -15 -10z"/>
<path d="M11000 6075 l0 -75 75 0 75 0 0 75 0 75 -75 0 -75 0 0 -75z"/>
<path d="M11160 5745 l0 -85 85 0 85 0 0 85 0 85 -85 0 -85 0 0 -85z"/>
<path d="M11500 5415 l0 -75 75 0 75 0 0 75 0 75 -75 0 -75 0 0 -75z"/>
<path d="M12206 4742 c-10 -16 9 -30 21 -17 10 10 9 14 -2 19 -8 3 -16 2 -19
-2z"/>
<path d="M12185 4700 c-3 -5 -1 -10 4 -10 6 0 11 5 11 10 0 6 -2 10 -4 10 -3
0 -8 -4 -11 -10z"/>
<path d="M12134 4669 c-10 -11 -12 -19 -6 -19 7 0 12 4 12 9 0 5 10 11 23 13
18 3 19 4 5 10 -10 4 -23 -1 -34 -13z"/>
</g>
</svg>
