<?xml version="1.0" standalone="no"?>
<!DOCTYPE svg PUBLIC "-//W3C//DTD SVG 20010904//EN"
 "http://www.w3.org/TR/2001/REC-SVG-20010904/DTD/svg10.dtd">
<svg version="1.0" xmlns="http://www.w3.org/2000/svg"
 width="2000.000000pt" height="2000.000000pt" viewBox="0 0 2000.000000 2000.000000"
 preserveAspectRatio="xMidYMid meet">
<metadata>
Created by potrace 1.16, written by Peter Selinger 2001-2019
</metadata>
<g transform="translate(0.000000,2000.000000) scale(0.100000,-0.100000)"
fill="#000000" stroke="none">
<path d="M9330 17420 l0 -79 -87 -3 -88 -3 -3 -87 -3 -87 -77 -3 -77 -3 0
-250 0 -250 77 -3 77 -3 3 -77 3 -77 88 -3 87 -3 0 -664 0 -664 -87 -3 -88 -3
-3 -77 -3 -77 -77 -3 -77 -3 -3 -77 -3 -77 -77 -3 -77 -3 -3 -87 -3 -87 -87
-3 -87 -3 -3 -77 -3 -77 -77 -3 -77 -3 -3 -77 -3 -77 -77 -3 -77 -3 -3 -167
-2 -167 -88 -3 -87 -3 -3 -167 -2 -167 -78 -3 -77 -3 -3 -247 -2 -247 -78 -3
-77 -3 -3 -497 -2 -497 -88 -3 -87 -3 0 -1250 0 -1250 88 -3 87 -3 0 -324 0
-324 -87 -3 -88 -3 0 -250 0 -250 87 -3 88 -3 2 -247 3 -247 77 -3 78 -3 2
-247 3 -247 77 -3 78 -3 2 -247 3 -247 87 -3 88 -3 2 -167 3 -167 77 -3 77 -3
3 -77 3 -77 77 -3 77 -3 3 -77 3 -77 87 -3 88 -3 2 -167 3 -167 77 -3 78 -3 2
-167 3 -167 77 -3 77 -3 3 -77 3 -77 87 -3 87 -3 3 -77 3 -77 77 -3 77 -3 3
-87 3 -87 77 -3 77 -3 3 -77 3 -77 87 -3 87 -3 3 -77 3 -77 77 -3 77 -3 3 -87
3 -87 77 -3 77 -3 3 -77 3 -77 167 -3 167 -2 3 -78 3 -77 167 -3 167 -2 3 -88
3 -87 157 -3 157 -3 3 -77 3 -77 247 -3 247 -2 3 -78 3 -77 417 -3 417 -2 3
-88 3 -87 330 0 330 0 3 87 3 88 247 2 247 3 3 77 3 77 87 3 87 3 3 77 3 77
77 3 77 3 3 253 2 252 -79 0 -80 0 -3 87 -3 88 -87 3 -87 3 -3 77 -3 77 -77 3
-77 3 -3 77 -3 77 -77 3 -77 3 -3 87 -3 87 -87 3 -87 3 -3 77 -3 77 -77 3 -77
3 -3 77 -3 77 -77 3 -77 3 -3 87 -3 87 -87 3 -87 3 -3 77 -3 77 -77 3 -77 3
-3 77 -3 77 -77 3 -77 3 -3 87 -3 87 -87 3 -87 3 -3 157 -3 157 -77 3 -78 3
-2 167 -3 167 -77 3 -78 3 -2 167 -3 167 -87 3 -87 3 -3 157 -3 157 -77 3 -78
3 -2 247 -3 247 -77 3 -78 3 -2 247 -3 247 -87 3 -88 3 -2 417 -3 417 -77 3
-78 3 -2 1827 -3 1827 -77 3 -78 3 -2 247 -3 247 -87 3 -88 3 -2 247 -3 247
-77 3 -78 3 -2 167 -3 167 -77 3 -78 3 -2 167 -3 167 -87 3 -87 3 -3 77 -3 77
-77 3 -77 3 -3 77 -3 77 -77 3 -78 3 0 664 0 664 78 3 77 3 3 423 2 422 -80 0
-80 0 0 80 0 80 -255 0 -255 0 0 -80z m500 -505 l0 -415 -90 0 -90 0 0 -675 0
-675 90 0 89 0 3 -77 3 -78 78 -3 77 -3 0 -79 0 -80 80 0 80 0 0 -170 0 -170
90 0 90 0 0 -170 0 -170 80 0 80 0 0 -250 0 -250 80 0 80 0 0 -250 0 -250 90
0 90 0 0 -1243 c0 -684 -2 -1246 -4 -1248 -2 -2 -40 -3 -85 -1 l-80 3 -3 87
-3 87 -80 0 -80 0 -3 -87 -3 -88 -167 -2 -167 -3 -3 -77 -3 -77 -77 -3 -77 -3
0 -80 0 -80 80 0 80 0 3 77 3 78 167 2 167 3 3 78 3 77 74 0 74 0 3 -157 3
-158 85 -1 85 -2 3 -421 2 -421 80 0 80 0 0 -420 0 -420 80 0 80 0 0 -250 0
-250 90 0 90 0 0 -250 0 -250 80 0 80 0 0 -160 0 -160 80 0 80 0 0 -170 0
-170 90 0 90 0 0 -170 0 -170 80 0 80 0 0 -160 0 -160 80 0 80 0 0 -90 0 -90
90 0 90 0 0 -80 0 -80 80 0 80 0 0 -80 0 -80 80 0 80 0 0 -90 0 -90 90 0 90 0
0 -80 0 -80 80 0 80 0 0 -80 0 -80 80 0 80 0 0 -90 0 -90 90 0 90 0 0 -80 0
-80 80 0 80 0 0 -80 0 -80 80 0 80 0 0 -90 0 -90 90 0 90 0 -2 -161 -3 -162
-100 1 c-96 1 -228 -14 -147 -17 30 -1 32 -3 32 -36 0 -19 -4 -35 -10 -35 -5
0 -10 -18 -10 -40 0 -28 -4 -40 -14 -40 -9 0 -12 -7 -9 -20 4 -14 0 -20 -11
-20 -9 0 -13 -6 -10 -14 3 -8 -4 -25 -15 -37 -36 -39 -27 -49 39 -49 l60 0 0
72 c0 92 8 85 11 -10 l2 -73 -94 -3 c-52 -2 -163 -4 -246 -5 l-153 -1 0 -80 0
-80 -325 0 -325 0 0 80 0 80 -420 0 -420 0 0 80 0 80 -250 0 -250 0 0 90 0 90
-160 0 -160 0 0 80 0 80 -170 0 -170 0 0 80 0 80 -170 0 -170 0 0 90 0 90 -80
0 -80 0 0 80 0 80 -80 0 -80 0 0 80 0 80 -90 0 -90 0 0 90 0 90 -80 0 -80 0 0
80 0 80 -80 0 -80 0 0 80 0 80 -90 0 -90 0 0 170 0 170 -80 0 -80 0 0 165 0
165 80 0 80 0 0 80 0 80 90 0 90 0 0 80 0 80 80 0 80 0 -2 253 -3 252 -167 3
-167 2 -3 88 -3 87 -157 3 -157 3 -3 157 -3 157 -87 3 -88 3 -2 167 -3 167
-77 3 -78 3 0 249 0 250 -80 0 -80 0 0 165 0 165 80 0 80 0 0 410 0 410 80 0
80 0 0 255 0 255 -85 0 -85 0 0 -250 0 -249 -77 -3 -78 -3 -3 -407 -2 -407
-88 -3 -87 -3 0 -170 0 -170 87 -3 88 -3 2 -247 3 -247 77 -3 78 -3 2 -167 3
-167 77 -3 77 -3 3 -157 3 -157 87 -3 87 -3 3 -87 3 -87 157 -3 157 -3 3 -77
3 -77 88 -3 87 -3 0 -164 0 -164 -87 -3 -88 -3 -3 -77 -3 -78 -154 0 -155 0
-2 248 -3 247 -87 3 -87 3 -3 77 -3 77 -77 3 -77 3 -3 87 -3 87 -77 3 -78 3 0
159 0 160 -90 0 -90 0 0 170 0 170 -80 0 -80 0 0 250 0 250 -80 0 -80 0 0 245
0 245 80 0 80 0 0 420 0 419 78 3 77 3 3 163 2 162 -85 0 -85 0 0 -160 0 -160
-75 0 -75 0 0 1155 0 1155 80 0 80 0 0 500 0 500 80 0 80 0 0 250 0 250 90 0
90 0 0 170 0 170 80 0 80 0 0 170 0 170 80 0 80 0 0 80 0 80 90 0 90 0 0 80 0
80 80 0 80 0 0 90 0 90 80 0 80 0 0 80 0 80 90 0 90 0 0 80 0 80 80 0 80 0 0
675 0 675 -80 0 -80 0 0 80 0 80 -52 2 c-29 1 -69 3 -88 3 -19 1 -34 4 -32 8
1 4 2 112 2 240 l0 232 78 -3 c57 -3 81 0 90 10 6 8 13 45 15 83 l3 70 2 -72
2 -73 66 0 65 0 -1 78 c-1 42 -1 80 -1 85 1 4 78 7 171 7 l170 0 0 -415z
m-372 398 c-10 -2 -28 -2 -40 0 -13 2 -5 4 17 4 22 1 32 -1 23 -4z m-968
-10238 l0 -75 -75 0 -75 0 0 75 0 75 75 0 75 0 0 -75z m160 -250 l0 -165 -75
0 -75 0 0 165 0 165 75 0 75 0 0 -165z m5168 -2622 l-3 -38 -85 6 -85 5 83 2
82 2 2 68 c1 40 3 52 5 30 2 -21 3 -54 1 -75z"/>
<path d="M9180 16905 l0 -225 30 0 c28 0 30 3 30 35 0 22 5 35 13 35 9 0 11
12 9 40 -3 25 0 40 7 40 6 0 11 9 11 20 0 11 7 20 15 20 11 0 15 -12 15 -47 0
-25 2 -44 4 -42 3 2 8 82 12 177 l7 172 -77 0 -76 0 0 -225z m127 -17 c-3 -8
-6 -5 -6 6 -1 11 2 17 5 13 3 -3 4 -12 1 -19z"/>
<path d="M9150 14580 l0 -80 -80 0 -80 0 0 -170 0 -169 -77 -3 -78 -3 -3 -157
-3 -157 -87 -3 -87 -3 0 -170 0 -170 90 0 90 0 3 167 2 167 78 3 77 3 3 157 3
157 77 3 77 3 3 167 2 167 88 3 87 3 0 80 0 80 -92 3 -93 3 0 -81z"/>
<path d="M9994 13647 c-3 -8 -4 -45 -2 -83 l3 -69 77 -3 78 -3 2 -167 3 -167
90 0 90 0 0 170 0 170 -87 3 -87 3 -3 77 -3 77 -78 3 c-59 2 -79 0 -83 -11z"/>
<path d="M9157 10654 c-4 -4 -7 -40 -7 -80 l0 -73 -77 -3 -78 -3 0 -170 0
-170 80 0 80 0 3 167 2 167 88 3 87 3 0 80 0 80 -85 3 c-47 1 -89 0 -93 -4z"/>
<path d="M10497 8154 c-4 -4 -7 -40 -7 -80 l0 -73 -77 -3 -78 -3 0 -80 0 -80
77 -3 77 -3 3 -87 3 -87 80 0 80 0 0 90 0 90 -77 3 -78 3 0 74 0 74 78 3 77 3
0 80 0 80 -75 3 c-42 1 -79 0 -83 -4z"/>
<path d="M9655 7990 c-3 -5 -3 -82 1 -170 l7 -161 86 3 86 3 0 165 0 165 -87
3 c-52 2 -89 -1 -93 -8z"/>
<path d="M9847 7654 c-4 -4 -7 -76 -7 -161 l0 -153 74 0 74 0 7 133 c10 192
14 181 -70 185 -39 1 -74 0 -78 -4z"/>
<path d="M10038 7333 l-38 -4 0 -165 0 -164 73 0 74 0 7 161 c3 88 4 165 0
170 -5 9 -43 9 -116 2z"/>
<path d="M10213 6993 l-51 -4 -4 -70 c-2 -39 1 -73 6 -76 9 -6 31 -7 213 -11
l112 -2 3 -87 3 -88 80 0 80 0 0 90 0 90 -77 3 -77 3 -3 77 -3 77 -115 1 c-63
0 -138 -1 -167 -3z"/>
<path d="M11154 6987 c-3 -8 -4 -45 -2 -83 l3 -69 87 -3 88 -3 2 -167 3 -167
77 -3 77 -3 3 -77 3 -77 80 0 80 0 0 80 0 80 -77 3 -78 3 -2 167 -3 167 -77 3
-77 3 -3 77 -3 77 -88 3 c-67 2 -89 0 -93 -11z"/>
<path d="M10995 6147 c-3 -7 -4 -80 -3 -162 l3 -150 77 -3 78 -3 2 -167 3
-167 87 -3 87 -3 3 -77 3 -77 160 0 160 0 0 80 0 80 -157 3 -158 3 -2 167 -3
167 -87 3 -87 3 -3 157 -3 157 -78 3 c-57 2 -79 -1 -82 -11z"/>
</g>
</svg>
