
<svg width="600" height="450" fill="none" xmlns="http://www.w3.org/2000/svg" viewBox="0 0 600 450">
  <path fill="#813f1f" d="m298.2 73.2-4.2-.6-1.8-1.8-.6 9 1.2-1.8 3.6 3.6c3.878-1.519 9.227-3.259 12.971-.454 1.708 1.279 1.752 3.104 3.829 4.054l3-2.4 3.6-4.2-.6-5.4 5.4 7.8h.6l1.8-8.4c-5.656-4.319-15.468-4.038-22.2-2.4-2.652.646-5.477.167-6.6 3z"/>
  <path fill="#f1a76d" d="M284.4 79.2h4.2c-.812-3.104-1.558-5.719 2.4-6-4.915-5.431-6.175 1.988-6.6 6z"/>
  <path fill="#c3733f" d="m254.4 97.8-4.8-1.8c-.901 4.394-1.134 7.05 3 9.6l-3-6 4.2 4.2 4.2-.6c.125-4.411 2.554-7.9 7.2-7.8-.458-4.703-2.401-7.847-5.4-11.4l17.4-3.6c-.598-5.375 2.185-7.496 7.2-8.4-4.492-2.597-7.758 2.998-10.991 5.14-3.87 2.562-9.643 1.674-12.845 5.092-3.214 3.43-.715 7.086-1.529 10.955-.413 1.964-3.341 3.178-4.637 4.614z"/>
  <path fill="#a75b33" d="m277.2 80.4-4.2-.6v.6l6.6 3.6-1.2-8.4 6 3c1.493-9.809-8.423-5.91-7.2 1.8z"/>
  <path fill="#af5f2f" d="M291 72c-3.857 1.64-3.737 3.428-2.4 7.2h-3v.6h6L291 72z"/>
  <path fill="#ebafaf" d="M327 72v.6l9 4.8-6-5.4h-3z"/>
  <path fill="#834f45" d="M325.2 72.6V81h-.6l-5.4-7.8.6 5.4c-5.126 2.873-1.422 6.244-1.636 10.802-.127 2.712-1.763 5.24-2.566 7.798 8.402-.577 3.588-9.889 7.8-15l1.8 16.8-43.2 6.6v.6l13.8-.6c2.993 5.046 9.16 2.684 11.4-1.8 10.44-.402 27.624-6.827 29.4 9.6h1.8l1.2 3.6 1.8-1.2 3.6 36.6h.6l3-5.4c-1.399-7.71 2.238-13.508 2.832-21 .851-10.768-1.152-24.457-4.032-34.8h-1.2v2.4l-6-5.4-4.2-4.2c-.371-5.854-5.154-10.159-10.8-11.4z"/>
  <path fill="#5f351b" d="m278.4 75.6 1.2 8.4H264l3.6 5.4c3.306-3.925 6.93 12.406 7.8 15.6l49.8-6c0-5.671.748-11.578-1.8-16.8-4.943 4.676.932 14.027-7.8 15 1.302-3.115 3.162-6.058 2.578-9.57-.349-2.105-2.737-6.038-4.844-2.887-1.692 2.531-.246 8.164-.734 11.258h-.6c-.64-4.842-.631-9.402-4.8-12.6v12c-3.768-5.322-8.256-14.803-14.4-17.4-4.716 3.845-9.872-.454-14.4-2.4z"/>
  <path fill="#c58959" d="M330.6 75.6v.6l2.4.6v-.6l-2.4-.6z"/>
  <path fill="#6f492f" d="m297 81 10.2 14.4v-12c3.728 3.703 4.001 7.655 4.8 12.6 5.338-11.764-4.915-17.972-15-15z"/>
  <path fill="#833515" d="m259.8 84 8.4 15h.6l1.2-6.6-1.2-3.6h1.8v3h.6c-.03-2.591-2.129-6.8-3.6-2.4L264 84h14.4c-5.384-4.373-12.833-3.377-18.6 0z"/>
  <path fill="#e9a387" d="M259.2 81.6c-2.296 2.09-4.218 7.489-4.193 10.64.016 1.775 2.466 3.829 3.802 1.819 1.08-1.625-.656-4.212-.971-5.86-.463-2.426.349-4.448 1.362-6.601z"/>
  <path fill="#6d3f29" d="m331.8 81.6-1.2 9.6c-2.725 1.648-3.319 4.164-3.6 7.2 11.096-.424 10.776 15.36 19.8 19.2l1.2 9.6h.6l1.8-9h-1.8c-.181-7.75 1.462-23.054-8.089-26.303-2.284-.776-5.141-.151-7.511-.097V81.6h-1.2z"/>
  <path fill="#7d5139" d="m270 91.8-1.2 4.2h2.4l3 9.6h-.6l-5.4-7.2h-.6l.6 2.4-1.8-1.2-.6 7.2-4.2-2.4c-.252 2.503-1.397 9.043 1.2 9.6-4.888 10.708-4.537 24.073-4.8 36h-3.6c0-9.006-5.164-19.922-1.8-28.2h-.6l-2.4 1.2c-1.858 11.694 2.514 21.709 4.2 33 3.17 1.072 4.589 2.776 5.4 6h1.2c0-10.324 1.171-20.354 1.735-30.6.274-4.962-.995-10.958 1.483-15.499 3.373-6.182 11.836-8.905 18.382-9.1v-.6l-6.6-1.2c-1.072-5.046-2.134-9.116-5.4-13.2z"/>
  <path fill="#a55523" d="M265.2 93.6c-3.845 2.852-7.513 3.947-7.2 9.6l-4.2.6-4.2-4.2c1.063 2.602 4.886 6.37 4.927 8.987.085 5.404-8.902-3.41-9.727-4.187l6.6 12.6 3-4.2h2.4c0-2.167 3.584-2.543 5.4-2.4l-.6-6 4.2 2.4.6-7.2 1.8 1.2-3-7.2z"/>
  <path fill="#592d09" d="M268.8 96c.162 4.37 1.566 6.746 4.8 9.6h.6l-3-9.6h-2.4z"/>
  <path fill="#e59f63" d="m247.8 100.2-1.8 4.2c1.079 2.326 2.327 4.681 4.858 5.684 1.338.532 4.082.665 4.007-1.452-.101-2.8-5.58-5.863-7.063-8.432z"/>
  <path fill="#c38f67" d="M243 100.8v12.6h.6l3-4.2c-.58-1.74-3.095-4.823-.6-4.2l-1.2-4.2H243z"/>
  <path fill="#bb8591" d="M301.2 109.2v4.2l2.4 6 1.2-1.2 4.8 4.2h2.4v2.4h2.4l.6 4.2-3 1.2c7.94 2.022 17.594 2.615 24.728 6.66 7.738 4.388 2.339 9.252-4.328 8.668a86.12 86.12 0 0 0-7.2-.328l1.2 7.2-2.4-1.2-.6 1.8c-1.415-.959-3.26-1.316-4.46-2.603-1.831-1.963-9.786-15.971-13.54-8.797l2.4 4.8c6.271 6.865-4.985 15.442 7.8 15.6l1.2 6h-2.4l-3.6 7.2v.6l12.6 5.4-.498-11.185L318.6 159c4.819 3.955 9.419 9.856 10.2 16.2 2.5.497 3.714 1.272 4.8 3.6h.6v-3l3.6.6-1.2 9c-.911 2.77-2.634 3.299-5.4 3.6v-1.8h-8.4l-6 7.2v.6l15.6 1.8-1.2.6v.6h3l-1.2-1.8c5.353-4.585 4.609-11.956 7.217-17.914 1.188-2.712 3.822-3.926 5.566-6.185 2.059-2.665 3.352-6.349 4.458-9.502.756-2.154 2.059-11.405-1.631-11.952-1.631-.242-1.722 2.576-1.74 3.564-.071 3.996 1.117 7.94 1.13 11.988-4.406-6.067-3.724-16.129-4.363-23.4-.869-9.894-4.104-19.468-5.237-29.4h-1.8c-.744-11.148-13.502-14.183-22.6-10.583-4.513 1.786-7.945 5.155-12.8 6.383z"/>
  <path fill="#b37c84" d="M307.2 103.8c-1.498 2.224-3.218 3.96-6.005 4.386-5.75.88-24.858-5.425-18.634 7.933 1.645 3.53 4.381 5.984 5.438 9.882l5.4 8.4c12.856 4.834 12 16.658 12 28.8 7.279 5.118-.104 5.164-2.119 8.993-1.805 3.43 2.471 5.208 5.09 5.096 1.208-.052 2.422-.198 3.628-.288l-1.2-1.2v-.6l3.6-7.2h2.4l-1.2-6c-1.817 0-6.258.455-7.35-1.367-1.538-2.567 6.292-12.788-.45-14.233.192-2.407-.245-3.631-2.4-4.8l.6-1.8 8.4 3.6-5.954-5.71-2.446-10.49c4.037 2.719 7.086 4.26 12 4.8v-.6l-6-1.2 3-1.2-.6-4.2h-2.4v-2.4h-2.4c-1.021-3.079-2.932-3.887-6-3-.007-2.605.306-4.927-2.4-6v-4.2l10.8-5.4h-4.8z"/>
  <path fill="#9b5d4f" d="M259.2 162c1.974 6.265 1.196 11.191-.6 17.4l-7.2-7.2c3.24 6.814 8.626 9.893 16.2 7.8l6 20.4-5.4-13.2h-1.8l-1.8-4.8 4.2 33.6-2.4-1.2 1.8 7.8h.6v-1.8l2.4.6c-.918-6.592 2.162-10.517 3.6-16.8l5.4 4.2.6-1.8 6 2.4c3.124 6.42 15.54 3.942 21.6 6l-8.4-9v-1.2l8.933-3.955L319.2 186h-2.4l-2.4 5.4h-1.8c-3.17-5.4-11.44-1.946-16.576-3.644-4.89-1.616-3.971-4.43.343-5.828a36.959 36.959 0 0 0 4.832-1.927l-1.2 4.2h2.4l2.4-4.2h1.2c1.934 2.644 4.957-1.415 5.4 4.8h.6v-4.8l3 1.2h.6l1.2-2.4c-3.436-1.184-12-.434-13.367-4.255-1.764-4.931 9.698-4.14 4.072-10.056-.588-.618-1.369-.904-2.106-1.288 0-11.64 1.328-25.106-12-28.8l-5.4-8.4c-1.08-5.645-12.21-15.858-1.999-18.337 1.271-.308 2.546-.595 3.85-.727 1.972-.199 3.972-.134 5.95-.136v-1.2c-4.886 0-9.558.238-14.4.907-3.401.472-6.736 1.019-9.898 2.437-9.258 4.151-9.172 11.152-9.313 20.054-.108 6.782-1.451 13.586-1.735 20.4-.174 4.193.616 8.723-1.253 12.6z"/>
  <path fill="#eab0a7" d="M242.4 113.4v1.2c4.536 9.408-.866 20.735 7.2 29.4l-1.2-29.4h2.4c-2.79-4.57-5.288-5.898-8.4-1.2z"/>
  <path fill="#734327" d="M256.8 112.8h-2.4c-2.296 4.649-4.11 5.732-1.8 10.8-2.49.534-2.141 3.858-1.517 6 2.088 7.158 3.317 12.787 3.317 20.4h3.6l1.367-28.146L262.8 114l-1.2-4.2-4.8 3z"/>
  <path fill="#e39b79" d="m248.4 114.6-.6 16.2h.6L252 114l-3.6.6z"/>
  <path fill="#a17963" d="m350.4 115.2 1.2 12h.6l-1.8-12z"/>
  <path fill="#916163" d="m338.4 115.8 3.6 18.6h.6l-1.2-18.6h-3z"/>
  <path fill="#9b635f" d="M306 127.2c.644 11.267 7.114 17.617 18.6 18v-.6l-5.4-3h8.4v-.6l-4.8-2.4 9-1.2v-.6c-4.64.037-9.799 1.79-14.356.944-1.712-.319-4.654-2.356-2.045-3.854 2.024-1.163 5.158-.689 7.399-.69l-16.8-6z"/>
  <path fill="#874f4d" d="M336.6 138c-3.844-4.723-10.517-4.687-16.199-4.778-1.578-.025-6.726-.443-6.383 2.342.275 2.221 3.53 2.363 5.186 2.372 5.956.035 11.41-.296 17.395.064z"/>
  <path fill="#794135" d="M270.6 139.8c6.208-1.298 14.756-3.55 20.846-.758 3.245 1.487 5.282 4.62 8.554 6.16l-1.2-7.8c-8.39-1.892-22.555-7.48-28.2 2.4z"/>
  <path fill="#ad777b" d="M335.4 136.8v.6h1.2v.6l-13.8.6 10.2 6h-16.8c.368 2.003 1.085 4.946 2.6 6.4 1.433 1.375 4.906 2.63 5.2.2l2.4 1.2-1.2-7.2c4.1.032 9.677 1.642 13.553.058 5.629-2.302.115-7.75-3.354-8.458z"/>
  <path fill="#a66f66" d="M278.4 142.8h11.4c-2.532-4.74-8.761-4.534-11.4 0z"/>
  <path fill="#733739" d="M319.2 141.6c2.022 4.141 6.964 2.32 10.8 2.4v-1.8l-10.8-.6z"/>
  <path fill="#895055" d="M327.6 141.6v.6h2.4v1.8h-5.4v.6h8.4l-5.4-3z"/>
  <path fill="#b97d65" d="m249.6 142.2 2.4 4.8-2.4-4.8z"/>
  <path fill="#662d28" d="M279 145.8h7.8v-1.2c-3.138-.792-5.368-1.208-7.8 1.2z"/>
  <path fill="#a5676b" d="m348 144 .6 3c-4.625 4.591-5.129 14.383-.6 19.2-.007-6.028-3.451-13.955 2.4-18L348 144z"/>
  <path fill="#974f41" d="m348.6 148.2 2.4 10.2c2.25-3.545 1.686-8.429-2.4-10.2z"/>
  <path fill="#b97970" d="M252.6 150c-.269 2.95-1.024 4.476-3.6 6v.6c3.796-.698 4.475-3.048 3.6-6.6z"/>
  <path fill="#ad777b" d="M352.2 151.2v3.6h.6l-.6-3.6z"/>
  <path fill="#a95541" d="M253.2 153.6c-1.498 2.474-4.006 2.317-5.767 4.29-2.519 2.824.049 7.866 2.167 10.11-2.18-6.031-1.656-9.649 5.4-9.6l4.2 4.8c-.26-3.902-1.418-6.278-5.4-7.2l-.6-2.4z"/>
  <path fill="#dd4f4d" d="M259.2 172.8c.678-6.697-1.404-8.786-4.2-14.4-7.979-.313-9.3 7.487-3.616 12.756 2.143 1.987 5.112 1.67 7.816 1.644z"/>
  <path fill="#b97d7f" d="m318.6 159 4.302 11.563.498 10.637-5.4-1.2v.6c1.385.835 2.627 1.638 2.125 3.479-1.974 7.248-8.512 10.331-8.125 18.721l2.4-1.2.6.6-.6 1.8 4.8-.6v-1.8l-2.4-3.6 15.6-.6v-.6l-15.6-1.8v-.6c3.148-1.843 5.024-3.62 6-7.2h8.4v1.8c2.82-.19 4.946-.509 5.4-3.6l1.2-9-1.8.6-1.8-1.2v3h-.6c-.863-2.585-2.158-3.253-4.8-3.6-.512-6.318-4.901-12.841-10.2-16.2z"/>
  <path fill="#c15559" d="M259.2 163.2v9.6h-5.4l4.8 6.6c1.862-5.068 3.473-11.255.6-16.2z"/>
  <path fill="#8f5547" d="M313.2 163.2v3.6h3l-1.2-3.6h-1.8z"/>
  <path fill="#a66f66" d="M306 180h-1.2c-3.854 5.339 2.557 4.909 6.6 6-.241-4.541-1.296-5.189-5.4-6z"/>
  <path fill="#b97970" d="m261.6 180 4.8 7.2h1.2V180h-6z"/>
  <path fill="#794135" d="M300 180c-2.425 1.477-10.68 2.747-7.2 6.6l8.4-6.6H300z"/>
  <path fill="#a76f6d" d="m312 180 .6 4.8h3.6c-.54-2.776-1.41-4.091-4.2-4.8z"/>
  <path fill="#662d28" d="m315.6 180 .6 4.8-4.2-1.2-.6 2.4c-4.574-1.558-15.978-4.777-18.6.6 6.276 1.14 15.614-.862 19.8 4.8h1.8l2.4-5.4c5.677-1.646 3.551-5.179-1.2-6z"/>
  <path fill="#dda195" d="M266.4 181.2c1.412 6.361 2.885 14.135 7.2 19.2-.716-5.365-3.317-15.364-7.2-19.2z"/>
  <path fill="#794135" d="M295.2 187.2v1.2h15l-15-1.2z"/>
  <path fill="#d59f93" d="m266.4 192.6-.6 9.6-2.4-2.4h-.6l1.2 21h1.8l-1.8-12.6 4.8 6-2.4-21.6z"/>
  <path fill="#a5676b" d="M311.4 196.8c-2.656 5.48-6.811 5.134-11.4 8.4v1.2l9.6 9v1.2c-4.853 4.43-1.768 14.508-1.8 20.4l-15.533-3.985-7.608 4.688L276 233.4c3.929 6.638 11.316 19.099 19.2 21l.6-9.6c5.771 2.732 12.211 7.537 18.6 7.8-.01 5.424-2.15 10.495-6.6 13.8 4.106 2.705 6.035-.506 9.6-2.4 1.32-3.673 2.509-9.178.666-12.908-1.858-3.758-5.4-5.384-6.306-9.894-1.261-6.284.469-12.379.787-18.598.359-7.031-.733-14.155 1.253-21l-1.8 1.2-.6-6z"/>
  <path fill="#976f5f" d="m261.6 199.2.6 12h.6v-12h-1.2z"/>
  <path fill="#60554a" d="m317.4 200.4 1.8 1.2v1.8l-4.8 1.2v1.8c5.35 1.319 8.342-1.248 13.2-3v-1.8l-10.2 4.8 4.8-3.6v-1.2l-4.8-1.2z"/>
  <path fill="#938c88" d="m321.6 201 .6 1.8-4.8 3.6 10.2-4.8v1.8l-7.8 4.8 11.4-6.6-9.6-.6z"/>
  <path fill="#352d23" d="m261 201.6-2.4 16.8h-1.2V216c-5.26.57-13.628 6.828-15 12-24.006.024-39.707 24.791-62.4 28.8v2.4c-4.694-.178-9.406 1.408-13.2 4.2l4.2-.6-3 1.8c-.36 3.514-2.46 5.894-3.253 9.196-2.738 11.405-3.464 23.329 6.252 31.004-.998-3.336-2.518-7.224-1.21-10.691 1.758-4.661 9.359-5.911 12.61-2.509 7.892.487 16.717 2.224 16.8-8.4h2.4v4.8h3.6v1.8c2.549 1.195 3.252 2.658 3.6 5.4 7.792 6.248 7.8 19.826 7.8 28.8h.6c.457-12.401 2.442-28.116 10.633-38.065 6.136-7.452 15.59-13.61 19.367-.335 3.023.316 6.625-.491 9.479.656 3.636 1.464 3.043 5.365 5.408 7.844 3.593 3.767 19.501 7.246 11.842 16.206-2.5 2.924-9.848.653-13.529 1.692v.6c9.925.672 13.138 12.259 6 18.6l1.2-3.6-3 .6c-1.517 4.661-6.166 6.611-8.002 10.936-4.921 11.587-3.27 22.135-11.798 32.264l2.4-.6.6 3.6h-1.8v4.2l3.6.6c2.748 13.667 15.74 24.415 17.4 38.4l3-.6 12.6 33h13.8c.121-7.648 3.983-8.464 10.8-8.4v-.6c-3.593-.584-11.105-3.748-2.988-4.159 4.81-.244 9.086 1.248 13.788 1.759v-9h.6l.6 20.4h1.8l2.4-117h-.6c-1.806 8.904 2.635 21.818-3 29.4l-.6-3-26.4-1.2.6-19.2v-.6c-3.236-4.318-2.339-7.241-.6-12-3.389-1.909-4.676-4.372-2.4-7.8-1.511-5.725-4.625-9.049 1.8-12.6-4.777-2.336-11.146-9.923-1.8-10.8v-.6l-7.2-.6-.6-8.4h6.6c-1.32-3.209-5.329-3.192-8.4-3.6-.853-3.188-3.43-5.279-4.362-8.416-1.099-3.696-.548-7.686-1.577-11.383-5.621-20.198-12.658-39.244-12.66-60.6H261z"/>
  <path fill="#855d57" d="m313.8 201.6-1.217 19.2-1.184 14.4h.6c.534-4.44.456-7.943 4.8-10.2v-1.2l-1.8-.6 1.2-1.2.6-1.8-.6-1.8 12-6.6v-.6l-9 3.6v-3l-4.8.6 6-4.2-6-1.8 1.2-2.4-1.8-2.4z"/>
  <path fill="#59483e" d="M314.4 212.4c6.2-1.684 13.295-8.873 19.8-6.6l-1.2-4.2c-5.917 2.42-14.256 6.024-18.6 10.8z"/>
  <path fill="#a09196" d="m333 201.6.6 3 4.2-2.4-4.8-.6z"/>
  <path fill="#8b7c7b" d="m336.6 202.2-2.4 2.4c-.296 3.2-1.657 6.596-5.4 5.4h-.6l-1.2.6 1.2 1.2-12 7.8 17.4-8.4-1.2 3c4.3 7.075-.029 17.755.6 25.8l-4.8-2.4 3.6 4.8c6.216-.344 5.398-5.135 5.4-10.2.004-10.008 1.158-19.996 1.2-30h-1.8z"/>
  <path fill="#a58795" d="m260.4 202.8-6.6 8.4c3.204-2.039 6.457-4.295 6.6-8.4z"/>
  <path fill="#655b59" d="M330.6 204v.6l.6 2.4c2.731 1.855-.696 2.496-2.4 3v1.2c3.748-.348 4.963-2.627 6-6l-4.2-1.2z"/>
  <path fill="#856b6b" d="m260.4 204.6-.6 1.8.6-1.8z"/>
  <path fill="#8b4945" d="M274.8 204.6c-3.414 11.233-6.522 16.915 1.74 27.269 1.778 2.228 3.535 5.513 6.57 6.156 3.739.793 5.062-4.429 8.598-4.846 5.124-.604 10.95 3.215 16.092 3.82.275-7.519-2.075-14.676 1.8-21.6-6.635-1.745-18.725.203-22.8-6l-6-2.4-.6 1.8-5.4-4.2z"/>
  <path fill="#a59991" d="M318.6 211.8c4.715-1.117 9.952-3.521 13.2-7.2-4.676 1.28-9.907 3.557-13.2 7.2z"/>
  <path fill="#534842" d="M318 213.6c4.691-1.158 9.932-3.583 13.2-7.2l-13.2 7.2z"/>
  <path fill="#79574e" d="m258.6 207-11.4 12.6 12-4.8.6-7.8h-1.2z"/>
  <path fill="#a0928c" d="M319.2 214.8c3.767-1.408 12.39-3.89 13.8-7.8-4.571 1.162-10.928 3.941-13.8 7.8z"/>
  <path fill="#95899d" d="m264 208.2 1.013 16.82L268.8 243l2.4-.6c3.094 7.196 15.064 16.944 4.8 24l1.8 10.2 11.4 6v-.6c-6.804-5.808 11.564-2.62 14.4-2.4v-.6l-15.6-3c9.329-7.892 24.814 7.418 29.4-4.8-4.826.296-9.743-.797-14.411-.269-4.265.484-9.408 2.747-13.579.648-3.739-1.88-2.01-7.069-3.646-10.248-3.593-6.98-8.356-12.932-12.443-19.578-2.118-3.443-3.23-8.058-.32-11.356l-6.6-15.6 2.4 1.2-4.8-7.8z"/>
  <path fill="#baa7aa" d="M337.8 208.8v14.4h.6l3-3v-.6l-3-.6-.6-10.2z"/>
  <path fill="#64524c" d="M333 211.2c-4.807 3.713-14.467 4.57-17.4 10.2l15.6-7.2-15 9.6 18-7.2-1.8-2.4.6-3z"/>
  <path fill="#9f8377" d="m249.6 214.8 3-2.4-3 2.4z"/>
  <path fill="#917d79" d="M315 223.2c4.246-1.246 14.592-4.57 16.2-9-5.406 1.866-12.398 4.63-16.2 9z"/>
  <path fill="#b1908e" d="m248.4 214.8-7.2 6 8.4-6h-1.2z"/>
  <path fill="#63453c" d="M218.4 236.4c8.358-3.65 14.561-8.378 24-8.4 1.838-4.873 9.857-11.143 15-12v2.4h1.2v-3.6c-5.939.155-10.595 3.994-15.6 6.894-7.991 4.633-18.211 7.914-24.6 14.706z"/>
  <path fill="#766c67" d="M327.6 218.4v.6l2.4-.6-2.4 2.4 4.8-.6v.6l-3 1.2-2.4 4.8 2.4 1.2 1.8 3.6-6 5.4 1.2 3.6h-3.6l-.6 2.4 14.4 1.8v-2.4h-4.8l-3.6-3c.948-2.519 2.266-3.409 4.8-4.2l1.2-18.6-6.6 1.8z"/>
  <path fill="#956765" d="M230.4 225.6v1.2c6.647-.76 14.645-4.726 18.6-10.2l-18.6 9z"/>
  <path fill="#877161" d="m263.4 217.2.6 7.2h.6l-1.2-7.2z"/>
  <path fill="#917d79" d="M312 238.2h1.8l.6-3-1.2-1.2c5.254-2.035 11.957-4.57 15.6-9l-15 7.2 18.6-11.4v-.6l-18 7.8 15.6-9.6c-5.069 1.355-14.413 4.242-16.895 9.373-1.47 3.04-1.07 7.139-1.104 10.428z"/>
  <path fill="#3b2f2f" d="M338.4 223.2c2.15 3.646 2.622 7.967 3.748 12 2.747 9.844 5.542 19.662 4.499 30-.768 7.628-3.47 14.216-11.846 14.4v-1.8h-3c1.07 2.722 12.206 9.978 3.592 11.79-.978.206-2 .179-2.992.209v.6h4.2l3 8.4-10.8 1.2v.6c5.748 1.084 9.011 2.098 9.6 8.4h-2.4v.6h3.6v-2.4h1.2l1.2 13.2c-2.833 4.54 1.853 12.814 3.6 6h7.2v-4.2l12-.6v-2.4h3.6c.972-3.498 5.525-8.675 3.6-12l.6-9.6h1.8l1.2-9.6 5.4 1.2c-.077-9.028-5.119-17.953 7.8-18v2.4c6.682 0 20.53-3.176 26.083.87 2.352 1.714 2.992 4.937 3.917 7.53l1.8-2.4-1.474-9.6-3.23-11.964-3.095-6.035c-.061-7.044-9.535-7.468-14.4-9.202-8.202-2.922-15.899-7.511-24-10.763-5.9-2.369-12.082-3.598-17.999-5.77-4.319-1.585-14.98-8.362-18-3.066z"/>
  <path fill="#79474b" d="M268.8 220.8c.817 5.731 4.303 10.747 9.6 13.2l-7.8-13.2h-1.8z"/>
  <path fill="#64524c" d="m314.4 228 13.8-7.2c-4.945 1.307-10.103 3.623-13.8 7.2z"/>
  <path fill="#a58785" d="M343.2 221.4v.6l6 1.2-6-1.8z"/>
  <path fill="#b1908e" d="m230.4 225.6 8.4-3c-3.109-.216-6.11.901-8.4 3z"/>
  <path fill="#64524c" d="M313.8 232.2c5.36-2.561 12.517-4.768 16.2-9.6-5.102 1.874-13.286 4.807-16.2 9.6z"/>
  <path fill="#d1bfbf" d="m337.2 223.2-.6 21.6h-7.2l7.8 4.2h.6l.6-6 1.2-8.4 1.8.6-2.4-12h-1.8z"/>
  <path fill="#a09196" d="m339 223.2 1.2 7.2h.6l-1.8-7.2z"/>
  <path fill="#796955" d="M264.6 224.4v3.6h.6l-.6-3.6z"/>
  <path fill="#b18d8a" d="M220.8 229.8v.6l9.6-4.8-9.6 4.2z"/>
  <path fill="#735b59" d="M355.2 225.6v.6l7.8 1.8v-.6l-7.8-1.8z"/>
  <path fill="#876353" d="M173.4 257.4c7.494-1.253 20.388-6.67 24.6-13.2 11.952-1.764 25.154-10.724 35.4-16.8-9.757-2.093-18.264 6.412-25.423 11.11-10.547 6.922-25.273 10.183-34.577 18.89z"/>
  <path fill="#655b59" d="m313.2 234 1.2 1.2-.6 3H312v-3h-.6c.016 6.55.857 11.848 7.2 15l10.2-.6-3.6 3.6 3-.6v2.4h3c-.173-4.483 3.341-4.478 6-7.2-6.127.628-17.63 1.86-22.2-3l9.6-.6V243h-2.4l.6-2.4h3.6l-1.2-3.6 3.6-4.2-7.2 3v-.6l7.8-5.4-13.8 6 12.6-8.4-15 6.6z"/>
  <path fill="#8b7c7b" d="M315.6 235.8c5.108-.982 10.733-3.482 13.8-7.8l-13.8 7.8z"/>
  <path fill="#987c79" d="M364.8 228v.6l2.4.6v-.6l-2.4-.6z"/>
  <path fill="#8a726c" d="M367.8 229.2v.6l6.6 1.8-6.6-2.4z"/>
  <path fill="#ada7b8" d="M271.2 230.4c.001 12.614 8.255 20.484 14.279 30.932 1.694 2.939.182 8.459 3.449 10.248 4.148 2.272 9.782-.042 14.062-.547 4.718-.558 9.502.631 14.411.167v9.6c-7.644-.007-15.214-1.19-22.794-2.084-1.626-.192-6.164-1.83-7.356-.172-1.994 2.776 4.099 4.016 5.552 4.223 8.075 1.148 16.44 2.711 24.598 2.833v4.2c-6.851-.014-13.534-1.446-20.4-1.146-3.244.142-6.434.264-7.8 3.545 9.402 2.728 19.668 3 29.4 3 4.846-7.088 5.742 3.482 9.952 2.086 3.99-1.324 3.245-15.775 3.25-19.486h4.8v-.6h-8.4l-2.4 1.2-.6-6.6h-2.4l-1.2-3c4.778-.007 8.196.025 9-5.4-3.958 1.128-8.335 2.158-11.4-1.2h-1.8v1.8c-2.299.893-3.875 3.55-6.239 4.019-3.956.787-8.479-5.257-11.76-7.019l4.8 8.4-8.144-.17-8.656-8.23c-1.222-5.102-10.393-13.283-7.2-18.6l-1.8-3 1.8.6c-1.984-4.014-4.529-8.221-9-9.6z"/>
  <path fill="#978292" d="M340.8 230.4v2.4h.6l-.6-2.4z"/>
  <path fill="#958783" d="M321.6 235.2v.6c3.887-.238 6.911-2.04 9.6-4.8l-9.6 4.2z"/>
  <path fill="#876d73" d="m374.4 231.6 1.8 1.2-1.8-1.2z"/>
  <path fill="#7d6661" d="M376.2 232.8v.6l4.2.6-4.2-1.2z"/>
  <path fill="#b9b5d3" d="m341.4 233.4-1.8 1.2-1.2 8.4-.6 6c-8.723 6.244-3.01 19.752-16.2 19.8l1.2 3h2.4l.6 6.6 2.4-1.2 12 1.8.6-3 1.2 1.2h.6c7.391-12.691 4.363-30.908-1.2-43.8z"/>
  <path fill="#b696a0" d="M190.8 244.8c7.075-2.482 16.363-5.192 21.6-10.8-6.936.407-16.642 5.959-21.6 10.8z"/>
  <path fill="#59483e" d="M380.4 234.6v.6l21 8.4c-4.87-4.789-14.353-7.752-21-9z"/>
  <path fill="#8a726c" d="M382.8 234.6v.6l3.6.6-3.6-1.2z"/>
  <path fill="#5f5655" d="M328.2 236.4v1.2l4.8 2.4v-4.8l-4.8 1.2z"/>
  <path fill="#5d573d" d="m267 235.8.6 4.8h.6l-1.2-4.8z"/>
  <path fill="#897575" d="m387 235.8 6.6 3.6-6.6-3.6z"/>
  <path fill="#a7817f" d="M168 257.4v.6h5.4c3.518-3.869 9.254-5.453 13.78-7.892 3.565-1.922 6.515-4.78 10.222-6.456 4.181-1.891 10.096-3.131 12.598-7.25l-42 21z"/>
  <path fill="#694d39" d="M198 244.2c-1.722 3.308-6.017 3.617-8.844 5.728-1.859 1.387-3.292 3.692-5.569 4.378-3.227.971-10.931 1.888-11.987 5.495l-4.8 2.4 13.2-3v-2.4c10.165-1.236 19.904-8.92 28.034-14.629 3.106-2.182 6.665-2.752 9.166-5.771l-19.2 7.8z"/>
  <path fill="#a59991" d="M322.2 238.2v1.2h1.2v-1.2h-1.2z"/>
  <path fill="#dbbdcb" d="M173.4 253.2c-5.179.888-8.941 3.395-10.8 8.4h.6c8.869-10.163 24.09-10.658 31.2-22.8-5.636.308-5.816 4.294-9.866 7.13-3.817 2.674-9.386 2.48-11.134 7.27z"/>
  <path fill="#95899d" d="M343.2 238.8v2.4h.6l-.6-2.4z"/>
  <path fill="#b7afd3" d="m278.4 239.4 1.8 3c-3.264.7-.634 3.536.349 5.4 1.892 3.583 6.353 9.269 6.85 13.2 6.914 5.407 7.224 9.138 16.8 8.4-.437-4.768-3.797-7.139-7.009-10.356-6.072-6.079-11.078-15.658-18.791-19.644z"/>
  <path fill="#817474" d="M312 239.4c2.26 2.998 4.812 3.379 8.4 3l-.6-1.8 1.2 1.2h.6v-2.4l-4.2.6-.6 1.8-4.8-2.4z"/>
  <path fill="#9f8fa6" d="M343.8 241.2v2.4h.6l-.6-2.4z"/>
  <path fill="#7d6661" d="M399.6 241.8v.6l3.6 1.2v-.6l-3.6-1.2z"/>
  <path fill="#716764" d="M268.8 243c3.85 7.979 6.574 17.521 6.6 26.4h.6v-3c10.834-5.575-1.43-17.994-4.8-24l-2.4.6z"/>
  <path fill="#473a30" d="m268.8 243.6 4.8 16.8h.6c-.738-5.63-2.023-12.14-5.4-16.8z"/>
  <path fill="#9a8f99" d="M315 244.8c1.992 4.339 12.538 3.377 16.8 3.6v-.6l-9-2.4v-.6H336c-6.696-1.705-14.221-.702-21 0z"/>
  <path fill="#95837b" d="M405 244.2v.6h1.8l-1.8-.6z"/>
  <path fill="#b37c84" d="m295.8 244.8-.6 9.6h-3v.6c5.808 4.687 12.694 13.136 20.4 13.8v-.6l-4.8-1.8c4.963-2.76 6.776-8.465 6.6-13.8l-18.6-7.8z"/>
  <path fill="#b1adb7" d="M322.8 244.8v.6l8.4 1.8c-2.554-2.278-5.088-2.377-8.4-2.4z"/>
  <path fill="#7c6e6e" d="M408 245.4v.6l4.8 2.4v-.6l-4.8-2.4z"/>
  <path fill="#6f4743" d="M318.6 249v6.6l4.2-3.6 1.2 1.2h1.2l3.6-3.6-10.2-.6z"/>
  <path fill="#a09196" d="m414.199 249.4.2.4-.2-.4z"/>
  <path fill="#a79fa9" d="m330.6 252.6.6 2.4-3-1.8-1.8 1.8-1.2-.6-1.2 1.2V252l-5.4 3.6.6 6c3.122-.206 7.704.451 7.8-3.6l2.4.6-1.2-2.4h3.6l-1.2 6.6h.6l4.8-13.2-5.4 3z"/>
  <path fill="#b696a0" d="m165.6 259.2 16.8-8.4c-5.058-.538-13.775 4.464-16.8 8.4z"/>
  <path fill="#b7a597" d="m331.2 253.2 3-3c-1.976.494-2.707.946-3 3z"/>
  <path fill="#817982" d="M324 253.2v2.4l1.2-1.2 1.2.6 1.8-1.8H324z"/>
  <path fill="#c9c3d9" d="m328.2 256.2 1.2 3 2.4-3h-3.6z"/>
  <path fill="#938da3" d="M331.2 256.8 327 258c-.16 1.914-.558 2.446-2.4 3l-6-.6-.6 1.8c5.26 4.26 14.294 2.707 13.2-5.4z"/>
  <path fill="#734b5b" d="M157.8 286.8h.6l1.2-1.2 1.2 7.2h.6c-.001-10.052-3.655-29.794 10.2-33V258c-13.375.61-10.961 19.69-13.8 28.8z"/>
  <path fill="#b191ab" d="M163.8 259.8c-4.135 7.054-4.8 14.214-4.8 22.2h-.6v-1.2h-.6l-.6 19.8h.6c0-14.01 1.172-28.004 7.2-40.8h-1.2z"/>
  <path fill="#988c92" d="M419.4 259.8v3h.6l-.6-3z"/>
  <path fill="#726e88" d="M321.6 261.6v.6h3V261l-3 .6z"/>
  <path fill="#4d2d39" d="M166.2 262.8c-3.892 8.881-4.2 20.431-4.2 30l-2.4-7.2h-1.2l-.6 10.2 7.2 4.2c-2.953-7.506-2.078-17.882-.252-25.662.829-3.529 3.01-5.948 3.253-9.738l3-1.8h-4.8z"/>
  <path fill="#5f516d" d="M346.2 264.6v3h.6l-.6-3z"/>
  <path fill="#5b3955" d="M163.8 265.8c-4.876 8.093-2.401 18.044-2.4 27h.6l1.8-27z"/>
  <path fill="#93848a" d="m420.6 268.8 1.8 13.2h.6l-2.4-13.2z"/>
  <path fill="#7b6d85" d="m345.199 271.6.2.4-.2-.4z"/>
  <path fill="#2d2b23" d="m381 289.2-5.4-1.2-1.2 9.6h-1.8l-.6 9.6-3.6 12h-3.6v2.4l-12 .6v4.2h-7.2c-2.492 6.54-5.508-2.038-3.6-6v-10.2h-.6l-2.4 41.4 1.2-1.2c2.477.424 3.509.983 3 3.6h2.4v-6h2.4c.077 5.548 1.652 7.123 7.2 7.2v13.2l7.2 1.2v-4.8h2.4v-2.4c10.349-4.188 10.374-16.76 13.114-25.79 1.199-3.952 3.428-7.284 4.286-11.41h1.8v-8.4h4.8c1.214-4.883 7.076-4.993 11.4-5.4l1.2-13.8h1.8l1.2-13.8c2.202-.014 5.267-.612 7.314.352 3.946 1.86-2.286 3.737-3.714 3.848v14.4h2.4v18h2.4v-3.6h2.4v9.6h1.8l-.6 46.2 4.2.6v3h1.2c-.383-16.321-2.102-32.884-1.781-49.194.166-8.368 2.376-16.574 2.381-25.206.005-8.087.216-21.604-7.056-27.33-5.356-4.217-19.958-.87-26.543-.87v-2.4c-13.175.02-7.944 8.675-7.8 18z"/>
  <path fill="#6e6359" d="m276 271.8 4.8 10.2 15 2.4v-.6c-2.774-.088-5.741-.271-8.164-1.788-4.114-2.573-4.134-5.918-9.836-5.412l-1.8-4.8z"/>
  <path fill="#7d7381" d="M316.8 272.4c-5.282 10.295-20.749-5.221-28.8 3.6l7.2 1.2V276h-4.8v-1.8l19.2 3.6v1.2l-9-1.2v.6l16.8 2.4-.6-8.4z"/>
  <path fill="#554b55" d="M290.4 274.2v1.8l19.2 3v-1.2l-19.2-3.6z"/>
  <path fill="#716b70" d="m343.999 275.2.2.4-.2-.4z"/>
  <path fill="#8f5547" d="M237.6 276v.6h2.4l.6 6.6c-5.965.131-7.536 2.744-8.4 8.4l-6.6 1.8c-.827 4.764-3.264 9.036-3.883 13.802-.734 5.646 3.03 12.175-3.317 15.598l1.2 16.2 1.8-.6 4.2 23.4 9.409 2.34 9.791 5.461 1.2-2.4v-.6h-3.6c-2.551-6.805-4.048-13.786-2.062-20.999 1.64-5.963 8.936-11.237 3.26-17.401 1.288-2.303 7.554-5.987 2.4-7.8v-4.8c1.795-.299 1.516-4.235.949-5.831-1.892-5.338-8.286-4.457-6.95-11.569l-1.8.6c1.829-7.886 13.517-20.009-.6-22.8z"/>
  <path fill="#938c88" d="m340.8 276-.6 3-5.4-1.2c.95 4.439 7.757.944 9-1.8l-1.2 1.2h-.6l-1.2-1.2z"/>
  <path fill="#a17963" d="M217.8 325.2h.6v-2.4c6.734-2.59 2.635-10.302 3.408-15.598.696-4.77 3.166-8.958 3.792-13.802l6.6-1.8c1.166-5.302 2.65-8.173 8.4-8.4l-.6-6.6c-5.173.68-8.471 4.433-11.713 8.257-9.191 10.843-10.487 26.83-10.487 40.343z"/>
  <path fill="#726e88" d="m322.8 276.6 1.8 3.6.6-3.6h-2.4z"/>
  <path fill="#84757b" d="m331.8 280.2-1.2 10.2h.6c1.823-2.876 4.046-2.776 7.2-2.4-.252-4.646-2.386-6.268-6.6-7.8z"/>
  <path fill="#a09196" d="M423 282v3.6h.6l-.6-3.6z"/>
  <path fill="#693327" d="M246 282.6c-3.466 4.885-6.686 10.279-7.8 16.2 6.379-3.012 9.856-7.381 13.8-13.2h-4.8v-3H246z"/>
  <path fill="#857f85" d="M289.2 282.6v.6l12 1.2-12-1.8z"/>
  <path fill="#2b2513" d="M199.2 283.2c-.166 10.417-9.182 8.693-16.8 8.4-1.595-4.537-11.628-2.117-12.892 1.826-2.135 6.658 3.274 12.617 3.292 19.174-10.853 1.717-5.555 13.817-4.914 21.6.364 4.43.389 10.656 5.514 12 0 5.96-1.691 9.463-6.116 13.644-1.92 1.813-5.122 2.336-5.884 4.956l-10.2 3v1.2l25.8-1.2 1.8 6.6c8.596-10.211 21.63-16.874 30.974-26.45 2.783-2.852 7.283-5.035 8.621-8.981 2.153-6.348-1.679-13.424-1.75-19.769-.077-6.92-1.115-19.998-7.846-24-.228-2.852-.774-4.454-3.6-5.4V288h-3.6v-4.8h-2.4z"/>
  <path fill="#4b3e46" d="M338.4 283.2v4.8c-5.528-.811-8.795 3.126-1.8 3.6v-1.2h-4.2v-.6c4.697-.076 7.223-1.526 6-6.6z"/>
  <path fill="#211f13" d="m404.4 283.8-1.2 13.8h-1.8l-1.2 13.8c-4.41.258-10.554.173-11.4 5.4H384v8.4h-1.8c-1.092 3.985-3.404 7.472-4.447 11.41-2.566 9.695-3.209 20.288-12.953 25.79v2.4h-2.4v4.8l-7.2-1.2v-13.2c-5.282-.137-7.063-1.919-7.2-7.2h-2.4v6h-2.4c1.21-3.698-1.466-3.703-4.2-2.4l1.8-44.4h-1.2v2.4L327 309v4.8h.6c5.62-4.682 10.105-.016 10.2 6h-4.2c1.376 6.948 5.479 10.74-4.8 10.8 2.606 4.027 6.186 4.781 6.6 10.2h-7.2l4.8 4.2-.6-1.8 4.8-1.8c0 22.21-.6 44.412-.6 66.6 0 5.126-2.543 19.28 3 21.6l1.2 16.8h-2.4v3.6h64.8c3.016-7.663-.08-12.793-.402-20.398-.193-4.571 2.969-8.134 3.316-12.604.498-6.427-1.776-12.227-.512-18.599 12.763-1.706 17.233-13.787 15-25.2l-4.2-.6.6-46.2h-1.8v-9.6h-2.4v3.6h-2.4v-18h-2.4v-14.4c1.43-.067 8.17-1.75 4.168-3.929-2.053-1.117-5.512-.302-7.768-.271z"/>
  <path fill="#52495a" d="M289.2 283.8c.569 2.656 3.191 1.565 5.4 1.933 5.834.972 11.44 2.267 17.4 2.267v-1.8l-22.8-2.4z"/>
  <path fill="#706878" d="M296.4 284.4v.6l15.6 1.2v1.8h-4.8v.6h10.2v-3l-21-1.2z"/>
  <path fill="#9b5d4f" d="m244.2 296.4 3-3.6 7.2-6.6c-5.065-.029-8.036 6.377-10.2 10.2z"/>
  <path fill="#a76f6d" d="M247.2 292.8c-1.652 2.906-3.984 3.762-7.2 4.2 0 1.646-1.612 4.914-.6 6.6 1.576 2.627 6.677 3.752 7.8 6 1.118 2.238-.032 6.292-1.2 6v4.8c2.759 2.978-.848 5.089-2.4 7.8 4.732 6.658-1.212 10.021-3.091 16.206-2.188 7.196-1.328 15.484 1.892 22.194 8.209-.758 9.686-17.702 10.584-24.6.515-3.949-.336-7.646 3.816-9.6v-.6h-6.6l7.8-10.8c-5.641-.43-8.221-3.546-9-9h1.8v-2.4l4.8 1.8c4.285-6.396 13.67-1.842 19.8-1.8-.013-4.451-.12-8.696-4.297-11.326-2.894-1.822-6.641-2.004-9.049-4.626-2.146-2.338-2.321-7.669-6.424-7.511-3.887.151-5.797 4.471-8.431 6.664z"/>
  <path fill="#8b8587" d="M282.6 285.6v2.4c2.417.788 3.368 1.806 4.2 4.2l-3-1.8h-.6v3l7.8-.6v-.6c-4.658-5.875 10.501-4.8 13.2-4.8l-21.6-1.8z"/>
  <path fill="#a09b99" d="M283.2 287.4c-.06 2.809.974 3.931 3.6 4.8l-3.6-4.8z"/>
  <path fill="#98929e" d="M288.6 290.4c9.486-3.365 19.075-.608 28.8-.6v-1.2c-7.574-.001-23.466-4.939-28.8 1.8z"/>
  <path fill="#773135" d="M259.8 288v2.4h.6l-.6-2.4z"/>
  <path fill="#7c6e6e" d="M423.6 289.2V309h.6l-.6-19.8z"/>
  <path fill="#8b7c7b" d="m331.2 291-1.8 7.2c2.886-.409 5.392-1.466 7.8.6 3.985-4.644-2.144-7.07-6-7.8z"/>
  <path fill="#988c92" d="m320.4 291.6-1.8 3.6h-4.2v.6l5.4.6-3 3.6v.6l4.8 1.2-1.2-10.2z"/>
  <path fill="#84757b" d="M321 291.6v3.6h.6v-2.4l3 1.2c-3.008 11.672-.505 26.303-.605 38.4-.172 20.85-2.742 41.615-.594 62.4h.6l2.021-42.6-.821-47.4h.6v2.4h.6v-7.8h3v-1.2l-8.4-6.6z"/>
  <path fill="#52453f" d="m337.2 292.2 1.2 6.6c2.075-2.095 1.403-5.406-1.2-6.6z"/>
  <path fill="#47414e" d="M283.2 293.4v.6l7.2.6v.6c-3.896.216-5.132 1.518-5.4 5.4h.6v-3c8.984-1.374 16.285.457 25.2.606 3.26.055 7.346 1.795 9-1.806-11.429-2.318-24.943-3.425-36.6-3z"/>
  <path fill="#4b3e46" d="m321.6 292.8.6 40.8 1.2-.6v5.4h.6c0-14.166-2.328-30.581.6-44.4l-3-1.2z"/>
  <path fill="#887f90" d="M295.8 293.4v.6h4.8l-4.8-.6z"/>
  <path fill="#79574e" d="m162.6 307.2.6-2.4h.6l-1.2 4.8c13.938 2.819 4.633-10.496-2.25-13.302-2.374-.967-2.51 2.897-2.412 4.282.232 3.197 1.885 5.234 4.662 6.62z"/>
  <path fill="#706878" d="M304.8 295.2v.6h9.6l-9.6-.6z"/>
  <path fill="#64606c" d="M288 296.4v.6h13.2l-13.2-.6z"/>
  <path fill="#98929e" d="M285.6 297.6c.308 7.739 8.244 6.552 14.4 6.6v-.6c-3.51-.516-5.863-1.057-7.8-4.2 7.038-1.975 15.097.055 22.2 1.2-.671-3.134-5.273-1.447-7.783-1.867-7.312-1.222-13.412-1.932-21.017-1.134z"/>
  <path fill="#5b4c51" d="M326.4 299.4v22.8h.6c.302-3.93-.833-10.138 1.8-13.2v-.6l-1.2-6 9 .6-.6 1.8 1.8 1.8h.6c-1.303-4.883-5.035-5.354-9.6-6v-.6l8.4-1.2V297l-10.8 2.4z"/>
  <path fill="#afa3b5" d="M292.2 299.4c4.782 10.152 20.43.948 26.906 7.823 2.528 2.683-3.535 2.653-4.709 2.474-8.7-1.324-17.61-1.297-26.398-1.297v6c8.256.001 16.39 1.306 24.6 1.964 3.878.311 7.357.367 8.4 4.637-8.035-.042-15.91-1.921-24-1.788-1.934.031-7.847.05-7.1 3.424.622 2.81 5.598 2.522 7.7 2.552 8.064.118 16.086 1.387 24 3.011l.6-26.4c-7.776-2.72-22.123-5.014-30-2.4z"/>
  <path fill="#706878" d="M304.8 298.2v.6l13.8 1.2v-1.2l-13.8-.6z"/>
  <path fill="#63453c" d="M163.8 300c5.183 4.987 9.902 11.598-1.2 9.6l1.2-4.8h-.6l-.6 2.4-3.6-2.4c.31 7.956 4.686 14.8 6.641 22.259 2.202 8.404.832 16.232 6.559 23.341-2.386 2.471-3.122 6.032-6.673 7.25-6.199 2.126-12.048-1.781-17.699 2.983-2.411 2.03-3.236 6.073-4.066 8.968-2.636 9.215-1.562 19.288-1.562 28.8h1.2l3.6-7.2c-3.55 11.681-8.371 21.253-4.8 33.6l6 6.6h.6c-1.524-4.182-4.402-8.154-5.051-12.6-1.558-10.679 6.088-30.119 17.651-31.8l10.8-7.8.748-7.7-6.748-1.028-21 1.528c.587-14.624 14.119-8.713 22.565-13.43 4.862-2.717 5.617-7.3 5.635-12.37-6.973-2.678-5.933-15.971-6.712-22.2-.304-2.42-1.226-5.722-.013-8.006 1.17-2.202 3.893-2.894 6.125-3.394-.109-6.164-2.916-10.631-9-12.6z"/>
  <path fill="#817474" d="M327.6 302.4v6l10.8.6-2.4-4.2.6-1.8-9-.6z"/>
  <path fill="#52495a" d="M286.2 303.6v.6l6 1.8-4.2 1.2v.6l33 1.8c-1.541-4.049-5.22-3.588-9-3.601-8.736-.03-17.144-2.388-25.8-2.399z"/>
  <path fill="#64606c" d="M294 304.2v.6l15.6 1.2v-1.2l-15.6-.6z"/>
  <path fill="#9a8f99" d="m325.2 304.8-.6 24h1.2c.061-7.711 2.243-16.601-.6-24z"/>
  <path fill="#847d7c" d="M287.4 307.8v5.4h.6v-4.8l22.8.6c-7.082-2.489-16.032-1.769-23.4-1.2z"/>
  <path fill="#653036" d="m255.6 312 11.4 3-6.6-2.4v-.6c4.063-.949 12.479 1.783 14.4-2.4-5.46-.163-16.693-5.075-19.2 2.4z"/>
  <path fill="#9d8d89" d="M423.6 309v10.2h.6l-.6-10.2z"/>
  <path fill="#b37c84" d="M250.8 309.6v2.4H249c.572 5.776 3.08 8.731 9 9l-7.8 10.8c7.376-.017 11.641-2.305 12.6-10.2h6.6c-.461-8.579-11.837-9.666-18.6-12z"/>
  <path fill="#7c6d79" d="M314.4 309.6v.6h6l-6-.6z"/>
  <path fill="#7c6e6e" d="M328.2 312v.6c3.144.541 4.652 1.648 5.4 4.8l-6 .6v.6l9.6 1.2c-.109-6.132-2.62-8.975-9-7.8z"/>
  <path fill="#93848a" d="M327.6 312.6v5.4l6-.6c-.571-3.683-2.447-4.56-6-4.8z"/>
  <path fill="#52453f" d="m336.6 312.6.6 7.2h.6l-1.2-7.2z"/>
  <path fill="#817982" d="M289.2 314.4v.6l13.2.6-13.2-1.2z"/>
  <path fill="#433d45" d="M289.8 315c1.691 3.722 5.464 2.904 9 3.054 7.456.318 14.705 2.24 22.2 2.346-1.091-4.199-4.76-3.481-8.4-3.682-7.628-.42-15.151-1.711-22.8-1.718z"/>
  <path fill="#978292" d="m161.4 315.6-.6 8.4h.6v-8.4z"/>
  <path fill="#7f595b" d="M162 316.2c-.109 15.062-10.963 29.31-14.4 43.8 2.537-.414 4.632-2.086 7.231-2.195 4.252-.178 8.834 1.762 12.767-.898 2.17-1.466 3.058-4.464 4.603-6.508-4.908-7.382-4.574-14.335-6.302-22.764-.798-3.893-2.837-7.552-3.898-11.436z"/>
  <path fill="#3b2f2f" d="m327 318.6-.6 11.4h.6l2.012-6.77 4.589-3.43h2.4l-9-1.2z"/>
  <path fill="#99616d" d="M269.4 319.2v2.4h-6.6l-3.6 9.6c3.152-.749 4.26-2.255 4.8-5.4l5.4 1.2v-7.8z"/>
  <path fill="#a0928c" d="M423 319.2v13.2h.6l-.6-13.2z"/>
  <path fill="#52453f" d="M325.8 322.2V342l.757 8.509 4.643 1.691v-.6c-3.212-1.511-3.515-3.872-3.6-7.2h4.2v-.6l-4.8-.6v3.6h-.6v-15.6h1.2v2.4h.6c1.8-3.068 4.516-2.974 7.8-3v-.6l-8.4-.6v-4.2h-.6v4.8h-.6l-.6-7.8z"/>
  <path fill="#766c67" d="M328.2 322.8v.6l4.8-.6.6 6.6v.6h2.4c-.908-4.912-2.201-8.178-7.8-7.2z"/>
  <path fill="#8b7c7b" d="M327.6 323.4v6h7.2l-1.8-6.6-5.4.6z"/>
  <path fill="#473a30" d="m334.8 324 2.4 6-2.4-6z"/>
  <path fill="#7d7381" d="M291 325.8v.6l25.8 1.2c-8.244-2.48-17.298-1.8-25.8-1.8z"/>
  <path fill="#47414e" d="m292.8 326.4-1.2 3c8.998-1.422 20.338.612 29.4 1.8v-3.6l-28.2-1.2z"/>
  <path fill="#716764" d="m321.6 326.4-.6 4.8-6.6-.6v.6l7.2.6V354h-.6l-3-.6 1.8 9c2.73-2.836 2.398-6.487 2.4-10.2.005-8.166 1.42-17.863-.6-25.8z"/>
  <path fill="#857f85" d="M291 329.4v.6h11.4l-11.4-.6z"/>
  <path fill="#895055" d="M262.8 330c-4.327 1.762-8.881 1.771-9.6 7.2 2.508-1.336 9.149-4.39 9.6-7.2z"/>
  <path fill="#ada7b8" d="M291 330v5.4c10.234.005 20.958 1.253 30.6 4.8v-8.4L291 330z"/>
  <path fill="#3b2f2f" d="M326.4 331.2v15.6h.6l1.2-6h7.2V336h-.6v4.2c-4.585-.101-9.78-3.294-3.6-6.6v-.6l-2.4-1.8h-.6v2.4h-.6v-2.4h-1.2z"/>
  <path fill="#857973" d="M334.8 340.2c-.046-1.169-.022-2.39-.372-3.521-2.188-7.056-10.876 2.16-3.204 3.366 1.175.185 2.392.142 3.575.156z"/>
  <path fill="#471b1b" d="M246 369.6c10.855-5.993 5.321-24.274 12.6-33-4.38.338-5.063 4.175-6.166 7.8-2.533 8.323-3.859 16.876-6.434 25.2z"/>
  <path fill="#433d45" d="M292.2 336v3.6c6.395 0 13.452-.256 19.765.721 3.306.511 7.069 3.563 9.035-.721l-28.8-3.6z"/>
  <path fill="#795f53" d="m198.6 368.4 7.349-7.765L220.8 345.6l3.6 11.4h.6l-3.6-18.6c-10.807 6.764-22.772 16.694-22.8 30z"/>
  <path fill="#716b70" d="m292.2 340.8 10.2-.6c-3.2-.814-7.304-1.208-10.2.6z"/>
  <path fill="#988c92" d="M300 346.8v-.6c-3.949-.062-6.541-.497-7.2-4.8l9.6-.6c-9.457-2.406-13.571 5.959-2.4 6z"/>
  <path fill="#5c5460" d="M302.4 340.2v.6l12 .6v-1.2h-12z"/>
  <path fill="#534d47" d="M291.6 340.8v4.8h.6l-.6-4.8z"/>
  <path fill="#a79fa9" d="M292.8 341.4c.815 8.555 19.904 7.048 26.4 7.2-.326-10.727-18.75-8.202-26.4-7.2z"/>
  <path fill="#877b85" d="m320.4 340.8-3.6 1.2v.6l2.4 6h-3v.6c3.146.48 4.32 1.654 4.8 4.8h.6v-13.2h-1.2z"/>
  <path fill="#191301" d="m332.4 343.2.6 7.8-6.6 1.2 3.6 2.4 1.2 6.6c-4.466 2.376-1.993 6.559-2.4 10.8h-2.4c3.659 25.238-.6 52.49-.6 78h12.6v-3.6h2.4l-1.2-16.8c-5.538-3.251-3-16.532-3-22.2 0-21.983.6-43.992.6-66l-4.8 1.8z"/>
  <path fill="#514b31" d="m211.2 346.8 4.2-3.6-4.2 3.6z"/>
  <path fill="#7e7067" d="M327.6 344.4c.059 4.25.569 7.024 5.4 6.6.35-4.418-.883-6.29-5.4-6.6z"/>
  <path fill="#564330" d="m198.6 368.4.6-10.8c-9.936 3.797-17.272 15.09-23.135 23.233-3.03 4.208-6.542 6.808-7.465 12.167h4.8c6.65-10.576 11.687-21.437 23.4-27.6l-4.2 16.8h.6c7.206-12.768 15.936-24.578 28.2-33v2.4h.6l-1.2-6-22.2 22.8z"/>
  <path fill="#494547" d="M292.8 346.8v.6l.6 4.2 21.6.6v-.6l-1.8-1.2h7.2v2.4c.286-3.496-3.158-3.929-6.002-4.406-6.845-1.148-14.653-1.578-21.598-1.594z"/>
  <path fill="#1f1b03" d="m220.2 349.2-20.303 21.164L189.6 390l3.6-20.4c-7.943 3.719-15.856 15.713-19.8 23.4h-4.8l4.2-10.2c-3.941.419-6.595 2.682-10.042 4.422-11.64 5.875-21.907 18.514-18.92 32.778 1.361 6.499 5.629 12.172 10.04 16.883 2.9 3.096 5.429 6.067 9.288 8.028 7.004 3.56 13.794.26 20.875 1.907 2.316.539 3.964 2.435 6.314 2.921 9.424 1.946 20.822.26 30.443.26h61.8l-12.6-33-3 .6c-1.178-13.879-13.738-25.165-17.4-38.4l-3.6-.6v-4.2h1.8l-.6-3.6-7.2 3c-4.328 8.244-1.8 18.571-1.8 27.6-5.185-.28-6.613-2.791-6.268-7.799.191-2.77.202-7.063-3.751-6.677-1.705.167-3.394 1.276-4.981 1.876-1.378-13.331 2.134-26.969-1.8-39.6h-1.2z"/>
  <path fill="#33291f" d="M313.2 350.4c1.524 2.64 4.362 2.965 7.2 3v-3h-7.2z"/>
  <path fill="#716b70" d="M295.2 351v.6h12.6l-12.6-.6z"/>
  <path fill="#a19a9e" d="M293.4 351.6v6l24 1.8V354l-24-2.4z"/>
  <path fill="#817474" d="M312 352.2v.6l5.4 1.2v5.4H312v.6h6c-.038-4.846-.857-7.192-6-7.8z"/>
  <path fill="#675d55" d="m325.8 352.8-1.8 42h-.6l-.6-12h-.6l-.611 25.2-.589 42h4.2v-73.2h.6l1.8 3.6-1.2-8.4h2.4c.587-4.212-1.526-8.026 2.4-10.8l-1.2-6.6-4.2-1.8z"/>
  <path fill="#653725" d="M223.8 355.8c-.018 7.579-3.259 15.277-1.008 22.786 1.387 4.625 6.016 7.136 10.008 3.616l3 .6 3.344-8.705 8.056-8.095-2.4 3.6-9.277-5.461-9.922-2.34-1.8-6z"/>
  <path fill="#857f85" d="M294.6 357v.6h10.2l-10.2-.6z"/>
  <path fill="#696165" d="M292.8 357.6v.6l18 1.2v-1.2l-18-.6z"/>
  <path fill="#675d55" d="M322.8 357.6v9.6h.6l-.6-9.6z"/>
  <path fill="#47292b" d="m145.2 372 10.747-.293 9.653-1.507v-.6l-14.4-.6v-1.2l10.2-3 7.2-6c-8.968 1.949-23.903-.264-23.4 13.2z"/>
  <path fill="#a297a9" d="M294 360.6v6.6l18 1.2.6-4.8-18.6-3z"/>
  <path fill="#534d47" d="M293.4 361.2v5.4h.6l-.6-5.4z"/>
  <path fill="#5c5460" d="M302.4 361.2v.6l8.4.6-8.4-1.2z"/>
  <path fill="#513f4b" d="M310.8 362.4v.6l9 1.2-9-1.8z"/>
  <path fill="#7c6d79" d="M312 368.4h-4.8v.6l12.6.6.6-5.4c-3.899.128-7.666-.396-8.4 4.2z"/>
  <path fill="#372d15" d="m177.6 385.2 15.6-15.6c-.445 7.343-5.574 12.769-3.6 20.4 4.657-3.269 6.54-10.388 8.4-15.6h-.6l-4.2 7.8h-.6l4.2-16.8c-7.596 3.023-16.456 12.04-19.2 19.8z"/>
  <path fill="#655b59" d="M294 367.2v.6h6l-6-.6z"/>
  <path fill="#472b13" d="M159 370.2v.6c3.269-.006 13.164-2.353 14.29 1.975.517 1.991-.732 4.46-1.088 6.425-3.92 1.018-8.699 4.313-10.8 7.8-5.702.548-9.476 3.613-11.4 9 6.623-4.813 14.378-11.831 22.8-13.2l-1.2 3.6h.6l10.2-15-3.6 3-1.8-6.6-18 2.4z"/>
  <path fill="#60554a" d="M300 367.8v.6l13.8 1.2-13.8-1.8z"/>
  <path fill="#978292" d="m143.4 369-.6 3h.6v-3z"/>
  <path fill="#49412d" d="m235.8 382.8-3-.6c-4.265 2.894-8.125 1.151-9.6-3.6h-.6l.6 10.2c1.822-.508 4.05-1.988 5.975-1.604 4.832.964 1.742 8.458 2.972 11.596 1 2.55 3.726 2.539 6.053 2.61 0-9.458-1.836-18.702 1.8-27.6l4.8-3c-6.178 1.88-8.17 5.831-9 12z"/>
  <path fill="#534842" d="M294 370.8v.6l25.2 2.4-25.2-3z"/>
  <path fill="#766c67" d="M294 371.4v5.4h.6V372h7.8l-8.4-.6z"/>
  <path fill="#a19a9e" d="M294.6 372v5.4c4.372 0 12.371 1.757 13.8-3.6l-13.8-1.8z"/>
  <path fill="#817474" d="m304.8 372 3.6 1.8c-1.141 2.923-3.018 3.4-6 3.6 3.877.986 10.346 2.3 14.292 1.998 2.129-.163 3.634-2.441 2.111-4.302-1.876-2.293-10.914-2.425-14.003-3.095z"/>
  <path fill="#877183" d="M141.6 375.6v27.6h.6l-.6-27.6z"/>
  <path fill="#52453f" d="m325.2 376.8.6 43.8h.6c0-13.262-1.188-27.116 1.2-40.2l-2.4-3.6z"/>
  <path fill="#696165" d="M294.6 377.4v.6l18 .6-18-1.2z"/>
  <path fill="#53494b" d="M296.4 378v1.2l19.2.6-19.2-1.8z"/>
  <path fill="#625e61" d="M295.2 381v.6h7.2l-7.2-.6z"/>
  <path fill="#716b70" d="M294.6 381.6v4.8h.6l-.6-4.8z"/>
  <path fill="#847d7c" d="M295.2 381.6v1.2c3.505.028 6.412-.047 7.8 3.6h-7.8v.6h14.4v-1.2l-3-.6c-2.383-4.183-7.136-3.596-11.4-3.6z"/>
  <path fill="#9a8f99" d="M295.2 382.8v3.6h7.8c-1.025-3.944-4.29-3.588-7.8-3.6z"/>
  <path fill="#766c67" d="m306 382.8.6 2.4 3 .6v1.2l-4.8.6v1.2l14.4.6v-6l-13.2-.6z"/>
  <path fill="#5d573d" d="M211.2 384.6c-6.785 3.6 4.648 8.879 1.576 2.471-.413-.862-1.054-1.684-1.576-2.471z"/>
  <path fill="#33291f" d="M326.4 385.2V411h.6l-.6-25.8z"/>
  <path fill="#7b6d85" d="m420.6 387.6-3 4.8 4.2-4.8h-1.2z"/>
  <path fill="#8b856d" d="M204 388.2c.02 4.184-.182 8.371 4.2 10.2-.002-4.298.497-8.519-4.2-10.2z"/>
  <path fill="#514b31" d="M203.4 388.8v4.8h.6l-.6-4.8z"/>
  <path fill="#9f997f" d="M205.2 389.4v6h2.4l-2.4-6z"/>
  <path fill="#534842" d="M312 389.4v.6h7.2l-7.2-.6z"/>
  <path fill="#534d47" d="M295.2 390v1.2l12 1.2-12-2.4z"/>
  <path fill="#644e5f" d="M141.6 405.6h.6l4.8-14.4c-4.45 2.73-4.894 9.649-5.4 14.4z"/>
  <path fill="#7e7067" d="M295.2 391.2v5.4l24 3c-.337-8.471-16.931-8.129-24-8.4z"/>
  <path fill="#514b31" d="M208.2 392.4v6l-2.4-.6 3 3.6-.6-9z"/>
  <path fill="#52453f" d="M307.2 392.4v.6l11.4 1.8h.6v-2.4h-12z"/>
  <path fill="#494547" d="m405.6 399.6 8.4-3.6-8.4 3.6z"/>
  <path fill="#60554a" d="M302.4 406.8v-.6c-3.174-.293-4.758-1.217-6-4.2l10.8.6v-1.2c-2.801-.103-6.61-1.188-9.271-.1-5.789 2.368 2 5.461 4.47 5.5z"/>
  <path fill="#7c6e6e" d="M296.4 402c2.026 6.814 21.695 10.309 22.2 1.2l-22.2-1.2z"/>
  <path fill="#756177" d="M141 406.2c-1.112 5.682-2.632 12.479 1.2 17.4l-1.2-17.4z"/>
  <path fill="#60554a" d="M309.6 415.8v-.6l-.6-2.4c-3.182-.98-6.638-2.39-10.045-1.8-1.982.343-3.703 2.771-1.819 4.426 2.495 2.192 9.338.388 12.464.374z"/>
  <path fill="#6e6359" d="M310.198 413.105c-3.162 2.38 4.754 5.45 7.075 3.517 3.911-3.256-4.565-5.406-7.075-3.517z"/>
  <path fill="#8f7f98" d="M139.2 412.8v7.8h.6l-.6-7.8z"/>
  <path fill="#433d45" d="m406.2 412.8-3.472 15.611L405 446.4h.6l-.6-24h1.8l-.6-9.6z"/>
  <path fill="#766c67" d="M317.4 426.6v-4.8c-4.9-.156-16.079-5.448-20.075-1.115-2.141 2.32.698 3.826 2.73 4.096 5.7.755 11.603 1.602 17.345 1.819z"/>
  <path fill="#8f7f98" d="M139.8 420.6c1.55 6.425 5.204 8.515 9.035 13.367 3.744 4.742 5.846 9.236 11.366 12.433l-20.4-25.8z"/>
  <path fill="#675d55" d="M295.8 429v6.6l21-1.8c-2.351-5.884-15.576-4.757-21-4.8z"/>
  <path fill="#766c67" d="M296.4 429.6v4.8l10.8-1.2-10.8-3.6z"/>
  <path fill="#60554a" d="M318 429.6v9l-13.79-1.778-4.378 1.46 4.321 2.456 13.247 3.263v6h1.8c0-6.194 1.535-14.728-1.2-20.4z"/>
  <path fill="#52453f" d="M325.2 429.6V450h.6l-.6-20.4z"/>
  <path fill="#52495a" d="m153.6 436.2 3.6 4.8-3.6-4.8z"/>
  <path fill="#625e61" d="m406.2 436.8-3 13.2c5.303-1.763 4.812-8.875 3-13.2z"/>
  <path fill="#49453b" d="M354.6 438.6c-.648 2.455-.785 4.376 1.8 5.4l-.6-5.4h-1.2z"/>
  <path fill="#644e5f" d="M157.2 441c4.897 8.419 17.242 9 25.8 9v-1.2c-10.034-.001-17.298-2.518-25.8-7.8z"/>
  <path fill="#191301" d="M296.4 450h6.6l.6-4.8c3.026.7 4.484 2.13 6 4.8h7.8v-6c-8.598-.228-20.892-7.692-21 6z"/>
  <path fill="#7b6d85" d="M157.8 443.4c3.547 4.274 8.908 6.466 14.4 6.6l-14.4-6.6z"/>
  <path fill="#52453f" d="m303.6 445.2-.6 4.8h6.6c-1.267-2.989-2.773-4.313-6-4.8z"/>
  <path fill="#4b3e46" d="M168 447v.6l20.4 2.4c-3.905-5.834-14.233-3-20.4-3z"/>
</svg>
