<?xml version="1.0" encoding="UTF-8"?>
<svg id="svg1" xmlns="http://www.w3.org/2000/svg" viewBox="0 0 450 450">
    <style>
        #svg1 line,
        #svg1 circle,
        #svg1 polygon {
            stroke-miterlimit: 10;
            stroke-width: 2.82;
            fill: none;
            stroke: currentColor;
        }
    </style>
    <line x1="102.79" y1="436.68" x2="225" y2="225" />
    <line x1="-19.43" y1="225" x2="225" y2="225" />
    <circle cx="225" cy="225" r="225" />
    <polygon points="102.79 436.68 -19.43 225 102.79 13.32 347.21 13.32 469.43 225 347.21 436.68 102.79 436.68" />
    <line x1="102.79" y1="13.32" x2="225" y2="225" />
    <polygon points="42.02 330.25 225 13.32 407.98 330.25 42.02 330.25" />
    <polygon points="408.09 119.55 225 436.68 41.91 119.55 408.09 119.55" />
    <line x1="225" y1="225" x2="225" y2="13.32" />
    <line x1="42.02" y1="330.25" x2="225" y2="225" />
    <line x1="407.98" y1="330.25" x2="225" y2="225" />
    <circle cx="225" cy="225" r="105.45" />
    <circle cx="225" cy="225" r="78.05" transform="translate(-93.2 225) rotate(-45)" />
    <polygon points="225 13.32 41.91 119.55 42.02 330.25 225 436.68 407.98 330.25 408.09 119.55 225 13.32" />
    <line x1="225" y1="225" x2="408.09" y2="119.55" />
    <line x1="225" y1="436.68" x2="225" y2="225" />
    <line x1="41.91" y1="119.55" x2="225" y2="225" />
    <line x1="347.21" y1="436.68" x2="225" y2="225" />
    <line x1="347.21" y1="13.71" x2="225" y2="225.39" />
    <line x1="469.43" y1="225.39" x2="225" y2="225.39" />
</svg>