<?xml version="1.0" encoding="UTF-8"?>
<svg id="svg10" xmlns="http://www.w3.org/2000/svg" viewBox="0 0 450 450">
    <style>
        #svg10 path,
        #svg10 rect,
        #svg10 polygon {
            fill: currentColor;
        }

        #svg10 .rects-left rect {
            x: 26.65;
            width: 22.44px;
            height: 1.82px;
        }

        #svg10 .rects-right rect {
            x: 400.91;
            width: 22.44px;
            height: 1.82px;
        }
    </style>
    <g id="g">
        <path
            d="M473.23,253.24c-15.61,0-28.31-12.7-28.31-28.31s12.7-28.31,28.31-28.31,28.31,12.7,28.31,28.31-12.7,28.31-28.31,28.31Zm0-54.45c-14.42,0-26.15,11.73-26.15,26.15s11.73,26.15,26.15,26.15,26.15-11.73,26.15-26.15-11.73-26.15-26.15-26.15Z" />
    </g>
    <g id="j">
        <g>
            <path
                d="M225,429.85l-.45-.26L48.18,327.77V123.59l.45-.26L225,21.51l.45,.26,176.36,101.82v204.17l-.45,.26-176.36,101.82ZM50,326.72l175,101.04,175-101.04V124.64L225,23.61,50,124.64v202.07Z" />
            <path
                d="M225,420.72L56.09,323.2V128.16L225,30.64l168.91,97.52v195.04l-168.91,97.52ZM61.4,320.13l163.6,94.46,163.6-94.46V131.23L225,36.77,61.4,131.23v188.91Z" />
            <path
                d="M220.68,221.05L123.88,124.24l.2-1.44,96.8-53.9,1.35,.79V220.4l-1.55,.64ZM126.02,123.81l94.4,94.4V71.25l-94.4,52.56Z" />
            <path
                d="M228.16,221.05l-1.55-.64V69.7l1.35-.79,96.8,53.9,.2,1.44-96.8,96.8Zm.27-149.79V218.21l94.4-94.4-94.4-52.56Z" />
            <path
                d="M220.88,380.27l-96.8-53.9-.2-1.44,96.8-96.8,1.55,.64v150.7l-1.35,.79Zm-94.87-54.9l94.4,52.56V230.98l-94.4,94.4Z" />
            <path
                d="M227.95,380.27l-1.35-.79V228.78l1.55-.64,96.8,96.8-.2,1.44-96.8,53.9Zm.47-149.3v146.96l94.4-52.56-94.4-94.4Z" />
            <path
                d="M120.92,320.59l-1.55-.64,.11-191.52,1.55-.64,95.71,95.7v1.28l-95.82,95.82Zm.38-189.97l-.11,187.13,93.62-93.62-93.51-93.51Z" />
            <path
                d="M113.96,320.41l-55.44-95.82v-.91l55.37-95.7,1.69,.45,.07,191.52-1.7,.45Zm-53.6-96.27l53.48,92.43-.06-184.75-53.42,92.32Z" />
            <path
                d="M335.44,320.41l-1.69-.45,.07-191.52,1.69-.45,55.37,95.7v.91l-55.44,95.82Zm.19-188.59l-.06,184.75,53.48-92.43-53.42-92.32Z" />
            <path
                d="M328.77,320.59l-95.82-95.82v-1.28l95.7-95.7,1.55,.64,.11,191.52-1.55,.64Zm-93.89-96.46l93.62,93.62-.11-187.13-93.51,93.51Z" />
            <path d="M59.53,213.42l-1.69-.46v-83.27l.91-.91h48.55l.79,1.36-48.55,83.27Zm.12-82.82v79l46.06-79H59.65Z" />
            <path
                d="M390.47,213.42l-48.55-83.27,.79-1.36h48.55l.91,.91v83.27l-1.69,.46Zm-46.18-82.82l46.06,79v-79h-46.06Z" />
            <path
                d="M107.3,322.49H58.75l-.91-.91v-83.27l1.69-.46,48.55,83.27-.79,1.37Zm-47.64-1.82h46.06l-46.06-79v79Z" />
            <path
                d="M391.25,322.49h-48.55l-.79-1.37,48.55-83.27,1.69,.46v83.27l-.91,.91Zm-46.97-1.82h46.06v-79l-46.06,79Z" />
            <polygon
                points="222.23 416.97 220.42 416.97 220.42 388.39 114.51 328.13 68.36 328.13 68.36 326.31 114.75 326.31 115.2 326.43 221.77 387.07 222.23 387.86 222.23 416.97" />
            <polygon
                points="228.42 416.97 226.61 416.97 226.61 387.86 227.06 387.07 333.64 326.43 334.09 326.31 380.47 326.31 380.47 328.13 334.33 328.13 228.42 388.39 228.42 416.97" />
            <polygon
                points="380.47 124.37 334.09 124.37 333.64 124.25 227.06 63.61 226.61 62.82 226.61 33.71 228.42 33.71 228.42 62.29 334.33 122.55 380.47 122.55 380.47 124.37" />
            <polygon
                points="114.75 124.37 68.36 124.37 68.36 122.55 114.51 122.55 220.42 62.29 220.42 33.71 222.23 33.71 222.23 62.82 221.77 63.61 115.2 124.25 114.75 124.37" />
            <g class="rects-left">
                <rect y="123.21" />
                <rect y="135.11" />
                <rect y="147" />
                <rect y="158.9" />
                <rect y="170.8" />
                <rect y="182.69" />
                <rect y="194.59" />
                <rect y="206.48" />
                <rect y="218.38" />
                <rect y="230.28" />
                <rect y="242.17" />
                <rect y="254.07" />
                <rect y="265.97" />
                <rect y="277.86" />
                <rect y="289.76" />
                <rect y="301.65" />
                <rect y="313.55" />
                <rect y="325.45" />
            </g>
            <g class="rects-right">
                <rect y="123.21" />
                <rect y="135.11" />
                <rect y="147" />
                <rect y="158.9" />
                <rect y="170.8" />
                <rect y="182.69" />
                <rect y="194.59" />
                <rect y="206.48" />
                <rect y="218.38" />
                <rect y="230.28" />
                <rect y="242.17" />
                <rect y="254.07" />
                <rect y="265.97" />
                <rect y="277.86" />
                <rect y="289.76" />
                <rect y="301.65" />
                <rect y="313.55" />
                <rect y="325.45" />
            </g>
            <rect x="224.09" width="1.82" height="22.56" />
            <rect x="224.09" y="427.44" width="1.82" height="22.56" />
            <path
                d="M133.4,62.33c0,2.45-1.99,4.44-4.44,4.44s-4.44-1.99-4.44-4.44,1.99-4.44,4.44-4.44,4.44,1.99,4.44,4.44Z" />
            <path
                d="M324.32,62.33c0,2.45-1.99,4.44-4.44,4.44s-4.44-1.99-4.44-4.44,1.99-4.44,4.44-4.44,4.44,1.99,4.44,4.44Z" />
            <path
                d="M133.4,385.44c0,2.45-1.99,4.44-4.44,4.44s-4.44-1.98-4.44-4.44,1.99-4.44,4.44-4.44,4.44,1.98,4.44,4.44Z" />
            <path
                d="M324.32,385.44c0,2.45-1.99,4.44-4.44,4.44s-4.44-1.98-4.44-4.44,1.99-4.44,4.44-4.44,4.44,1.98,4.44,4.44Z" />
            <path
                d="M185.3,168.56c-20.36,0-36.93-16.57-36.93-36.93s16.57-36.94,36.93-36.94,36.94,16.57,36.94,36.94-16.57,36.93-36.94,36.93Zm0-72.05c-19.36,0-35.12,15.75-35.12,35.12s15.75,35.12,35.12,35.12,35.12-15.75,35.12-35.12-15.75-35.12-35.12-35.12Z" />
            <path
                d="M263.54,168.56c-20.37,0-36.94-16.57-36.94-36.93s16.57-36.94,36.94-36.94,36.93,16.57,36.93,36.94-16.57,36.93-36.93,36.93Zm0-72.05c-19.36,0-35.12,15.75-35.12,35.12s15.75,35.12,35.12,35.12,35.12-15.75,35.12-35.12-15.75-35.12-35.12-35.12Z" />
            <path
                d="M185.3,354.56c-20.36,0-36.93-16.57-36.93-36.93s16.57-36.94,36.93-36.94,36.94,16.57,36.94,36.94-16.57,36.93-36.94,36.93Zm0-72.05c-19.36,0-35.12,15.75-35.12,35.12s15.75,35.12,35.12,35.12,35.12-15.75,35.12-35.12-15.75-35.12-35.12-35.12Z" />
            <path
                d="M159.51,264.35c-22.13,0-40.14-18.01-40.14-40.14s18.01-40.14,40.14-40.14,40.14,18.01,40.14,40.14-18.01,40.14-40.14,40.14Zm0-78.47c-21.13,0-38.32,17.2-38.32,38.33s17.19,38.32,38.32,38.32,38.33-17.19,38.33-38.32-17.2-38.33-38.33-38.33Z" />
            <path
                d="M290.18,264.35c-22.13,0-40.14-18.01-40.14-40.14s18.01-40.14,40.14-40.14,40.14,18.01,40.14,40.14-18.01,40.14-40.14,40.14Zm0-78.47c-21.13,0-38.32,17.2-38.32,38.33s17.19,38.32,38.32,38.32,38.33-17.19,38.33-38.32-17.2-38.33-38.33-38.33Z" />
            <path
                d="M263.54,354.56c-20.37,0-36.94-16.57-36.94-36.93s16.57-36.94,36.94-36.94,36.93,16.57,36.93,36.94-16.57,36.93-36.93,36.93Zm0-72.05c-19.36,0-35.12,15.75-35.12,35.12s15.75,35.12,35.12,35.12,35.12-15.75,35.12-35.12-15.75-35.12-35.12-35.12Z" />
            <path
                d="M225,331.36c-58.27,0-105.68-47.41-105.68-105.68s47.41-105.68,105.68-105.68,105.68,47.41,105.68,105.68-47.41,105.68-105.68,105.68Zm0-206.06c-55.35,0-100.38,45.03-100.38,100.38s45.03,100.38,100.38,100.38,100.38-45.03,100.38-100.38-45.03-100.38-100.38-100.38Z" />
        </g>
    </g>
</svg>