<?xml version="1.0" encoding="UTF-8"?>
<svg id="svg11" xmlns="http://www.w3.org/2000/svg" viewBox="0 0 450 450">
    <style>
        #svg11 path,
        #svg11 rect,
        #svg11 circle,
        #svg11 polygon,
        #svg11 line {
            fill: none;
            stroke: currentColor;
            stroke-miterlimit: 10;
            stroke-width: 2.59;
        }
    </style>
    <g>
        <polygon points="419.86 337.5 225 450 30.14 337.5 30.14 112.5 225 0 419.86 112.5 419.86 337.5" />
        <circle cx="225" cy="225" r="194.33" transform="translate(-93.2 225) rotate(-45)" />
        <circle cx="225" cy="225" r="225" />
        <polygon points="419.86 337.5 30.14 337.5 225 0 419.86 337.5" />
        <line x1="225" y1="450" x2="225" y2="0" />
        <line x1="419.86" y1="112.5" x2="30.14" y2="337.5" />
        <line x1="419.86" y1="337.5" x2="30.14" y2="112.5" />
        <g>
            <circle cx="225" cy="225" r="112.01" />
            <circle cx="225" cy="225" r="140.73" transform="translate(-93.2 225) rotate(-45)" />
        </g>
        <polygon points="225 112.99 127.57 168.75 127.57 281 225 337.01 322.01 281.01 322.01 169.02 225 112.99" />
    </g>
    <polygon points="-367.21 436.68 -489.43 225 -367.21 13.32 -122.79 13.32 -.57 225 -122.79 436.68 -367.21 436.68"
        style="stroke-width:2.82" />
</svg>