<?xml version="1.0" encoding="UTF-8"?>
<style>
    #svg12 polygon,
    #svg12 circle,
    #svg12 line {
        fill: none;
        stroke-width: 2.51;
        stroke-miterlimit: 10;
        stroke: currentColor;
    }

    #svg12 path {
        fill: currentColor;
    }
</style>
<svg id="svg12" xmlns="http://www.w3.org/2000/svg" viewBox="0 0 450 450">
    <g>
        <polygon points="416.2 337.26 225 447.65 33.8 337.26 33.8 116.48 225 6.09 416.2 116.48 416.2 337.26" />
        <circle cx="225" cy="226.87" r="220.78" />
        <circle cx="225" cy="225.26" r="183.16" />
        <g>
            <polygon points="415.62 116.07 225 446.24 34.38 116.07 415.62 116.07" />
            <g>
                <polygon points="67.25 315.34 225 42.1 382.75 315.34 67.25 315.34" />
                <line x1="225" y1="446.24" x2="225" y2="224.87" />
                <line x1="415.62" y1="116.07" x2="225" y2="224.87" />
                <line x1="34.38" y1="116.07" x2="225" y2="224.87" />
                <circle cx="225" cy="225" r="88.59" />
            </g>
        </g>
    </g>
    <path
        d="M240.66,225c0-8.65-7.01-15.66-15.66-15.66s-15.66,7.01-15.66,15.66,7.01,15.66,15.66,15.66,15.66-7.01,15.66-15.66Z" />
    <path d="M231.09,6.09C231.09,2.72,228.36,0,225,0s-6.09,2.72-6.09,6.09,2.72,6.09,6.09,6.09,6.09-2.72,6.09-6.09Z" />
    <path
        d="M38.46,110.27c-2.91-1.68-6.63-.68-8.31,2.23-1.68,2.91-.68,6.63,2.23,8.31,2.91,1.68,6.63,.68,8.31-2.23,1.68-2.91,.68-6.63-2.23-8.31Z" />
    <path
        d="M32.37,329.19c-2.91,1.68-3.91,5.4-2.23,8.31,1.68,2.91,5.4,3.91,8.31,2.23,2.91-1.68,3.91-5.4,2.23-8.31-1.68-2.91-5.4-3.91-8.31-2.23Z" />
    <path d="M218.91,443.91c0,3.36,2.72,6.09,6.09,6.09s6.09-2.72,6.09-6.09-2.72-6.09-6.09-6.09-6.09,2.72-6.09,6.09Z" />
    <path
        d="M411.54,339.73c2.91,1.68,6.63,.68,8.31-2.23,1.68-2.91,.68-6.63-2.23-8.31-2.91-1.68-6.63-.68-8.31,2.23-1.68,2.91-.68,6.63,2.23,8.31Z" />
    <path
        d="M417.63,120.81c2.91-1.68,3.91-5.4,2.23-8.31-1.68-2.91-5.4-3.91-8.31-2.23-2.91,1.68-3.91,5.4-2.23,8.31,1.68,2.91,5.4,3.91,8.31,2.23Z" />

</svg>