<?xml version="1.0" encoding="UTF-8"?>
<svg id="svg13" xmlns="http://www.w3.org/2000/svg" viewBox="0 0 450 450">
    <style>
        #svg13 circle,
        #svg13 line,
        #svg13 polygon {
            stroke-miterlimit: 10;
            stroke-width: 2.64;
            fill: none;
            stroke: currentColor;
        }
    </style>
    <g>
        <circle cx="225" cy="225" r="225" transform="translate(-93.2 225) rotate(-45)" />
        <polygon points="31.92 336.47 225 2.05 418.08 336.47 31.92 336.47" />
        <polygon points="418.08 113.99 225 448.41 31.92 113.99 418.08 113.99" />
        <line x1="353.99" y1="225" x2="450" y2="225" />
        <line x1="289.49" y1="113.3" x2="337.5" y2="30.14" />
        <line x1="160.51" y1="113.3" x2="112.5" y2="30.14" />
        <line x1="96.01" y1="225" x2="0" y2="225" />
        <line x1="160.51" y1="336.7" x2="112.5" y2="419.86" />
        <line x1="289.49" y1="336.7" x2="337.5" y2="419.86" />
        <polygon points="74.86 311.73 225 51.69 375.14 311.73 74.86 311.73" />
        <polygon points="375.14 138.73 225 398.77 74.86 138.73 375.14 138.73" />
        <line x1="225" y1="2.05" x2="225" y2="225" />
        <line x1="31.92" y1="336.47" x2="225" y2="225" />
        <line x1="418.08" y1="336.47" x2="225" y2="225" />
    </g>
</svg>