<?xml version="1.0" encoding="UTF-8"?>
<svg id="svg14" xmlns="http://www.w3.org/2000/svg" viewBox="0 0 450 450">
    <style>
        #svg14 polygon,
        #svg14 line,
        #svg14 circle {
            fill: none;
            stroke: currentColor;
            stroke-width: 2.66;
            stroke-miterlimit: 10;
        }
    </style>
    <polygon points="419.86 337.5 225 450 30.14 337.5 30.14 112.5 225 0 419.86 112.5 419.86 337.5" />
    <polygon points="30.14 337.5 225 0 419.86 337.5 30.14 337.5" />
    <circle cx="225" cy="225" r="225" />
    <polygon points="419.86 112.08 225 449.58 30.14 112.08 419.86 112.08" />
    <line x1="225" y1="225" x2="225" y2="0" />
    <line x1="30.14" y1="337.5" x2="225" y2="225" />
    <line x1="419.86" y1="337.5" x2="225" y2="225" />
    <circle cx="225" cy="66.86" r="66.86" />
    <circle cx="225" cy="416.15" r="33.43" transform="translate(-247.47 440.05) rotate(-64.5)" />
    <circle cx="225" cy="225" r="56.25" transform="translate(-31.52 36.73) rotate(-8.72)" />
    <circle cx="225" cy="225" r="18.28" style="fill:currentColor" />
</svg>