<?xml version="1.0" encoding="UTF-8"?>
<svg id="svg16" xmlns="http://www.w3.org/2000/svg" viewBox="0 0 450 450">
    <style>
        #svg16 polygon,
        #svg16 line,
        #svg16 circle {
            fill: none;
            stroke: currentColor;
            stroke-miterlimit: 10;
            stroke-width: 2.64;
        }
    </style>
    <g>
        <polygon points="321.96 280.98 128.04 280.98 225 113.04 321.96 280.98" />
        <line x1="225" y1="336.96" x2="225" y2="113.04" />
        <line x1="321.96" y1="169.02" x2="128.04" y2="280.98" />
        <line x1="321.96" y1="280.98" x2="128.04" y2="169.02" />
        <circle cx="225" cy="225" r="55.74" transform="translate(-93.2 225) rotate(-45)" />
    </g>
    <g>
        <circle cx="225" cy="225" r="225" transform="translate(-93.2 225) rotate(-45)" />
        <polygon points="30.16 337.48 225 0 419.84 337.48 30.16 337.48" />
        <polygon points="166.76 442.31 65.9 65.9 442.31 166.76 166.76 442.31" />
        <polygon points="337.48 419.84 0 225 337.48 30.16 337.48 419.84" />
        <polygon points="442.31 283.24 65.9 384.1 166.76 7.69 442.31 283.24" />
        <polygon points="419.84 112.52 225 450 30.16 112.52 419.84 112.52" />
        <polygon points="283.24 7.69 384.1 384.1 7.69 283.24 283.24 7.69" />
        <polygon points="112.52 30.16 450 225 112.52 419.84 112.52 30.16" />
        <polygon points="7.69 166.76 384.1 65.9 283.24 442.31 7.69 166.76" />
    </g>
</svg>