<?xml version="1.0" encoding="UTF-8"?>
<svg id="svg3" xmlns="http://www.w3.org/2000/svg" viewBox="0 0 450 450">
    <style>
        #svg3 path,
        #svg3 rect {
            fill: currentColor
        }
    </style>
    <path
        d="M225,442.58c-73.8,0-133.84-60.04-133.84-133.84s60.04-133.85,133.84-133.85,133.84,60.04,133.84,133.85-60.04,133.84-133.84,133.84Zm0-265.56c-72.63,0-131.72,59.09-131.72,131.72s59.09,131.72,131.72,131.72,131.72-59.09,131.72-131.72-59.09-131.72-131.72-131.72Z" />
    <path
        d="M133.84,275.11C60.04,275.11,0,215.07,0,141.26S60.04,7.42,133.84,7.42s133.84,60.04,133.84,133.84-60.04,133.85-133.84,133.85Zm0-265.57C61.21,9.54,2.13,68.64,2.13,141.26s59.09,131.72,131.72,131.72,131.72-59.09,131.72-131.72S206.47,9.54,133.84,9.54Z" />
    <path
        d="M316.16,275.11c-73.8,0-133.84-60.04-133.84-133.85S242.36,7.42,316.16,7.42s133.84,60.04,133.84,133.84-60.04,133.85-133.84,133.85Zm0-265.57c-72.63,0-131.72,59.09-131.72,131.72s59.09,131.72,131.72,131.72,131.72-59.09,131.72-131.72S388.79,9.54,316.16,9.54Z" />
    <path d="M225.04,351.21L92.4,123.26H353.15l-128.11,227.95ZM103.18,129.46l121.78,209.27,117.61-209.27H103.18Z" />
    <path d="M224.88,325.36L114.52,136.88h216.94l-106.58,188.48ZM118.23,139l106.62,182.1,102.97-182.1H118.23Z" />
    <path d="M233.99,200.45c0,4.97-4.02,8.98-8.99,8.98s-8.99-4.02-8.99-8.98,4.03-8.99,8.99-8.99,8.99,4.03,8.99,8.99Z" />
    <path d="M81.21,112.33c0,3.97-3.22,7.2-7.19,7.2s-7.19-3.23-7.19-7.2,3.22-7.2,7.19-7.2,7.19,3.23,7.19,7.2Z" />
    <path d="M376.33,112.33c0,3.97-3.22,7.2-7.19,7.2s-7.19-3.23-7.19-7.2,3.22-7.2,7.19-7.2,7.19,3.23,7.19,7.2Z" />
    <path d="M232.29,369.97c0,3.98-3.22,7.2-7.19,7.2s-7.19-3.22-7.19-7.2,3.22-7.2,7.19-7.2,7.19,3.23,7.19,7.2Z" />
    <path
        d="M32.46,106.43c-10.31,0-18.69-8.39-18.69-18.7s8.38-18.69,18.69-18.69,18.69,8.39,18.69,18.69-8.39,18.7-18.69,18.7Zm0-31.19c-6.89,0-12.49,5.61-12.49,12.49s5.61,12.5,12.49,12.5,12.5-5.61,12.5-12.5-5.61-12.49-12.5-12.49Z" />
    <path
        d="M415.26,102.77c-10.31,0-18.69-8.38-18.69-18.69s8.39-18.69,18.69-18.69,18.69,8.39,18.69,18.69-8.38,18.69-18.69,18.69Zm0-31.18c-6.89,0-12.5,5.6-12.5,12.49s5.61,12.49,12.5,12.49,12.49-5.61,12.49-12.49-5.61-12.49-12.49-12.49Z" />
    <path
        d="M225,441.49c-10.31,0-18.7-8.39-18.7-18.69s8.39-18.7,18.7-18.7,18.69,8.39,18.69,18.7-8.38,18.69-18.69,18.69Zm0-31.19c-6.89,0-12.49,5.61-12.49,12.5s5.6,12.49,12.49,12.49,12.49-5.61,12.49-12.49-5.61-12.5-12.49-12.5Z" />
    <rect x="149.29" y="2.35" width="2.12" height="310.35" transform="translate(-61.82 206.53) rotate(-59.34)" />
    <rect x="138.55" y="157.31" width="316.47" height="2.13" transform="translate(-38.83 181.38) rotate(-32.01)" />
    <rect x="223.94" y="126.36" width="2.13" height="315.16" />
    <path
        d="M94.2,220.15C44.43,220.15,3.95,178.21,3.95,126.66S44.43,33.17,94.2,33.17s90.24,41.94,90.24,93.49-40.48,93.49-90.24,93.49Zm0-184.85C45.6,35.3,6.07,76.28,6.07,126.66s39.53,91.36,88.13,91.36,88.12-40.98,88.12-91.36S142.79,35.3,94.2,35.3Z" />
    <path
        d="M355.81,220.15c-49.76,0-90.24-41.94-90.24-93.49s40.48-93.49,90.24-93.49,90.25,41.94,90.25,93.49-40.49,93.49-90.25,93.49Zm0-184.85c-48.59,0-88.12,40.99-88.12,91.36s39.53,91.36,88.12,91.36,88.12-40.98,88.12-91.36-39.53-91.36-88.12-91.36Z" />
    <path
        d="M225.09,442.58c-49.99,0-90.65-42.13-90.65-93.91s40.67-93.92,90.65-93.92,90.66,42.13,90.66,93.92-40.67,93.91-90.66,93.91Zm0-185.71c-48.82,0-88.53,41.18-88.53,91.8s39.72,91.79,88.53,91.79,88.53-41.18,88.53-91.79-39.72-91.8-88.53-91.8Z" />
</svg>