<?xml version="1.0" encoding="UTF-8"?>
<svg id="svg4" xmlns="http://www.w3.org/2000/svg" viewBox="0 0 450 450">
    <style>
        #svg4 polygon {
            fill: none;
            stroke: currentColor;
            stroke-linecap: round;
            stroke-linejoin: round;
            stroke-width: 2.61;
        }
    </style>
    <polygon points="85.94 438.82 0 174.52 225 11.18 450 174.52 364.06 438.82 85.94 438.82" />
    <polygon points="336.7 93.5 405.73 305.79 225 436.99 44.27 305.79 113.3 93.5 336.7 93.5" />
    <polygon points="135.81 370.64 80.69 201.12 225 96.35 369.31 201.12 314.19 370.64 135.81 370.64" />
    <polygon points="296.64 149.15 340.92 285.31 225 369.47 109.08 285.31 153.36 149.15 296.64 149.15" />
    <polygon points="168.36 326.01 133.35 218.36 225 151.82 316.65 218.36 281.64 326.01 168.36 326.01" />
    <polygon points="270.5 185.35 298.62 271.82 225 325.27 151.38 271.82 179.5 185.35 270.5 185.35" />
    <polygon points="188.67 298.24 166.22 229.19 225 186.52 283.78 229.19 261.33 298.24 188.67 298.24" />
    <polygon points="254.18 208.02 272.22 263.48 225 297.76 177.78 263.48 195.82 208.02 254.18 208.02" />
</svg>