<?xml version="1.0" encoding="UTF-8"?>
<svg id="svg5" xmlns="http://www.w3.org/2000/svg" viewBox="0 0 450 450">
    <style>
        #svg5 path,
        #svg5 polygon {
            fill: none;
            stroke: currentColor;
            stroke-linecap: round;
            stroke-linejoin: round;
            stroke-width: 2.61;
        }
    </style>
    <path
        d="M225,45l78.01,45.01,77.92,44.93,.09,90.06v90l-78.01,44.99-78.01,45.01-78.01-45.01-78.02-44.99v-90l.15-90.09,77.87-44.9,78.01-45.01Zm-.06,45.07l-58.51,33.76-58.42,33.69-.09,67.55v67.5l58.51,33.74,58.51,33.76,58.51-33.76,58.52-33.74v-67.5l-.11-67.56-58.41-33.68-58.51-33.76Z"
        fill-rule="evenodd" />
    <path
        d="M224.89,130.61l40.95,23.63,40.96,23.62v94.5l-40.96,23.62-40.95,23.63-40.95-23.63-40.96-23.62v-47.25l.43-47.49,40.53-23.37,40.95-23.63Zm-.03,49.17l-19.66,11.34-19.66,11.34v45.36l19.66,11.33,19.66,11.34,19.66-11.34,19.66-11.33v-45.36l-19.66-11.34-19.66-11.34Z"
        fill-rule="evenodd" />
    <polygon points="263.97 202.34 224.6 224.48 186 202.2 205.2 191.13 224.86 179.79 244.52 191.13 263.97 202.34" />
    <polygon
        points="341.86 157.5 306.59 177.74 265.85 154.24 224.89 130.61 183.94 154.24 143.41 177.61 108.01 157.51 166.43 123.82 224.94 90.06 283.45 123.82 341.86 157.5" />
    <polygon
        points="419.82 112.38 380.93 134.94 303.01 90.01 225 45 146.99 90.01 69.12 134.91 30.12 112.41 127.49 56.26 225 0 322.52 56.26 419.82 112.38" />
    <polygon
        points="224.86 270.5 205.2 259.16 185.55 247.82 185.55 225.14 185.55 202.46 186 202.2 224.6 224.48 224.86 270.5"
        fill-rule="evenodd" />
    <polygon
        points="224.6 224.48 224.6 224.48 263.97 202.34 264.18 225.14 264.18 247.82 244.52 259.16 224.86 270.5 224.6 224.48" />
    <polygon
        points="224.94 360.06 166.43 326.3 107.92 292.56 107.93 225.06 108.01 157.51 143.41 177.61 142.99 225.11 142.98 272.36 183.94 295.98 224.89 319.61 224.94 360.06"
        fill-rule="evenodd" />
    <polygon
        points="225 450 127.49 393.74 29.96 337.5 29.97 225 30.12 112.41 69.12 134.91 68.98 225 68.97 315 146.99 359.99 225 405 225 450"
        fill-rule="evenodd" />
    <polygon
        points="225 405 303.01 359.99 381.03 315 381.02 225 380.93 134.94 419.82 112.38 420.03 225 420.04 337.5 322.52 393.74 225 450 225 405" />
    <polygon
        points="224.94 360.06 283.34 326.3 341.86 292.56 341.85 225.06 341.77 157.51 306.37 177.61 306.8 177.86 306.79 225.11 306.8 272.36 265.84 295.98 224.89 319.61 224.94 360.06"
        fill-rule="evenodd" />
</svg>