<?xml version="1.0" encoding="UTF-8"?>
<svg id="svg6" xmlns="http://www.w3.org/2000/svg" viewBox="0 0 450 450">
    <style>
        #svg6 path,
        #svg6 polygon,
        #svg6 line {
            stroke-linecap: round;
            stroke-linejoin: round;
            stroke-width: 2.61;
            fill: none;
            stroke: currentColor;
        }
    </style>
    <polygon points="95.49 297.9 225 73.65 354.51 297.9 95.49 297.9" />
    <polygon points="419.92 337.5 225 450 30.08 337.5 30.08 112.5 225 0 419.92 112.5 419.92 337.5" />
    <polygon points="354.51 151.04 225 375.29 95.49 151.04 354.51 151.04" />
    <polygon points="30.08 336.73 225 375.29 419.92 336.73 354.51 151.04 225 0 95.49 151.04 30.08 336.73" />
    <polygon points="419.92 112.1 225 73.65 30.08 112.5 95.49 297.9 225 448.83 354.51 297.9 419.92 112.1" />
    <path d="M354.51,151.04c40.37-23.22,26.08-16.12,65.4-38.94" />
    <path d="M30.08,336.73c65.17-37.63,.13-.53,65.17-37.63" />
    <path d="M96.13,149.93c-40.47-23.04-26.44-15.08-66.04-37.43" />
    <path d="M224.79,449.32c0-75.24-.4-.38,0-75.24" />
    <path d="M224.79,75.24C224.8,0,224.4,74.86,224.8,0" />
    <line x1="354.51" y1="297.9" x2="419.92" y2="336.73" />
</svg>