<?xml version="1.0" encoding="UTF-8"?>
<svg id="svg7" xmlns="http://www.w3.org/2000/svg" viewBox="0 0 450 450">
    <style>
        #svg7 {
            fill: currentColor;
        }
    </style>
    <path d="M101.56,392.37H0V57.63H101.56V392.37Zm-94.18-7.38H94.19V65H7.38V385Z" />
    <path d="M275.78,392.37h-101.56V57.63h101.56V392.37Zm-94.17-7.38h86.8V65h-86.8V385Z" />
    <path d="M450,392.37h-101.56V57.63h101.56V392.37Zm-94.18-7.38h86.8V65h-86.8V385Z" />
    <path d="M392.38,101.56H57.63V0H392.38V101.56Zm-327.37-7.38H385V7.38H65.01V94.18Z" />
    <path d="M392.38,275.78H57.63v-101.56H392.38v101.56Zm-327.37-7.38H385v-86.8H65.01v86.8Z" />
    <path d="M392.38,450H57.63v-101.56H392.38v101.56Zm-327.37-7.38H385v-86.8H65.01v86.8Z" />
</svg>