<?xml version="1.0" encoding="UTF-8"?>
<svg id="svg8" xmlns="http://www.w3.org/2000/svg" viewBox="0 0 450 450">
    <style>
        #svg8 path,
        #svg8 rect,
        #svg8 polygon {
            fill: currentColor;
        }
    </style>
    <path d="M230.72,259.78c0,3.23-2.61,5.84-5.84,5.84s-5.84-2.61-5.84-5.84,2.62-5.84,5.84-5.84,5.84,2.61,5.84,5.84Z" />
    <path d="M230.72,119.12c0,3.23-2.61,5.84-5.84,5.84s-5.84-2.61-5.84-5.84,2.62-5.84,5.84-5.84,5.84,2.61,5.84,5.84Z" />
    <path d="M227.93,146.6c0,1.68-1.36,3.05-3.05,3.05s-3.05-1.36-3.05-3.05,1.36-3.05,3.05-3.05,3.05,1.36,3.05,3.05Z" />
    <path d="M104.47,364.46c0,1.68-1.37,3.05-3.05,3.05s-3.05-1.37-3.05-3.05,1.37-3.05,3.05-3.05,3.05,1.36,3.05,3.05Z" />
    <path d="M351.49,364.46c0,1.68-1.37,3.05-3.05,3.05s-3.05-1.37-3.05-3.05,1.37-3.05,3.05-3.05,3.05,1.36,3.05,3.05Z" />
    <path d="M200.89,310.4c0,3.23-2.62,5.84-5.84,5.84s-5.84-2.61-5.84-5.84,2.61-5.84,5.84-5.84,5.84,2.61,5.84,5.84Z" />
    <path d="M82.28,378.71c0,3.23-2.61,5.84-5.84,5.84s-5.84-2.61-5.84-5.84,2.62-5.84,5.84-5.84,5.84,2.61,5.84,5.84Z" />
    <path d="M379.27,378.71c0,3.23-2.61,5.84-5.84,5.84s-5.84-2.61-5.84-5.84,2.62-5.84,5.84-5.84,5.84,2.61,5.84,5.84Z" />
    <path d="M260.99,310.4c0,3.23-2.61,5.84-5.84,5.84s-5.84-2.61-5.84-5.84,2.62-5.84,5.84-5.84,5.84,2.61,5.84,5.84Z" />
    <path
        d="M225.27,353.71c-50.73,0-92-41.27-92-92.01s41.27-92.01,92-92.01,92.01,41.27,92.01,92.01-41.27,92.01-92.01,92.01Zm0-182.23c-49.75,0-90.23,40.48-90.23,90.23s40.47,90.23,90.23,90.23,90.23-40.48,90.23-90.23-40.47-90.23-90.23-90.23Z" />
    <path
        d="M197.61,400.38c-50.73,0-92-41.27-92-92.01s41.27-92.01,92-92.01,92.01,41.27,92.01,92.01-41.28,92.01-92.01,92.01Zm0-182.24c-49.75,0-90.23,40.48-90.23,90.23s40.47,90.23,90.23,90.23,90.23-40.48,90.23-90.23-40.48-90.23-90.23-90.23Z" />
    <path
        d="M252.6,400.38c-50.73,0-92.01-41.27-92.01-92.01s41.27-92.01,92.01-92.01,92.01,41.27,92.01,92.01-41.28,92.01-92.01,92.01Zm0-182.24c-49.75,0-90.23,40.48-90.23,90.23s40.47,90.23,90.23,90.23,90.23-40.48,90.23-90.23-40.48-90.23-90.23-90.23Z" />
    <path
        d="M253.87,387.59c-43.68,0-79.21-35.54-79.21-79.21s35.54-79.21,79.21-79.21,79.22,35.54,79.22,79.21-35.54,79.21-79.22,79.21Zm0-156.65c-42.7,0-77.44,34.74-77.44,77.43s34.74,77.44,77.44,77.44,77.44-34.74,77.44-77.44-34.74-77.43-77.44-77.43Z" />
    <path
        d="M197.61,387.59c-43.68,0-79.21-35.54-79.21-79.21s35.54-79.21,79.21-79.21,79.21,35.54,79.21,79.21-35.54,79.21-79.21,79.21Zm0-156.65c-42.7,0-77.43,34.74-77.43,77.43s34.74,77.44,77.43,77.44,77.44-34.74,77.44-77.44-34.74-77.43-77.44-77.43Z" />
    <path
        d="M225.27,340.92c-43.68,0-79.21-35.54-79.21-79.21s35.54-79.22,79.21-79.22,79.21,35.53,79.21,79.22-35.54,79.21-79.21,79.21Zm0-156.65c-42.7,0-77.43,34.74-77.43,77.44s34.74,77.44,77.43,77.44,77.44-34.74,77.44-77.44-34.74-77.44-77.44-77.44Z" />
    <path d="M415.45,402.91H34.55L225,73.04l190.45,329.86Zm-371.9-5.19H406.45L225,83.43,43.55,397.71Z" />
    <path d="M433.62,411.83H16.38l.77-1.33L225,50.48l208.62,361.34Zm-414.16-1.78H430.53L225,54.05,19.46,410.05Z" />
    <path d="M450,419.85H0l.77-1.33L225,30.15l225,389.71Zm-446.92-1.78H446.91L225,33.71,3.08,418.08Z" />
    <polygon points="410.5 401.08 225 294.38 39.5 401.08 38.61 399.54 225 292.32 411.39 399.54 410.5 401.08" />
    <rect x="224.11" y="78.24" width="1.78" height="215.11" />
    <rect x="122.17" y="219.83" width="1.78" height="24.07" transform="translate(-139.22 221.08) rotate(-59.69)" />
    <rect x="316.54" y="231.77" width="21.61" height="1.78" transform="translate(-71.92 189.33) rotate(-29.21)" />
    <rect x="224.63" y="400.66" width="1.78" height="18.22" />
</svg>