<?xml version="1.0" encoding="UTF-8"?>
<svg id="svg9" xmlns="http://www.w3.org/2000/svg" viewBox="0 0 450 450">
    <style>
        #svg9 path,
        #svg9 rect {
            fill: currentColor;
        }
    </style>
    <path
        d="M323.95,395.89H127.21L28.84,225.5,127.21,55.12h196.74l98.37,170.38-98.37,170.38Zm-193.74-5.19h190.74l95.37-165.19L320.96,60.31H130.21L34.84,225.5l95.37,165.19Z" />
    <path
        d="M328.88,404.4H122.29l-.26-.45L19,225.5l.26-.45L122.29,46.6h206.58l.26,.44,103.03,178.45-.26,.44-103.03,178.46Zm-205.55-1.78h204.52l102.26-177.12L327.84,48.38H123.32L21.06,225.5l102.26,177.12Z" />
    <path
        d="M322.45,394.18c-.15,0-.31-.04-.44-.12L31.4,226.27c-.28-.16-.45-.45-.45-.77s.17-.61,.45-.77L322.01,56.94c.28-.16,.61-.16,.89,0,.28,.16,.45,.45,.45,.77V393.29c0,.32-.17,.61-.45,.77-.14,.08-.29,.12-.45,.12ZM33.62,225.5l287.94,166.24V59.26L33.62,225.5Z" />
    <path
        d="M128.71,394.18c-.15,0-.31-.04-.45-.12-.28-.16-.44-.45-.44-.77V57.72c0-.32,.17-.61,.44-.77,.28-.16,.61-.16,.89,0L419.77,224.73c.28,.16,.45,.45,.45,.77s-.17,.61-.45,.77L129.16,394.06c-.14,.08-.29,.12-.44,.12Zm.89-334.92V391.75L417.54,225.5,129.6,59.26Z" />
    <rect x="224.69" y="31.76" width="1.78" height="387.48" transform="translate(-82.53 143) rotate(-30)" />
    <rect x="31.84" y="224.61" width="387.48" height="1.78" />
    <rect x="31.84" y="224.61" width="387.48" height="1.78" transform="translate(-82.44 308.32) rotate(-60.04)" />
    <path
        d="M224.9,323.53c-53.82,0-97.6-43.78-97.6-97.6s43.78-97.6,97.6-97.6,97.6,43.78,97.6,97.6-43.79,97.6-97.6,97.6Zm0-193.42c-52.83,0-95.82,42.98-95.82,95.82s42.99,95.82,95.82,95.82,95.82-42.98,95.82-95.82-42.99-95.82-95.82-95.82Z" />
    <path
        d="M224.9,296.67c-39,0-70.74-31.73-70.74-70.74s31.73-70.74,70.74-70.74,70.73,31.73,70.73,70.74-31.73,70.74-70.73,70.74Zm0-139.69c-38.02,0-68.96,30.93-68.96,68.96s30.94,68.96,68.96,68.96,68.96-30.93,68.96-68.96-30.93-68.96-68.96-68.96Z" />
    <path
        d="M224.9,287.52c-33.96,0-61.59-27.63-61.59-61.59s27.63-61.59,61.59-61.59,61.59,27.63,61.59,61.59-27.63,61.59-61.59,61.59Zm0-121.4c-32.98,0-59.81,26.83-59.81,59.81s26.83,59.81,59.81,59.81,59.81-26.83,59.81-59.81-26.83-59.81-59.81-59.81Z" />
    <path d="M234.3,225.93c0,5.19-4.21,9.4-9.4,9.4s-9.41-4.21-9.41-9.4,4.21-9.4,9.41-9.4,9.4,4.21,9.4,9.4Z" />
    <path d="M101.04,141.23c0,2.55-2.07,4.61-4.61,4.61s-4.61-2.06-4.61-4.61,2.06-4.6,4.61-4.6,4.61,2.06,4.61,4.6Z" />
    <path d="M231.49,70.12c0,2.54-2.06,4.6-4.6,4.6s-4.61-2.06-4.61-4.6,2.06-4.61,4.61-4.61,4.6,2.06,4.6,4.61Z" />
    <path d="M365.43,146.9c0,2.54-2.07,4.61-4.61,4.61s-4.61-2.06-4.61-4.61,2.06-4.6,4.61-4.6,4.61,2.06,4.61,4.6Z" />
    <path d="M367.61,299.6c0,2.55-2.06,4.61-4.6,4.61s-4.61-2.06-4.61-4.61,2.06-4.6,4.61-4.6,4.6,2.06,4.6,4.6Z" />
    <path d="M92.75,299.6c0,2.55-2.06,4.61-4.6,4.61s-4.61-2.06-4.61-4.61,2.06-4.6,4.61-4.6,4.6,2.06,4.6,4.6Z" />
    <path d="M231.05,382.06c0,2.55-2.06,4.61-4.61,4.61s-4.61-2.06-4.61-4.61,2.07-4.6,4.61-4.6,4.61,2.06,4.61,4.6Z" />
    <path d="M127.85,47.49c0,2.78-2.26,5.04-5.04,5.04s-5.04-2.25-5.04-5.04,2.26-5.04,5.04-5.04,5.04,2.26,5.04,5.04Z" />
    <path d="M333.34,47.49c0,2.78-2.26,5.04-5.04,5.04s-5.04-2.25-5.04-5.04,2.26-5.04,5.04-5.04,5.04,2.26,5.04,5.04Z" />
    <path d="M436.3,225.93c0,2.78-2.26,5.04-5.04,5.04s-5.04-2.26-5.04-5.04,2.25-5.04,5.04-5.04,5.04,2.25,5.04,5.04Z" />
    <path d="M24.45,225.93c0,2.78-2.26,5.04-5.04,5.04s-5.04-2.26-5.04-5.04,2.26-5.04,5.04-5.04,5.04,2.25,5.04,5.04Z" />
    <path d="M127.41,403.5c0,2.78-2.26,5.04-5.04,5.04s-5.04-2.25-5.04-5.04,2.25-5.04,5.04-5.04,5.04,2.26,5.04,5.04Z" />
    <path d="M332.9,403.5c0,2.78-2.26,5.04-5.04,5.04s-5.04-2.25-5.04-5.04,2.25-5.04,5.04-5.04,5.04,2.26,5.04,5.04Z" />
    <path
        d="M129.84,89.81c-17.58,0-31.89-14.31-31.89-31.89s14.31-31.89,31.89-31.89,31.89,14.3,31.89,31.89-14.31,31.89-31.89,31.89Zm0-61.99c-16.6,0-30.11,13.51-30.11,30.11s13.51,30.11,30.11,30.11,30.11-13.51,30.11-30.11-13.51-30.11-30.11-30.11Z" />
    <path
        d="M322.02,89.81c-17.58,0-31.89-14.31-31.89-31.89s14.31-31.89,31.89-31.89,31.88,14.3,31.88,31.89-14.3,31.89-31.88,31.89Zm0-61.99c-16.6,0-30.11,13.51-30.11,30.11s13.51,30.11,30.11,30.11,30.1-13.51,30.1-30.11-13.5-30.11-30.1-30.11Z" />
    <path
        d="M31.89,257.82c-17.58,0-31.89-14.31-31.89-31.89s14.31-31.89,31.89-31.89,31.89,14.31,31.89,31.89-14.31,31.89-31.89,31.89Zm0-62c-16.6,0-30.11,13.51-30.11,30.11s13.51,30.11,30.11,30.11,30.11-13.51,30.11-30.11-13.51-30.11-30.11-30.11Z" />
    <path
        d="M418.11,257.82c-17.58,0-31.88-14.31-31.88-31.89s14.3-31.89,31.88-31.89,31.89,14.31,31.89,31.89-14.31,31.89-31.89,31.89Zm0-62c-16.6,0-30.1,13.51-30.1,30.11s13.5,30.11,30.1,30.11,30.11-13.51,30.11-30.11-13.51-30.11-30.11-30.11Z" />
    <path
        d="M130.46,423.96c-17.58,0-31.89-14.31-31.89-31.89s14.31-31.89,31.89-31.89,31.88,14.3,31.88,31.89-14.3,31.89-31.88,31.89Zm0-61.99c-16.6,0-30.11,13.51-30.11,30.11s13.51,30.11,30.11,30.11,30.1-13.51,30.1-30.11-13.5-30.11-30.1-30.11Z" />
    <path
        d="M320.78,423.96c-17.58,0-31.89-14.31-31.89-31.89s14.31-31.89,31.89-31.89,31.89,14.3,31.89,31.89-14.31,31.89-31.89,31.89Zm0-61.99c-16.6,0-30.11,13.51-30.11,30.11s13.51,30.11,30.11,30.11,30.11-13.51,30.11-30.11-13.51-30.11-30.11-30.11Z" />
</svg>